{"glyphs":{"0":{"ha":1221,"x_min":0,"x_max":1355,"o":"m 1221 -134 l 1221 -1 l 1355 -1 l 1355 -134 l 1221 -134 m 1221 -1 l 1221 135 l 1355 135 l 1355 -1 l 1221 -1 m 1221 135 l 1221 271 l 1355 271 l 1355 135 l 1221 135 m 1221 271 l 1221 407 l 1355 407 l 1355 271 l 1221 271 m 1221 407 l 1221 543 l 1355 543 l 1355 407 l 1221 407 m 1221 543 l 1221 679 l 1355 679 l 1355 543 l 1221 543 m 1221 679 l 1221 815 l 1355 815 l 1355 679 l 1221 679 m 1221 -134 l 1221 -269 l 1086 -269 l 1086 -134 l 1221 -134 m 1086 -134 l 1086 -1 l 1221 -1 l 1221 -134 l 1086 -134 m 1086 -1 l 1086 135 l 1221 135 l 1221 -1 l 1086 -1 m 1086 135 l 1086 271 l 1221 271 l 1221 135 l 1086 135 m 1086 271 l 1086 407 l 1221 407 l 1221 271 l 1086 271 m 1086 407 l 1086 543 l 1221 543 l 1221 407 l 1086 407 m 1086 543 l 1086 679 l 1221 679 l 1221 543 l 1086 543 m 1086 679 l 1086 815 l 1221 815 l 1221 679 l 1086 679 m 1086 815 l 1086 948 l 1221 948 l 1221 815 l 1086 815 m 949 948 l 949 1084 l 1086 1084 l 1086 948 l 949 948 m 1086 -134 l 1086 -269 l 949 -269 l 949 -134 l 1086 -134 m 949 -134 l 949 -1 l 1086 -1 l 1086 -134 l 949 -134 m 949 -1 l 949 135 l 1086 135 l 1086 -1 l 949 -1 m 949 815 l 949 948 l 1086 948 l 1086 815 l 949 815 m 814 948 l 814 1084 l 949 1084 l 949 948 l 814 948 m 949 -134 l 949 -269 l 814 -269 l 814 -134 l 949 -134 m 814 -134 l 814 -1 l 949 -1 l 949 -134 l 814 -134 m 677 948 l 677 1084 l 814 1084 l 814 948 l 677 948 m 814 -134 l 814 -269 l 677 -269 l 677 -134 l 814 -134 m 677 -134 l 677 -1 l 814 -1 l 814 -134 l 677 -134 m 677 135 l 677 271 l 814 271 l 814 135 l 677 135 m 677 271 l 677 407 l 814 407 l 814 271 l 677 271 m 677 407 l 677 543 l 814 543 l 814 407 l 677 407 m 677 679 l 677 815 l 814 815 l 814 679 l 677 679 m 541 948 l 541 1084 l 677 1084 l 677 948 l 541 948 m 677 -134 l 677 -269 l 541 -269 l 541 -134 l 677 -134 m 541 -134 l 541 -1 l 677 -1 l 677 -134 l 541 -134 m 541 135 l 541 271 l 677 271 l 677 135 l 541 135 m 541 271 l 541 407 l 677 407 l 677 271 l 541 271 m 541 543 l 541 679 l 677 679 l 677 543 l 541 543 m 541 679 l 541 815 l 677 815 l 677 679 l 541 679 m 408 948 l 408 1084 l 541 1084 l 541 948 l 408 948 m 541 -134 l 541 -269 l 408 -269 l 408 -134 l 541 -134 m 408 -134 l 408 -1 l 541 -1 l 541 -134 l 408 -134 m 408 135 l 408 271 l 541 271 l 541 135 l 408 135 m 408 407 l 408 543 l 541 543 l 541 407 l 408 407 m 408 543 l 408 679 l 541 679 l 541 543 l 408 543 m 408 679 l 408 815 l 541 815 l 541 679 l 408 679 m 272 948 l 272 1084 l 408 1084 l 408 948 l 272 948 m 408 -134 l 408 -269 l 272 -269 l 272 -134 l 408 -134 m 272 -134 l 272 -1 l 408 -1 l 408 -134 l 272 -134 m 136 948 l 136 1084 l 272 1084 l 272 948 l 136 948 m 136 -134 l 136 -1 l 272 -1 l 272 -134 l 136 -134 m 136 -1 l 136 135 l 272 135 l 272 -1 l 136 -1 m 136 815 l 136 948 l 272 948 l 272 815 l 136 815 m 0 -1 l 0 135 l 136 135 l 136 -1 l 0 -1 m 0 135 l 0 271 l 136 271 l 136 135 l 0 135 m 0 271 l 0 407 l 136 407 l 136 271 l 0 271 m 0 407 l 0 543 l 136 543 l 136 407 l 0 407 m 0 543 l 0 679 l 136 679 l 136 543 l 0 543 m 0 679 l 0 815 l 136 815 l 136 679 l 0 679 m 0 815 l 0 948 l 136 948 l 136 815 l 0 815 z "},"1":{"ha":1086,"x_min":0,"x_max":1221,"o":"m 1221 -134 l 1221 -269 l 1086 -269 l 1086 -134 l 1221 -134 m 1086 -134 l 1086 -1 l 1221 -1 l 1221 -134 l 1086 -134 m 1086 -1 l 1086 135 l 1221 135 l 1221 -1 l 1086 -1 m 1086 -134 l 1086 -269 l 949 -269 l 949 -134 l 1086 -134 m 949 -134 l 949 -1 l 1086 -1 l 1086 -134 l 949 -134 m 949 -1 l 949 135 l 1086 135 l 1086 -1 l 949 -1 m 949 135 l 949 271 l 1086 271 l 1086 135 l 949 135 m 949 -134 l 949 -269 l 814 -269 l 814 -134 l 949 -134 m 814 -134 l 814 -1 l 949 -1 l 949 -134 l 814 -134 m 814 135 l 814 271 l 949 271 l 949 135 l 814 135 m 814 271 l 814 407 l 949 407 l 949 271 l 814 271 m 814 407 l 814 543 l 949 543 l 949 407 l 814 407 m 814 543 l 814 679 l 949 679 l 949 543 l 814 543 m 814 679 l 814 815 l 949 815 l 949 679 l 814 679 m 814 815 l 814 948 l 949 948 l 949 815 l 814 815 m 677 948 l 677 1084 l 814 1084 l 814 948 l 677 948 m 814 -134 l 814 -269 l 677 -269 l 677 -134 l 814 -134 m 677 -134 l 677 -1 l 814 -1 l 814 -134 l 677 -134 m 677 135 l 677 271 l 814 271 l 814 135 l 677 135 m 677 271 l 677 407 l 814 407 l 814 271 l 677 271 m 677 407 l 677 543 l 814 543 l 814 407 l 677 407 m 677 543 l 677 679 l 814 679 l 814 543 l 677 543 m 677 679 l 677 815 l 814 815 l 814 679 l 677 679 m 677 815 l 677 948 l 814 948 l 814 815 l 677 815 m 541 948 l 541 1084 l 677 1084 l 677 948 l 541 948 m 677 -134 l 677 -269 l 541 -269 l 541 -134 l 677 -134 m 541 -134 l 541 -1 l 677 -1 l 677 -134 l 541 -134 m 408 948 l 408 1084 l 541 1084 l 541 948 l 408 948 m 541 -134 l 541 -269 l 408 -269 l 408 -134 l 541 -134 m 408 -134 l 408 -1 l 541 -1 l 541 -134 l 408 -134 m 272 948 l 272 1084 l 408 1084 l 408 948 l 272 948 m 408 -134 l 408 -269 l 272 -269 l 272 -134 l 408 -134 m 272 -134 l 272 -1 l 408 -1 l 408 -134 l 272 -134 m 272 135 l 272 271 l 408 271 l 408 135 l 272 135 m 272 271 l 272 407 l 408 407 l 408 271 l 272 271 m 272 407 l 272 543 l 408 543 l 408 407 l 272 407 m 272 543 l 272 679 l 408 679 l 408 543 l 272 543 m 272 815 l 272 948 l 408 948 l 408 815 l 272 815 m 272 -134 l 272 -269 l 136 -269 l 136 -134 l 272 -134 m 136 -134 l 136 -1 l 272 -1 l 272 -134 l 136 -134 m 136 135 l 136 271 l 272 271 l 272 135 l 136 135 m 136 543 l 136 679 l 272 679 l 272 543 l 136 543 m 136 679 l 136 815 l 272 815 l 272 679 l 136 679 m 136 815 l 136 948 l 272 948 l 272 815 l 136 815 m 0 -134 l 0 -1 l 136 -1 l 136 -134 l 0 -134 m 0 -1 l 0 135 l 136 135 l 136 -1 l 0 -1 m 0 135 l 0 271 l 136 271 l 136 135 l 0 135 z "},"2":{"ha":1221,"x_min":0,"x_max":1355,"o":"m 1355 -134 l 1355 -269 l 1221 -269 l 1221 -134 l 1355 -134 m 1221 -134 l 1221 -1 l 1355 -1 l 1355 -134 l 1221 -134 m 1221 -1 l 1221 135 l 1355 135 l 1355 -1 l 1221 -1 m 1221 271 l 1221 407 l 1355 407 l 1355 271 l 1221 271 m 1221 407 l 1221 543 l 1355 543 l 1355 407 l 1221 407 m 1221 543 l 1221 679 l 1355 679 l 1355 543 l 1221 543 m 1221 679 l 1221 815 l 1355 815 l 1355 679 l 1221 679 m 1221 -134 l 1221 -269 l 1086 -269 l 1086 -134 l 1221 -134 m 1086 -134 l 1086 -1 l 1221 -1 l 1221 -134 l 1086 -134 m 1086 -1 l 1086 135 l 1221 135 l 1221 -1 l 1086 -1 m 1086 135 l 1086 271 l 1221 271 l 1221 135 l 1086 135 m 1086 271 l 1086 407 l 1221 407 l 1221 271 l 1086 271 m 1086 407 l 1086 543 l 1221 543 l 1221 407 l 1086 407 m 1086 543 l 1086 679 l 1221 679 l 1221 543 l 1086 543 m 1086 679 l 1086 815 l 1221 815 l 1221 679 l 1086 679 m 1086 815 l 1086 948 l 1221 948 l 1221 815 l 1086 815 m 949 948 l 949 1084 l 1086 1084 l 1086 948 l 949 948 m 1086 -134 l 1086 -269 l 949 -269 l 949 -134 l 1086 -134 m 949 -134 l 949 -1 l 1086 -1 l 1086 -134 l 949 -134 m 949 135 l 949 271 l 1086 271 l 1086 135 l 949 135 m 949 271 l 949 407 l 1086 407 l 1086 271 l 949 271 m 949 407 l 949 543 l 1086 543 l 1086 407 l 949 407 m 949 815 l 949 948 l 1086 948 l 1086 815 l 949 815 m 814 948 l 814 1084 l 949 1084 l 949 948 l 814 948 m 949 -134 l 949 -269 l 814 -269 l 814 -134 l 949 -134 m 814 -134 l 814 -1 l 949 -1 l 949 -134 l 814 -134 m 814 135 l 814 271 l 949 271 l 949 135 l 814 135 m 814 271 l 814 407 l 949 407 l 949 271 l 814 271 m 677 948 l 677 1084 l 814 1084 l 814 948 l 677 948 m 814 -134 l 814 -269 l 677 -269 l 677 -134 l 814 -134 m 677 -134 l 677 -1 l 814 -1 l 814 -134 l 677 -134 m 677 135 l 677 271 l 814 271 l 814 135 l 677 135 m 677 679 l 677 815 l 814 815 l 814 679 l 677 679 m 541 948 l 541 1084 l 677 1084 l 677 948 l 541 948 m 677 -134 l 677 -269 l 541 -269 l 541 -134 l 677 -134 m 541 -134 l 541 -1 l 677 -1 l 677 -134 l 541 -134 m 541 543 l 541 679 l 677 679 l 677 543 l 541 543 m 541 679 l 541 815 l 677 815 l 677 679 l 541 679 m 408 948 l 408 1084 l 541 1084 l 541 948 l 408 948 m 541 -134 l 541 -269 l 408 -269 l 408 -134 l 541 -134 m 408 -134 l 408 -1 l 541 -1 l 541 -134 l 408 -134 m 408 407 l 408 543 l 541 543 l 541 407 l 408 407 m 408 543 l 408 679 l 541 679 l 541 543 l 408 543 m 408 679 l 408 815 l 541 815 l 541 679 l 408 679 m 272 948 l 272 1084 l 408 1084 l 408 948 l 272 948 m 408 -134 l 408 -269 l 272 -269 l 272 -134 l 408 -134 m 272 -134 l 272 -1 l 408 -1 l 408 -134 l 272 -134 m 272 271 l 272 407 l 408 407 l 408 271 l 272 271 m 272 407 l 272 543 l 408 543 l 408 407 l 272 407 m 136 948 l 136 1084 l 272 1084 l 272 948 l 136 948 m 272 -134 l 272 -269 l 136 -269 l 136 -134 l 272 -134 m 136 -134 l 136 -1 l 272 -1 l 272 -134 l 136 -134 m 136 135 l 136 271 l 272 271 l 272 135 l 136 135 m 136 271 l 136 407 l 272 407 l 272 271 l 136 271 m 136 407 l 136 543 l 272 543 l 272 407 l 136 407 m 136 815 l 136 948 l 272 948 l 272 815 l 136 815 m 0 -134 l 0 -1 l 136 -1 l 136 -134 l 0 -134 m 0 -1 l 0 135 l 136 135 l 136 -1 l 0 -1 m 0 135 l 0 271 l 136 271 l 136 135 l 0 135 m 0 407 l 0 543 l 136 543 l 136 407 l 0 407 m 0 543 l 0 679 l 136 679 l 136 543 l 0 543 m 0 679 l 0 815 l 136 815 l 136 679 l 0 679 m 0 815 l 0 948 l 136 948 l 136 815 l 0 815 z "},"3":{"ha":1221,"x_min":0,"x_max":1355,"o":"m 1221 -134 l 1221 -1 l 1355 -1 l 1355 -134 l 1221 -134 m 1221 -1 l 1221 135 l 1355 135 l 1355 -1 l 1221 -1 m 1221 135 l 1221 271 l 1355 271 l 1355 135 l 1221 135 m 1221 271 l 1221 407 l 1355 407 l 1355 271 l 1221 271 m 1221 407 l 1221 543 l 1355 543 l 1355 407 l 1221 407 m 1221 543 l 1221 679 l 1355 679 l 1355 543 l 1221 543 m 1221 679 l 1221 815 l 1355 815 l 1355 679 l 1221 679 m 1221 -134 l 1221 -269 l 1086 -269 l 1086 -134 l 1221 -134 m 1086 -134 l 1086 -1 l 1221 -1 l 1221 -134 l 1086 -134 m 1086 -1 l 1086 135 l 1221 135 l 1221 -1 l 1086 -1 m 1086 135 l 1086 271 l 1221 271 l 1221 135 l 1086 135 m 1086 271 l 1086 407 l 1221 407 l 1221 271 l 1086 271 m 1086 407 l 1086 543 l 1221 543 l 1221 407 l 1086 407 m 1086 543 l 1086 679 l 1221 679 l 1221 543 l 1086 543 m 1086 679 l 1086 815 l 1221 815 l 1221 679 l 1086 679 m 1086 815 l 1086 948 l 1221 948 l 1221 815 l 1086 815 m 949 948 l 949 1084 l 1086 1084 l 1086 948 l 949 948 m 1086 -134 l 1086 -269 l 949 -269 l 949 -134 l 1086 -134 m 949 -134 l 949 -1 l 1086 -1 l 1086 -134 l 949 -134 m 949 -1 l 949 135 l 1086 135 l 1086 -1 l 949 -1 m 949 407 l 949 543 l 1086 543 l 1086 407 l 949 407 m 949 815 l 949 948 l 1086 948 l 1086 815 l 949 815 m 814 948 l 814 1084 l 949 1084 l 949 948 l 814 948 m 949 -134 l 949 -269 l 814 -269 l 814 -134 l 949 -134 m 814 -134 l 814 -1 l 949 -1 l 949 -134 l 814 -134 m 677 948 l 677 1084 l 814 1084 l 814 948 l 677 948 m 814 -134 l 814 -269 l 677 -269 l 677 -134 l 814 -134 m 677 -134 l 677 -1 l 814 -1 l 814 -134 l 677 -134 m 677 135 l 677 271 l 814 271 l 814 135 l 677 135 m 677 271 l 677 407 l 814 407 l 814 271 l 677 271 m 677 543 l 677 679 l 814 679 l 814 543 l 677 543 m 677 679 l 677 815 l 814 815 l 814 679 l 677 679 m 541 948 l 541 1084 l 677 1084 l 677 948 l 541 948 m 677 -134 l 677 -269 l 541 -269 l 541 -134 l 677 -134 m 541 -134 l 541 -1 l 677 -1 l 677 -134 l 541 -134 m 541 135 l 541 271 l 677 271 l 677 135 l 541 135 m 541 271 l 541 407 l 677 407 l 677 271 l 541 271 m 541 543 l 541 679 l 677 679 l 677 543 l 541 543 m 541 679 l 541 815 l 677 815 l 677 679 l 541 679 m 408 948 l 408 1084 l 541 1084 l 541 948 l 408 948 m 541 -134 l 541 -269 l 408 -269 l 408 -134 l 541 -134 m 408 -134 l 408 -1 l 541 -1 l 541 -134 l 408 -134 m 408 135 l 408 271 l 541 271 l 541 135 l 408 135 m 408 271 l 408 407 l 541 407 l 541 271 l 408 271 m 408 407 l 408 543 l 541 543 l 541 407 l 408 407 m 408 543 l 408 679 l 541 679 l 541 543 l 408 543 m 408 679 l 408 815 l 541 815 l 541 679 l 408 679 m 272 948 l 272 1084 l 408 1084 l 408 948 l 272 948 m 408 -134 l 408 -269 l 272 -269 l 272 -134 l 408 -134 m 272 -134 l 272 -1 l 408 -1 l 408 -134 l 272 -134 m 272 271 l 272 407 l 408 407 l 408 271 l 272 271 m 272 407 l 272 543 l 408 543 l 408 407 l 272 407 m 272 543 l 272 679 l 408 679 l 408 543 l 272 543 m 136 948 l 136 1084 l 272 1084 l 272 948 l 136 948 m 136 -134 l 136 -1 l 272 -1 l 272 -134 l 136 -134 m 136 -1 l 136 135 l 272 135 l 272 -1 l 136 -1 m 136 271 l 136 407 l 272 407 l 272 271 l 136 271 m 136 407 l 136 543 l 272 543 l 272 407 l 136 407 m 136 543 l 136 679 l 272 679 l 272 543 l 136 543 m 136 815 l 136 948 l 272 948 l 272 815 l 136 815 m 0 -1 l 0 135 l 136 135 l 136 -1 l 0 -1 m 0 135 l 0 271 l 136 271 l 136 135 l 0 135 m 0 271 l 0 407 l 136 407 l 136 271 l 0 271 m 0 543 l 0 679 l 136 679 l 136 543 l 0 543 m 0 679 l 0 815 l 136 815 l 136 679 l 0 679 m 0 815 l 0 948 l 136 948 l 136 815 l 0 815 z "},"4":{"ha":1221,"x_min":0,"x_max":1355,"o":"m 1221 -134 l 1221 -1 l 1355 -1 l 1355 -134 l 1221 -134 m 1221 -1 l 1221 135 l 1355 135 l 1355 -1 l 1221 -1 m 1221 135 l 1221 271 l 1355 271 l 1355 135 l 1221 135 m 1221 -134 l 1221 -269 l 1086 -269 l 1086 -134 l 1221 -134 m 1086 -134 l 1086 -1 l 1221 -1 l 1221 -134 l 1086 -134 m 1086 -1 l 1086 135 l 1221 135 l 1221 -1 l 1086 -1 m 1086 135 l 1086 271 l 1221 271 l 1221 135 l 1086 135 m 1086 271 l 1086 407 l 1221 407 l 1221 271 l 1086 271 m 1086 407 l 1086 543 l 1221 543 l 1221 407 l 1086 407 m 1086 543 l 1086 679 l 1221 679 l 1221 543 l 1086 543 m 1086 679 l 1086 815 l 1221 815 l 1221 679 l 1086 679 m 1086 815 l 1086 948 l 1221 948 l 1221 815 l 1086 815 m 949 948 l 949 1084 l 1086 1084 l 1086 948 l 949 948 m 1086 -134 l 1086 -269 l 949 -269 l 949 -134 l 1086 -134 m 949 -134 l 949 -1 l 1086 -1 l 1086 -134 l 949 -134 m 949 -1 l 949 135 l 1086 135 l 1086 -1 l 949 -1 m 949 271 l 949 407 l 1086 407 l 1086 271 l 949 271 m 949 407 l 949 543 l 1086 543 l 1086 407 l 949 407 m 949 543 l 949 679 l 1086 679 l 1086 543 l 949 543 m 949 679 l 949 815 l 1086 815 l 1086 679 l 949 679 m 949 815 l 949 948 l 1086 948 l 1086 815 l 949 815 m 814 948 l 814 1084 l 949 1084 l 949 948 l 814 948 m 949 -134 l 949 -269 l 814 -269 l 814 -134 l 949 -134 m 814 -134 l 814 -1 l 949 -1 l 949 -134 l 814 -134 m 677 948 l 677 1084 l 814 1084 l 814 948 l 677 948 m 814 -134 l 814 -269 l 677 -269 l 677 -134 l 814 -134 m 677 -134 l 677 -1 l 814 -1 l 814 -134 l 677 -134 m 541 948 l 541 1084 l 677 1084 l 677 948 l 541 948 m 541 -134 l 541 -1 l 677 -1 l 677 -134 l 541 -134 m 541 -1 l 541 135 l 677 135 l 677 -1 l 541 -1 m 541 271 l 541 407 l 677 407 l 677 271 l 541 271 m 541 407 l 541 543 l 677 543 l 677 407 l 541 407 m 541 815 l 541 948 l 677 948 l 677 815 l 541 815 m 408 -134 l 408 -1 l 541 -1 l 541 -134 l 408 -134 m 408 -1 l 408 135 l 541 135 l 541 -1 l 408 -1 m 408 271 l 408 407 l 541 407 l 541 271 l 408 271 m 408 679 l 408 815 l 541 815 l 541 679 l 408 679 m 408 815 l 408 948 l 541 948 l 541 815 l 408 815 m 272 -134 l 272 -1 l 408 -1 l 408 -134 l 272 -134 m 272 -1 l 272 135 l 408 135 l 408 -1 l 272 -1 m 272 543 l 272 679 l 408 679 l 408 543 l 272 543 m 272 679 l 272 815 l 408 815 l 408 679 l 272 679 m 136 -134 l 136 -1 l 272 -1 l 272 -134 l 136 -134 m 136 -1 l 136 135 l 272 135 l 272 -1 l 136 -1 m 136 407 l 136 543 l 272 543 l 272 407 l 136 407 m 136 543 l 136 679 l 272 679 l 272 543 l 136 543 m 0 -1 l 0 135 l 136 135 l 136 -1 l 0 -1 m 0 135 l 0 271 l 136 271 l 136 135 l 0 135 m 0 271 l 0 407 l 136 407 l 136 271 l 0 271 m 0 407 l 0 543 l 136 543 l 136 407 l 0 407 z "},"5":{"ha":1221,"x_min":0,"x_max":1355,"o":"m 1221 -134 l 1221 -1 l 1355 -1 l 1355 -134 l 1221 -134 m 1221 -1 l 1221 135 l 1355 135 l 1355 -1 l 1221 -1 m 1221 135 l 1221 271 l 1355 271 l 1355 135 l 1221 135 m 1221 271 l 1221 407 l 1355 407 l 1355 271 l 1221 271 m 1221 407 l 1221 543 l 1355 543 l 1355 407 l 1221 407 m 1221 543 l 1221 679 l 1355 679 l 1355 543 l 1221 543 m 1221 679 l 1221 815 l 1355 815 l 1355 679 l 1221 679 m 1221 815 l 1221 948 l 1355 948 l 1355 815 l 1221 815 m 1221 948 l 1221 1084 l 1355 1084 l 1355 948 l 1221 948 m 1086 948 l 1086 1084 l 1221 1084 l 1221 948 l 1086 948 m 1221 -134 l 1221 -269 l 1086 -269 l 1086 -134 l 1221 -134 m 1086 -134 l 1086 -1 l 1221 -1 l 1221 -134 l 1086 -134 m 1086 -1 l 1086 135 l 1221 135 l 1221 -1 l 1086 -1 m 1086 135 l 1086 271 l 1221 271 l 1221 135 l 1086 135 m 1086 271 l 1086 407 l 1221 407 l 1221 271 l 1086 271 m 1086 407 l 1086 543 l 1221 543 l 1221 407 l 1086 407 m 1086 543 l 1086 679 l 1221 679 l 1221 543 l 1086 543 m 1086 679 l 1086 815 l 1221 815 l 1221 679 l 1086 679 m 1086 815 l 1086 948 l 1221 948 l 1221 815 l 1086 815 m 949 948 l 949 1084 l 1086 1084 l 1086 948 l 949 948 m 1086 -134 l 1086 -269 l 949 -269 l 949 -134 l 1086 -134 m 949 -134 l 949 -1 l 1086 -1 l 1086 -134 l 949 -134 m 949 -1 l 949 135 l 1086 135 l 1086 -1 l 949 -1 m 949 543 l 949 679 l 1086 679 l 1086 543 l 949 543 m 949 679 l 949 815 l 1086 815 l 1086 679 l 949 679 m 814 948 l 814 1084 l 949 1084 l 949 948 l 814 948 m 949 -134 l 949 -269 l 814 -269 l 814 -134 l 949 -134 m 814 -134 l 814 -1 l 949 -1 l 949 -134 l 814 -134 m 814 679 l 814 815 l 949 815 l 949 679 l 814 679 m 677 948 l 677 1084 l 814 1084 l 814 948 l 677 948 m 814 -134 l 814 -269 l 677 -269 l 677 -134 l 814 -134 m 677 -134 l 677 -1 l 814 -1 l 814 -134 l 677 -134 m 677 135 l 677 271 l 814 271 l 814 135 l 677 135 m 677 271 l 677 407 l 814 407 l 814 271 l 677 271 m 677 407 l 677 543 l 814 543 l 814 407 l 677 407 m 677 679 l 677 815 l 814 815 l 814 679 l 677 679 m 541 948 l 541 1084 l 677 1084 l 677 948 l 541 948 m 677 -134 l 677 -269 l 541 -269 l 541 -134 l 677 -134 m 541 -134 l 541 -1 l 677 -1 l 677 -134 l 541 -134 m 541 135 l 541 271 l 677 271 l 677 135 l 541 135 m 541 271 l 541 407 l 677 407 l 677 271 l 541 271 m 541 407 l 541 543 l 677 543 l 677 407 l 541 407 m 541 679 l 541 815 l 677 815 l 677 679 l 541 679 m 408 948 l 408 1084 l 541 1084 l 541 948 l 408 948 m 541 -134 l 541 -269 l 408 -269 l 408 -134 l 541 -134 m 408 -134 l 408 -1 l 541 -1 l 541 -134 l 408 -134 m 408 135 l 408 271 l 541 271 l 541 135 l 408 135 m 408 271 l 408 407 l 541 407 l 541 271 l 408 271 m 408 407 l 408 543 l 541 543 l 541 407 l 408 407 m 408 679 l 408 815 l 541 815 l 541 679 l 408 679 m 272 948 l 272 1084 l 408 1084 l 408 948 l 272 948 m 408 -134 l 408 -269 l 272 -269 l 272 -134 l 408 -134 m 272 -134 l 272 -1 l 408 -1 l 408 -134 l 272 -134 m 272 271 l 272 407 l 408 407 l 408 271 l 272 271 m 272 407 l 272 543 l 408 543 l 408 407 l 272 407 m 136 948 l 136 1084 l 272 1084 l 272 948 l 136 948 m 136 -134 l 136 -1 l 272 -1 l 272 -134 l 136 -134 m 136 -1 l 136 135 l 272 135 l 272 -1 l 136 -1 m 136 271 l 136 407 l 272 407 l 272 271 l 136 271 m 136 407 l 136 543 l 272 543 l 272 407 l 136 407 m 0 948 l 0 1084 l 136 1084 l 136 948 l 0 948 m 0 -1 l 0 135 l 136 135 l 136 -1 l 0 -1 m 0 135 l 0 271 l 136 271 l 136 135 l 0 135 m 0 271 l 0 407 l 136 407 l 136 271 l 0 271 m 0 407 l 0 543 l 136 543 l 136 407 l 0 407 m 0 543 l 0 679 l 136 679 l 136 543 l 0 543 m 0 679 l 0 815 l 136 815 l 136 679 l 0 679 m 0 815 l 0 948 l 136 948 l 136 815 l 0 815 z "},"6":{"ha":1221,"x_min":0,"x_max":1355,"o":"m 1221 -134 l 1221 -1 l 1355 -1 l 1355 -134 l 1221 -134 m 1221 -1 l 1221 135 l 1355 135 l 1355 -1 l 1221 -1 m 1221 135 l 1221 271 l 1355 271 l 1355 135 l 1221 135 m 1221 271 l 1221 407 l 1355 407 l 1355 271 l 1221 271 m 1221 -134 l 1221 -269 l 1086 -269 l 1086 -134 l 1221 -134 m 1086 -134 l 1086 -1 l 1221 -1 l 1221 -134 l 1086 -134 m 1086 -1 l 1086 135 l 1221 135 l 1221 -1 l 1086 -1 m 1086 135 l 1086 271 l 1221 271 l 1221 135 l 1086 135 m 1086 271 l 1086 407 l 1221 407 l 1221 271 l 1086 271 m 1086 407 l 1086 543 l 1221 543 l 1221 407 l 1086 407 m 1086 -134 l 1086 -269 l 949 -269 l 949 -134 l 1086 -134 m 949 -134 l 949 -1 l 1086 -1 l 1086 -134 l 949 -134 m 949 -1 l 949 135 l 1086 135 l 1086 -1 l 949 -1 m 949 407 l 949 543 l 1086 543 l 1086 407 l 949 407 m 949 543 l 949 679 l 1086 679 l 1086 543 l 949 543 m 949 679 l 949 815 l 1086 815 l 1086 679 l 949 679 m 949 815 l 949 948 l 1086 948 l 1086 815 l 949 815 m 814 948 l 814 1084 l 949 1084 l 949 948 l 814 948 m 949 -134 l 949 -269 l 814 -269 l 814 -134 l 949 -134 m 814 -134 l 814 -1 l 949 -1 l 949 -134 l 814 -134 m 814 543 l 814 679 l 949 679 l 949 543 l 814 543 m 814 679 l 814 815 l 949 815 l 949 679 l 814 679 m 814 815 l 814 948 l 949 948 l 949 815 l 814 815 m 677 948 l 677 1084 l 814 1084 l 814 948 l 677 948 m 814 -134 l 814 -269 l 677 -269 l 677 -134 l 814 -134 m 677 -134 l 677 -1 l 814 -1 l 814 -134 l 677 -134 m 677 135 l 677 271 l 814 271 l 814 135 l 677 135 m 677 271 l 677 407 l 814 407 l 814 271 l 677 271 m 677 543 l 677 679 l 814 679 l 814 543 l 677 543 m 677 679 l 677 815 l 814 815 l 814 679 l 677 679 m 541 948 l 541 1084 l 677 1084 l 677 948 l 541 948 m 677 -134 l 677 -269 l 541 -269 l 541 -134 l 677 -134 m 541 -134 l 541 -1 l 677 -1 l 677 -134 l 541 -134 m 541 135 l 541 271 l 677 271 l 677 135 l 541 135 m 541 271 l 541 407 l 677 407 l 677 271 l 541 271 m 541 543 l 541 679 l 677 679 l 677 543 l 541 543 m 541 679 l 541 815 l 677 815 l 677 679 l 541 679 m 408 948 l 408 1084 l 541 1084 l 541 948 l 408 948 m 541 -134 l 541 -269 l 408 -269 l 408 -134 l 541 -134 m 408 -134 l 408 -1 l 541 -1 l 541 -134 l 408 -134 m 408 135 l 408 271 l 541 271 l 541 135 l 408 135 m 408 271 l 408 407 l 541 407 l 541 271 l 408 271 m 408 543 l 408 679 l 541 679 l 541 543 l 408 543 m 272 948 l 272 1084 l 408 1084 l 408 948 l 272 948 m 408 -134 l 408 -269 l 272 -269 l 272 -134 l 408 -134 m 272 -134 l 272 -1 l 408 -1 l 408 -134 l 272 -134 m 272 815 l 272 948 l 408 948 l 408 815 l 272 815 m 136 -134 l 136 -1 l 272 -1 l 272 -134 l 136 -134 m 136 -1 l 136 135 l 272 135 l 272 -1 l 136 -1 m 136 679 l 136 815 l 272 815 l 272 679 l 136 679 m 136 815 l 136 948 l 272 948 l 272 815 l 136 815 m 0 -1 l 0 135 l 136 135 l 136 -1 l 0 -1 m 0 135 l 0 271 l 136 271 l 136 135 l 0 135 m 0 271 l 0 407 l 136 407 l 136 271 l 0 271 m 0 407 l 0 543 l 136 543 l 136 407 l 0 407 m 0 543 l 0 679 l 136 679 l 136 543 l 0 543 m 0 679 l 0 815 l 136 815 l 136 679 l 0 679 z "},"7":{"ha":1221,"x_min":0,"x_max":1355,"o":"m 1221 543 l 1221 679 l 1355 679 l 1355 543 l 1221 543 m 1221 679 l 1221 815 l 1355 815 l 1355 679 l 1221 679 m 1221 815 l 1221 948 l 1355 948 l 1355 815 l 1221 815 m 1086 948 l 1086 1084 l 1221 1084 l 1221 948 l 1086 948 m 1086 271 l 1086 407 l 1221 407 l 1221 271 l 1086 271 m 1086 407 l 1086 543 l 1221 543 l 1221 407 l 1086 407 m 1086 543 l 1086 679 l 1221 679 l 1221 543 l 1086 543 m 1086 679 l 1086 815 l 1221 815 l 1221 679 l 1086 679 m 1086 815 l 1086 948 l 1221 948 l 1221 815 l 1086 815 m 949 948 l 949 1084 l 1086 1084 l 1086 948 l 949 948 m 949 -1 l 949 135 l 1086 135 l 1086 -1 l 949 -1 m 949 135 l 949 271 l 1086 271 l 1086 135 l 949 135 m 949 271 l 949 407 l 1086 407 l 1086 271 l 949 271 m 949 407 l 949 543 l 1086 543 l 1086 407 l 949 407 m 949 543 l 949 679 l 1086 679 l 1086 543 l 949 543 m 949 679 l 949 815 l 1086 815 l 1086 679 l 949 679 m 814 948 l 814 1084 l 949 1084 l 949 948 l 814 948 m 949 -134 l 949 -269 l 814 -269 l 814 -134 l 949 -134 m 814 -134 l 814 -1 l 949 -1 l 949 -134 l 814 -134 m 814 -1 l 814 135 l 949 135 l 949 -1 l 814 -1 m 814 135 l 814 271 l 949 271 l 949 135 l 814 135 m 814 271 l 814 407 l 949 407 l 949 271 l 814 271 m 814 407 l 814 543 l 949 543 l 949 407 l 814 407 m 677 948 l 677 1084 l 814 1084 l 814 948 l 677 948 m 814 -134 l 814 -269 l 677 -269 l 677 -134 l 814 -134 m 677 -134 l 677 -1 l 814 -1 l 814 -134 l 677 -134 m 677 -1 l 677 135 l 814 135 l 814 -1 l 677 -1 m 677 135 l 677 271 l 814 271 l 814 135 l 677 135 m 541 948 l 541 1084 l 677 1084 l 677 948 l 541 948 m 677 -134 l 677 -269 l 541 -269 l 541 -134 l 677 -134 m 541 -134 l 541 -1 l 677 -1 l 677 -134 l 541 -134 m 541 543 l 541 679 l 677 679 l 677 543 l 541 543 m 541 679 l 541 815 l 677 815 l 677 679 l 541 679 m 408 948 l 408 1084 l 541 1084 l 541 948 l 408 948 m 541 -134 l 541 -269 l 408 -269 l 408 -134 l 541 -134 m 408 -134 l 408 -1 l 541 -1 l 541 -134 l 408 -134 m 408 271 l 408 407 l 541 407 l 541 271 l 408 271 m 408 407 l 408 543 l 541 543 l 541 407 l 408 407 m 408 543 l 408 679 l 541 679 l 541 543 l 408 543 m 408 679 l 408 815 l 541 815 l 541 679 l 408 679 m 272 948 l 272 1084 l 408 1084 l 408 948 l 272 948 m 272 -134 l 272 -1 l 408 -1 l 408 -134 l 272 -134 m 272 -1 l 272 135 l 408 135 l 408 -1 l 272 -1 m 272 135 l 272 271 l 408 271 l 408 135 l 272 135 m 272 271 l 272 407 l 408 407 l 408 271 l 272 271 m 272 543 l 272 679 l 408 679 l 408 543 l 272 543 m 272 679 l 272 815 l 408 815 l 408 679 l 272 679 m 136 948 l 136 1084 l 272 1084 l 272 948 l 136 948 m 136 543 l 136 679 l 272 679 l 272 543 l 136 543 m 136 679 l 136 815 l 272 815 l 272 679 l 136 679 m 0 948 l 0 1084 l 136 1084 l 136 948 l 0 948 m 0 679 l 0 815 l 136 815 l 136 679 l 0 679 m 0 815 l 0 948 l 136 948 l 136 815 l 0 815 z "},"8":{"ha":1221,"x_min":0,"x_max":1355,"o":"m 1221 -134 l 1221 -1 l 1355 -1 l 1355 -134 l 1221 -134 m 1221 -1 l 1221 135 l 1355 135 l 1355 -1 l 1221 -1 m 1221 135 l 1221 271 l 1355 271 l 1355 135 l 1221 135 m 1221 271 l 1221 407 l 1355 407 l 1355 271 l 1221 271 m 1221 407 l 1221 543 l 1355 543 l 1355 407 l 1221 407 m 1221 543 l 1221 679 l 1355 679 l 1355 543 l 1221 543 m 1221 679 l 1221 815 l 1355 815 l 1355 679 l 1221 679 m 1221 -134 l 1221 -269 l 1086 -269 l 1086 -134 l 1221 -134 m 1086 -134 l 1086 -1 l 1221 -1 l 1221 -134 l 1086 -134 m 1086 -1 l 1086 135 l 1221 135 l 1221 -1 l 1086 -1 m 1086 135 l 1086 271 l 1221 271 l 1221 135 l 1086 135 m 1086 271 l 1086 407 l 1221 407 l 1221 271 l 1086 271 m 1086 407 l 1086 543 l 1221 543 l 1221 407 l 1086 407 m 1086 543 l 1086 679 l 1221 679 l 1221 543 l 1086 543 m 1086 679 l 1086 815 l 1221 815 l 1221 679 l 1086 679 m 1086 815 l 1086 948 l 1221 948 l 1221 815 l 1086 815 m 949 948 l 949 1084 l 1086 1084 l 1086 948 l 949 948 m 1086 -134 l 1086 -269 l 949 -269 l 949 -134 l 1086 -134 m 949 -134 l 949 -1 l 1086 -1 l 1086 -134 l 949 -134 m 949 -1 l 949 135 l 1086 135 l 1086 -1 l 949 -1 m 949 407 l 949 543 l 1086 543 l 1086 407 l 949 407 m 949 815 l 949 948 l 1086 948 l 1086 815 l 949 815 m 814 948 l 814 1084 l 949 1084 l 949 948 l 814 948 m 949 -134 l 949 -269 l 814 -269 l 814 -134 l 949 -134 m 814 -134 l 814 -1 l 949 -1 l 949 -134 l 814 -134 m 677 948 l 677 1084 l 814 1084 l 814 948 l 677 948 m 814 -134 l 814 -269 l 677 -269 l 677 -134 l 814 -134 m 677 -134 l 677 -1 l 814 -1 l 814 -134 l 677 -134 m 677 135 l 677 271 l 814 271 l 814 135 l 677 135 m 677 543 l 677 679 l 814 679 l 814 543 l 677 543 m 677 679 l 677 815 l 814 815 l 814 679 l 677 679 m 541 948 l 541 1084 l 677 1084 l 677 948 l 541 948 m 677 -134 l 677 -269 l 541 -269 l 541 -134 l 677 -134 m 541 -134 l 541 -1 l 677 -1 l 677 -134 l 541 -134 m 541 135 l 541 271 l 677 271 l 677 135 l 541 135 m 541 271 l 541 407 l 677 407 l 677 271 l 541 271 m 541 543 l 541 679 l 677 679 l 677 543 l 541 543 m 541 679 l 541 815 l 677 815 l 677 679 l 541 679 m 408 948 l 408 1084 l 541 1084 l 541 948 l 408 948 m 541 -134 l 541 -269 l 408 -269 l 408 -134 l 541 -134 m 408 -134 l 408 -1 l 541 -1 l 541 -134 l 408 -134 m 408 135 l 408 271 l 541 271 l 541 135 l 408 135 m 408 271 l 408 407 l 541 407 l 541 271 l 408 271 m 408 679 l 408 815 l 541 815 l 541 679 l 408 679 m 272 948 l 272 1084 l 408 1084 l 408 948 l 272 948 m 408 -134 l 408 -269 l 272 -269 l 272 -134 l 408 -134 m 272 -134 l 272 -1 l 408 -1 l 408 -134 l 272 -134 m 136 948 l 136 1084 l 272 1084 l 272 948 l 136 948 m 136 -134 l 136 -1 l 272 -1 l 272 -134 l 136 -134 m 136 -1 l 136 135 l 272 135 l 272 -1 l 136 -1 m 136 407 l 136 543 l 272 543 l 272 407 l 136 407 m 136 815 l 136 948 l 272 948 l 272 815 l 136 815 m 0 -1 l 0 135 l 136 135 l 136 -1 l 0 -1 m 0 135 l 0 271 l 136 271 l 136 135 l 0 135 m 0 271 l 0 407 l 136 407 l 136 271 l 0 271 m 0 407 l 0 543 l 136 543 l 136 407 l 0 407 m 0 543 l 0 679 l 136 679 l 136 543 l 0 543 m 0 679 l 0 815 l 136 815 l 136 679 l 0 679 m 0 815 l 0 948 l 136 948 l 136 815 l 0 815 z "},"9":{"ha":1221,"x_min":0,"x_max":1355,"o":"m 1221 -1 l 1221 135 l 1355 135 l 1355 -1 l 1221 -1 m 1221 135 l 1221 271 l 1355 271 l 1355 135 l 1221 135 m 1221 271 l 1221 407 l 1355 407 l 1355 271 l 1221 271 m 1221 407 l 1221 543 l 1355 543 l 1355 407 l 1221 407 m 1221 543 l 1221 679 l 1355 679 l 1355 543 l 1221 543 m 1221 679 l 1221 815 l 1355 815 l 1355 679 l 1221 679 m 1086 -134 l 1086 -1 l 1221 -1 l 1221 -134 l 1086 -134 m 1086 -1 l 1086 135 l 1221 135 l 1221 -1 l 1086 -1 m 1086 135 l 1086 271 l 1221 271 l 1221 135 l 1086 135 m 1086 271 l 1086 407 l 1221 407 l 1221 271 l 1086 271 m 1086 407 l 1086 543 l 1221 543 l 1221 407 l 1086 407 m 1086 543 l 1086 679 l 1221 679 l 1221 543 l 1086 543 m 1086 679 l 1086 815 l 1221 815 l 1221 679 l 1086 679 m 1086 815 l 1086 948 l 1221 948 l 1221 815 l 1086 815 m 949 948 l 949 1084 l 1086 1084 l 1086 948 l 949 948 m 1086 -134 l 1086 -269 l 949 -269 l 949 -134 l 1086 -134 m 949 -134 l 949 -1 l 1086 -1 l 1086 -134 l 949 -134 m 949 -1 l 949 135 l 1086 135 l 1086 -1 l 949 -1 m 949 135 l 949 271 l 1086 271 l 1086 135 l 949 135 m 949 815 l 949 948 l 1086 948 l 1086 815 l 949 815 m 814 948 l 814 1084 l 949 1084 l 949 948 l 814 948 m 949 -134 l 949 -269 l 814 -269 l 814 -134 l 949 -134 m 814 -134 l 814 -1 l 949 -1 l 949 -134 l 814 -134 m 814 -1 l 814 135 l 949 135 l 949 -1 l 814 -1 m 677 948 l 677 1084 l 814 1084 l 814 948 l 677 948 m 814 -134 l 814 -269 l 677 -269 l 677 -134 l 814 -134 m 677 -134 l 677 -1 l 814 -1 l 814 -134 l 677 -134 m 677 271 l 677 407 l 814 407 l 814 271 l 677 271 m 677 543 l 677 679 l 814 679 l 814 543 l 677 543 m 677 679 l 677 815 l 814 815 l 814 679 l 677 679 m 541 948 l 541 1084 l 677 1084 l 677 948 l 541 948 m 677 -134 l 677 -269 l 541 -269 l 541 -134 l 677 -134 m 541 -134 l 541 -1 l 677 -1 l 677 -134 l 541 -134 m 541 135 l 541 271 l 677 271 l 677 135 l 541 135 m 541 271 l 541 407 l 677 407 l 677 271 l 541 271 m 541 543 l 541 679 l 677 679 l 677 543 l 541 543 m 541 679 l 541 815 l 677 815 l 677 679 l 541 679 m 408 948 l 408 1084 l 541 1084 l 541 948 l 408 948 m 541 -134 l 541 -269 l 408 -269 l 408 -134 l 541 -134 m 408 -134 l 408 -1 l 541 -1 l 541 -134 l 408 -134 m 408 135 l 408 271 l 541 271 l 541 135 l 408 135 m 408 271 l 408 407 l 541 407 l 541 271 l 408 271 m 408 543 l 408 679 l 541 679 l 541 543 l 408 543 m 408 679 l 408 815 l 541 815 l 541 679 l 408 679 m 272 948 l 272 1084 l 408 1084 l 408 948 l 272 948 m 272 -134 l 272 -1 l 408 -1 l 408 -134 l 272 -134 m 272 -1 l 272 135 l 408 135 l 408 -1 l 272 -1 m 272 135 l 272 271 l 408 271 l 408 135 l 272 135 m 272 271 l 272 407 l 408 407 l 408 271 l 272 271 m 136 948 l 136 1084 l 272 1084 l 272 948 l 136 948 m 136 271 l 136 407 l 272 407 l 272 271 l 136 271 m 136 407 l 136 543 l 272 543 l 272 407 l 136 407 m 136 815 l 136 948 l 272 948 l 272 815 l 136 815 m 0 407 l 0 543 l 136 543 l 136 407 l 0 407 m 0 543 l 0 679 l 136 679 l 136 543 l 0 543 m 0 679 l 0 815 l 136 815 l 136 679 l 0 679 m 0 815 l 0 948 l 136 948 l 136 815 l 0 815 z "}," ":{"ha":386,"x_min":0,"x_max":0,"o":""},"!":{"ha":541,"x_min":0,"x_max":677,"o":"m 541 271 l 541 407 l 677 407 l 677 271 l 541 271 m 541 407 l 541 543 l 677 543 l 677 407 l 541 407 m 541 543 l 541 679 l 677 679 l 677 543 l 541 543 m 541 679 l 541 815 l 677 815 l 677 679 l 541 679 m 541 815 l 541 948 l 677 948 l 677 815 l 541 815 m 408 948 l 408 1084 l 541 1084 l 541 948 l 408 948 m 541 -134 l 541 -269 l 408 -269 l 408 -134 l 541 -134 m 408 -134 l 408 -1 l 541 -1 l 541 -134 l 408 -134 m 408 -1 l 408 135 l 541 135 l 541 -1 l 408 -1 m 408 135 l 408 271 l 541 271 l 541 135 l 408 135 m 408 271 l 408 407 l 541 407 l 541 271 l 408 271 m 408 407 l 408 543 l 541 543 l 541 407 l 408 407 m 408 543 l 408 679 l 541 679 l 541 543 l 408 543 m 408 679 l 408 815 l 541 815 l 541 679 l 408 679 m 408 815 l 408 948 l 541 948 l 541 815 l 408 815 m 272 948 l 272 1084 l 408 1084 l 408 948 l 272 948 m 408 -134 l 408 -269 l 272 -269 l 272 -134 l 408 -134 m 272 -134 l 272 -1 l 408 -1 l 408 -134 l 272 -134 m 272 -1 l 272 135 l 408 135 l 408 -1 l 272 -1 m 272 135 l 272 271 l 408 271 l 408 135 l 272 135 m 272 271 l 272 407 l 408 407 l 408 271 l 272 271 m 272 407 l 272 543 l 408 543 l 408 407 l 272 407 m 136 948 l 136 1084 l 272 1084 l 272 948 l 136 948 m 272 -134 l 272 -269 l 136 -269 l 136 -134 l 272 -134 m 136 -134 l 136 -1 l 272 -1 l 272 -134 l 136 -134 m 136 135 l 136 271 l 272 271 l 272 135 l 136 135 m 0 948 l 0 1084 l 136 1084 l 136 948 l 0 948 m 0 -134 l 0 -1 l 136 -1 l 136 -134 l 0 -134 m 0 -1 l 0 135 l 136 135 l 136 -1 l 0 -1 m 0 135 l 0 271 l 136 271 l 136 135 l 0 135 m 0 271 l 0 407 l 136 407 l 136 271 l 0 271 m 0 407 l 0 543 l 136 543 l 136 407 l 0 407 m 0 543 l 0 679 l 136 679 l 136 543 l 0 543 m 0 679 l 0 815 l 136 815 l 136 679 l 0 679 m 0 815 l 0 948 l 136 948 l 136 815 l 0 815 z "},"\"":{"ha":949,"x_min":0,"x_max":1086,"o":"m 949 271 l 949 407 l 1086 407 l 1086 271 l 949 271 m 949 407 l 949 543 l 1086 543 l 1086 407 l 949 407 m 949 543 l 949 679 l 1086 679 l 1086 543 l 949 543 m 949 679 l 949 815 l 1086 815 l 1086 679 l 949 679 m 949 815 l 949 948 l 1086 948 l 1086 815 l 949 815 m 814 948 l 814 1084 l 949 1084 l 949 948 l 814 948 m 814 271 l 814 407 l 949 407 l 949 271 l 814 271 m 814 407 l 814 543 l 949 543 l 949 407 l 814 407 m 814 543 l 814 679 l 949 679 l 949 543 l 814 543 m 814 679 l 814 815 l 949 815 l 949 679 l 814 679 m 814 815 l 814 948 l 949 948 l 949 815 l 814 815 m 677 948 l 677 1084 l 814 1084 l 814 948 l 677 948 m 677 271 l 677 407 l 814 407 l 814 271 l 677 271 m 677 407 l 677 543 l 814 543 l 814 407 l 677 407 m 541 948 l 541 1084 l 677 1084 l 677 948 l 541 948 m 541 271 l 541 407 l 677 407 l 677 271 l 541 271 m 541 407 l 541 543 l 677 543 l 677 407 l 541 407 m 408 948 l 408 1084 l 541 1084 l 541 948 l 408 948 m 408 271 l 408 407 l 541 407 l 541 271 l 408 271 m 408 407 l 408 543 l 541 543 l 541 407 l 408 407 m 408 543 l 408 679 l 541 679 l 541 543 l 408 543 m 408 679 l 408 815 l 541 815 l 541 679 l 408 679 m 408 815 l 408 948 l 541 948 l 541 815 l 408 815 m 272 948 l 272 1084 l 408 1084 l 408 948 l 272 948 m 272 271 l 272 407 l 408 407 l 408 271 l 272 271 m 272 407 l 272 543 l 408 543 l 408 407 l 272 407 m 136 948 l 136 1084 l 272 1084 l 272 948 l 136 948 m 136 271 l 136 407 l 272 407 l 272 271 l 136 271 m 136 407 l 136 543 l 272 543 l 272 407 l 136 407 m 0 948 l 0 1084 l 136 1084 l 136 948 l 0 948 m 0 407 l 0 543 l 136 543 l 136 407 l 0 407 m 0 543 l 0 679 l 136 679 l 136 543 l 0 543 m 0 679 l 0 815 l 136 815 l 136 679 l 0 679 m 0 815 l 0 948 l 136 948 l 136 815 l 0 815 z "},"#":{"ha":772,"x_min":0,"x_max":0,"o":""},"$":{"ha":772,"x_min":0,"x_max":0,"o":""},"%":{"ha":1235,"x_min":0,"x_max":0,"o":""},"&":{"ha":926,"x_min":0,"x_max":0,"o":""},"'":{"ha":541,"x_min":0,"x_max":677,"o":"m 541 271 l 541 407 l 677 407 l 677 271 l 541 271 m 541 407 l 541 543 l 677 543 l 677 407 l 541 407 m 541 543 l 541 679 l 677 679 l 677 543 l 541 543 m 541 679 l 541 815 l 677 815 l 677 679 l 541 679 m 541 815 l 541 948 l 677 948 l 677 815 l 541 815 m 408 948 l 408 1084 l 541 1084 l 541 948 l 408 948 m 408 271 l 408 407 l 541 407 l 541 271 l 408 271 m 408 407 l 408 543 l 541 543 l 541 407 l 408 407 m 408 543 l 408 679 l 541 679 l 541 543 l 408 543 m 408 679 l 408 815 l 541 815 l 541 679 l 408 679 m 408 815 l 408 948 l 541 948 l 541 815 l 408 815 m 272 948 l 272 1084 l 408 1084 l 408 948 l 272 948 m 272 271 l 272 407 l 408 407 l 408 271 l 272 271 m 272 407 l 272 543 l 408 543 l 408 407 l 272 407 m 136 948 l 136 1084 l 272 1084 l 272 948 l 136 948 m 136 271 l 136 407 l 272 407 l 272 271 l 136 271 m 136 407 l 136 543 l 272 543 l 272 407 l 136 407 m 0 948 l 0 1084 l 136 1084 l 136 948 l 0 948 m 0 407 l 0 543 l 136 543 l 136 407 l 0 407 m 0 543 l 0 679 l 136 679 l 136 543 l 0 543 m 0 679 l 0 815 l 136 815 l 136 679 l 0 679 m 0 815 l 0 948 l 136 948 l 136 815 l 0 815 z "},"(":{"ha":463,"x_min":0,"x_max":0,"o":""},")":{"ha":463,"x_min":0,"x_max":0,"o":""},"*":{"ha":541,"x_min":0,"x_max":0,"o":""},"+":{"ha":811,"x_min":0,"x_max":0,"o":""},",":{"ha":386,"x_min":0,"x_max":0,"o":""},"-":{"ha":677,"x_min":0,"x_max":814,"o":"m 677 135 l 677 271 l 814 271 l 814 135 l 677 135 m 677 271 l 677 407 l 814 407 l 814 271 l 677 271 m 677 407 l 677 543 l 814 543 l 814 407 l 677 407 m 541 135 l 541 271 l 677 271 l 677 135 l 541 135 m 541 271 l 541 407 l 677 407 l 677 271 l 541 271 m 541 407 l 541 543 l 677 543 l 677 407 l 541 407 m 541 543 l 541 679 l 677 679 l 677 543 l 541 543 m 408 135 l 408 271 l 541 271 l 541 135 l 408 135 m 408 271 l 408 407 l 541 407 l 541 271 l 408 271 m 408 543 l 408 679 l 541 679 l 541 543 l 408 543 m 272 135 l 272 271 l 408 271 l 408 135 l 272 135 m 272 271 l 272 407 l 408 407 l 408 271 l 272 271 m 272 543 l 272 679 l 408 679 l 408 543 l 272 543 m 136 135 l 136 271 l 272 271 l 272 135 l 136 135 m 136 271 l 136 407 l 272 407 l 272 271 l 136 271 m 136 543 l 136 679 l 272 679 l 272 543 l 136 543 m 0 271 l 0 407 l 136 407 l 136 271 l 0 271 m 0 407 l 0 543 l 136 543 l 136 407 l 0 407 m 0 543 l 0 679 l 136 679 l 136 543 l 0 543 z "},".":{"ha":814,"x_min":136,"x_max":814,"o":"m 814 -134 l 814 -269 l 677 -269 l 677 -134 l 814 -134 m 677 -134 l 677 -1 l 814 -1 l 814 -134 l 677 -134 m 677 -1 l 677 135 l 814 135 l 814 -1 l 677 -1 m 677 135 l 677 271 l 814 271 l 814 135 l 677 135 m 677 -134 l 677 -269 l 541 -269 l 541 -134 l 677 -134 m 541 -134 l 541 -1 l 677 -1 l 677 -134 l 541 -134 m 541 -1 l 541 135 l 677 135 l 677 -1 l 541 -1 m 541 135 l 541 271 l 677 271 l 677 135 l 541 135 m 541 271 l 541 407 l 677 407 l 677 271 l 541 271 m 541 -134 l 541 -269 l 408 -269 l 408 -134 l 541 -134 m 408 -134 l 408 -1 l 541 -1 l 541 -134 l 408 -134 m 408 271 l 408 407 l 541 407 l 541 271 l 408 271 m 408 -134 l 408 -269 l 272 -269 l 272 -134 l 408 -134 m 272 -134 l 272 -1 l 408 -1 l 408 -134 l 272 -134 m 272 271 l 272 407 l 408 407 l 408 271 l 272 271 m 136 -134 l 136 -1 l 272 -1 l 272 -134 l 136 -134 m 136 -1 l 136 135 l 272 135 l 272 -1 l 136 -1 m 136 135 l 136 271 l 272 271 l 272 135 l 136 135 m 136 271 l 136 407 l 272 407 l 272 271 l 136 271 z "},"/":{"ha":386,"x_min":0,"x_max":0,"o":""},":":{"ha":386,"x_min":0,"x_max":0,"o":""},";":{"ha":386,"x_min":0,"x_max":0,"o":""},"<":{"ha":811,"x_min":0,"x_max":0,"o":""},"=":{"ha":811,"x_min":0,"x_max":0,"o":""},">":{"ha":811,"x_min":0,"x_max":0,"o":""},"?":{"ha":1221,"x_min":0,"x_max":1355,"o":"m 1221 271 l 1221 407 l 1355 407 l 1355 271 l 1221 271 m 1221 407 l 1221 543 l 1355 543 l 1355 407 l 1221 407 m 1221 543 l 1221 679 l 1355 679 l 1355 543 l 1221 543 m 1221 679 l 1221 815 l 1355 815 l 1355 679 l 1221 679 m 1086 135 l 1086 271 l 1221 271 l 1221 135 l 1086 135 m 1086 271 l 1086 407 l 1221 407 l 1221 271 l 1086 271 m 1086 407 l 1086 543 l 1221 543 l 1221 407 l 1086 407 m 1086 543 l 1086 679 l 1221 679 l 1221 543 l 1086 543 m 1086 679 l 1086 815 l 1221 815 l 1221 679 l 1086 679 m 1086 815 l 1086 948 l 1221 948 l 1221 815 l 1086 815 m 949 948 l 949 1084 l 1086 1084 l 1086 948 l 949 948 m 949 135 l 949 271 l 1086 271 l 1086 135 l 949 135 m 949 271 l 949 407 l 1086 407 l 1086 271 l 949 271 m 949 407 l 949 543 l 1086 543 l 1086 407 l 949 407 m 949 815 l 949 948 l 1086 948 l 1086 815 l 949 815 m 814 948 l 814 1084 l 949 1084 l 949 948 l 814 948 m 949 -134 l 949 -269 l 814 -269 l 814 -134 l 949 -134 m 814 -134 l 814 -1 l 949 -1 l 949 -134 l 814 -134 m 814 -1 l 814 135 l 949 135 l 949 -1 l 814 -1 m 814 135 l 814 271 l 949 271 l 949 135 l 814 135 m 814 271 l 814 407 l 949 407 l 949 271 l 814 271 m 677 948 l 677 1084 l 814 1084 l 814 948 l 677 948 m 814 -134 l 814 -269 l 677 -269 l 677 -134 l 814 -134 m 677 -134 l 677 -1 l 814 -1 l 814 -134 l 677 -134 m 677 -1 l 677 135 l 814 135 l 814 -1 l 677 -1 m 677 135 l 677 271 l 814 271 l 814 135 l 677 135 m 677 271 l 677 407 l 814 407 l 814 271 l 677 271 m 677 543 l 677 679 l 814 679 l 814 543 l 677 543 m 677 679 l 677 815 l 814 815 l 814 679 l 677 679 m 541 948 l 541 1084 l 677 1084 l 677 948 l 541 948 m 677 -134 l 677 -269 l 541 -269 l 541 -134 l 677 -134 m 541 -134 l 541 -1 l 677 -1 l 677 -134 l 541 -134 m 541 135 l 541 271 l 677 271 l 677 135 l 541 135 m 541 543 l 541 679 l 677 679 l 677 543 l 541 543 m 541 679 l 541 815 l 677 815 l 677 679 l 541 679 m 408 948 l 408 1084 l 541 1084 l 541 948 l 408 948 m 541 -134 l 541 -269 l 408 -269 l 408 -134 l 541 -134 m 408 -134 l 408 -1 l 541 -1 l 541 -134 l 408 -134 m 408 135 l 408 271 l 541 271 l 541 135 l 408 135 m 408 407 l 408 543 l 541 543 l 541 407 l 408 407 m 408 543 l 408 679 l 541 679 l 541 543 l 408 543 m 408 679 l 408 815 l 541 815 l 541 679 l 408 679 m 272 948 l 272 1084 l 408 1084 l 408 948 l 272 948 m 272 -134 l 272 -1 l 408 -1 l 408 -134 l 272 -134 m 272 -1 l 272 135 l 408 135 l 408 -1 l 272 -1 m 272 135 l 272 271 l 408 271 l 408 135 l 272 135 m 272 271 l 272 407 l 408 407 l 408 271 l 272 271 m 272 407 l 272 543 l 408 543 l 408 407 l 272 407 m 272 543 l 272 679 l 408 679 l 408 543 l 272 543 m 136 948 l 136 1084 l 272 1084 l 272 948 l 136 948 m 136 407 l 136 543 l 272 543 l 272 407 l 136 407 m 136 543 l 136 679 l 272 679 l 272 543 l 136 543 m 136 815 l 136 948 l 272 948 l 272 815 l 136 815 m 0 543 l 0 679 l 136 679 l 136 543 l 0 543 m 0 679 l 0 815 l 136 815 l 136 679 l 0 679 m 0 815 l 0 948 l 136 948 l 136 815 l 0 815 z "},"@":{"ha":1221,"x_min":0,"x_max":1355,"o":"m 1355 -134 l 1355 -269 l 1221 -269 l 1221 -134 l 1355 -134 m 1221 -134 l 1221 -1 l 1355 -1 l 1355 -134 l 1221 -134 m 1221 -1 l 1221 135 l 1355 135 l 1355 -1 l 1221 -1 m 1221 135 l 1221 271 l 1355 271 l 1355 135 l 1221 135 m 1221 271 l 1221 407 l 1355 407 l 1355 271 l 1221 271 m 1221 407 l 1221 543 l 1355 543 l 1355 407 l 1221 407 m 1221 543 l 1221 679 l 1355 679 l 1355 543 l 1221 543 m 1221 679 l 1221 815 l 1355 815 l 1355 679 l 1221 679 m 1221 815 l 1221 948 l 1355 948 l 1355 815 l 1221 815 m 1221 948 l 1221 1084 l 1355 1084 l 1355 948 l 1221 948 m 1086 948 l 1086 1084 l 1221 1084 l 1221 948 l 1086 948 m 1221 -134 l 1221 -269 l 1086 -269 l 1086 -134 l 1221 -134 m 1086 -134 l 1086 -1 l 1221 -1 l 1221 -134 l 1086 -134 m 1086 -1 l 1086 135 l 1221 135 l 1221 -1 l 1086 -1 m 1086 135 l 1086 271 l 1221 271 l 1221 135 l 1086 135 m 1086 271 l 1086 407 l 1221 407 l 1221 271 l 1086 271 m 1086 407 l 1086 543 l 1221 543 l 1221 407 l 1086 407 m 1086 543 l 1086 679 l 1221 679 l 1221 543 l 1086 543 m 1086 679 l 1086 815 l 1221 815 l 1221 679 l 1086 679 m 1086 815 l 1086 948 l 1221 948 l 1221 815 l 1086 815 m 949 948 l 949 1084 l 1086 1084 l 1086 948 l 949 948 m 1086 -134 l 1086 -269 l 949 -269 l 949 -134 l 1086 -134 m 949 -134 l 949 -1 l 1086 -1 l 1086 -134 l 949 -134 m 949 -1 l 949 135 l 1086 135 l 1086 -1 l 949 -1 m 949 135 l 949 271 l 1086 271 l 1086 135 l 949 135 m 949 271 l 949 407 l 1086 407 l 1086 271 l 949 271 m 949 407 l 949 543 l 1086 543 l 1086 407 l 949 407 m 949 543 l 949 679 l 1086 679 l 1086 543 l 949 543 m 949 679 l 949 815 l 1086 815 l 1086 679 l 949 679 m 949 815 l 949 948 l 1086 948 l 1086 815 l 949 815 m 814 948 l 814 1084 l 949 1084 l 949 948 l 814 948 m 949 -134 l 949 -269 l 814 -269 l 814 -134 l 949 -134 m 814 -134 l 814 -1 l 949 -1 l 949 -134 l 814 -134 m 814 -1 l 814 135 l 949 135 l 949 -1 l 814 -1 m 814 135 l 814 271 l 949 271 l 949 135 l 814 135 m 814 271 l 814 407 l 949 407 l 949 271 l 814 271 m 814 407 l 814 543 l 949 543 l 949 407 l 814 407 m 814 543 l 814 679 l 949 679 l 949 543 l 814 543 m 814 679 l 814 815 l 949 815 l 949 679 l 814 679 m 814 815 l 814 948 l 949 948 l 949 815 l 814 815 m 677 948 l 677 1084 l 814 1084 l 814 948 l 677 948 m 814 -134 l 814 -269 l 677 -269 l 677 -134 l 814 -134 m 677 -134 l 677 -1 l 814 -1 l 814 -134 l 677 -134 m 677 -1 l 677 135 l 814 135 l 814 -1 l 677 -1 m 677 135 l 677 271 l 814 271 l 814 135 l 677 135 m 677 271 l 677 407 l 814 407 l 814 271 l 677 271 m 677 407 l 677 543 l 814 543 l 814 407 l 677 407 m 677 543 l 677 679 l 814 679 l 814 543 l 677 543 m 677 679 l 677 815 l 814 815 l 814 679 l 677 679 m 677 815 l 677 948 l 814 948 l 814 815 l 677 815 m 541 948 l 541 1084 l 677 1084 l 677 948 l 541 948 m 677 -134 l 677 -269 l 541 -269 l 541 -134 l 677 -134 m 541 -134 l 541 -1 l 677 -1 l 677 -134 l 541 -134 m 541 -1 l 541 135 l 677 135 l 677 -1 l 541 -1 m 541 135 l 541 271 l 677 271 l 677 135 l 541 135 m 541 271 l 541 407 l 677 407 l 677 271 l 541 271 m 541 407 l 541 543 l 677 543 l 677 407 l 541 407 m 541 543 l 541 679 l 677 679 l 677 543 l 541 543 m 541 679 l 541 815 l 677 815 l 677 679 l 541 679 m 541 815 l 541 948 l 677 948 l 677 815 l 541 815 m 408 948 l 408 1084 l 541 1084 l 541 948 l 408 948 m 541 -134 l 541 -269 l 408 -269 l 408 -134 l 541 -134 m 408 -134 l 408 -1 l 541 -1 l 541 -134 l 408 -134 m 408 -1 l 408 135 l 541 135 l 541 -1 l 408 -1 m 408 135 l 408 271 l 541 271 l 541 135 l 408 135 m 408 271 l 408 407 l 541 407 l 541 271 l 408 271 m 408 407 l 408 543 l 541 543 l 541 407 l 408 407 m 408 543 l 408 679 l 541 679 l 541 543 l 408 543 m 408 679 l 408 815 l 541 815 l 541 679 l 408 679 m 408 815 l 408 948 l 541 948 l 541 815 l 408 815 m 272 948 l 272 1084 l 408 1084 l 408 948 l 272 948 m 408 -134 l 408 -269 l 272 -269 l 272 -134 l 408 -134 m 272 -134 l 272 -1 l 408 -1 l 408 -134 l 272 -134 m 272 -1 l 272 135 l 408 135 l 408 -1 l 272 -1 m 272 135 l 272 271 l 408 271 l 408 135 l 272 135 m 272 271 l 272 407 l 408 407 l 408 271 l 272 271 m 272 407 l 272 543 l 408 543 l 408 407 l 272 407 m 272 543 l 272 679 l 408 679 l 408 543 l 272 543 m 272 679 l 272 815 l 408 815 l 408 679 l 272 679 m 272 815 l 272 948 l 408 948 l 408 815 l 272 815 m 136 948 l 136 1084 l 272 1084 l 272 948 l 136 948 m 272 -134 l 272 -269 l 136 -269 l 136 -134 l 272 -134 m 136 -134 l 136 -1 l 272 -1 l 272 -134 l 136 -134 m 136 -1 l 136 135 l 272 135 l 272 -1 l 136 -1 m 136 135 l 136 271 l 272 271 l 272 135 l 136 135 m 136 271 l 136 407 l 272 407 l 272 271 l 136 271 m 136 407 l 136 543 l 272 543 l 272 407 l 136 407 m 136 543 l 136 679 l 272 679 l 272 543 l 136 543 m 136 679 l 136 815 l 272 815 l 272 679 l 136 679 m 136 815 l 136 948 l 272 948 l 272 815 l 136 815 m 0 948 l 0 1084 l 136 1084 l 136 948 l 0 948 m 136 -134 l 136 -269 l 0 -269 l 0 -134 l 136 -134 m 0 -134 l 0 -1 l 136 -1 l 136 -134 l 0 -134 m 0 -1 l 0 135 l 136 135 l 136 -1 l 0 -1 m 0 135 l 0 271 l 136 271 l 136 135 l 0 135 m 0 271 l 0 407 l 136 407 l 136 271 l 0 271 m 0 407 l 0 543 l 136 543 l 136 407 l 0 407 m 0 543 l 0 679 l 136 679 l 136 543 l 0 543 m 0 679 l 0 815 l 136 815 l 136 679 l 0 679 m 0 815 l 0 948 l 136 948 l 136 815 l 0 815 z "},"A":{"ha":1221,"x_min":0,"x_max":1355,"o":"m 1355 -134 l 1355 -269 l 1221 -269 l 1221 -134 l 1355 -134 m 1221 -134 l 1221 -1 l 1355 -1 l 1355 -134 l 1221 -134 m 1221 -1 l 1221 135 l 1355 135 l 1355 -1 l 1221 -1 m 1221 135 l 1221 271 l 1355 271 l 1355 135 l 1221 135 m 1221 271 l 1221 407 l 1355 407 l 1355 271 l 1221 271 m 1221 407 l 1221 543 l 1355 543 l 1355 407 l 1221 407 m 1221 543 l 1221 679 l 1355 679 l 1355 543 l 1221 543 m 1221 679 l 1221 815 l 1355 815 l 1355 679 l 1221 679 m 1221 -134 l 1221 -269 l 1086 -269 l 1086 -134 l 1221 -134 m 1086 -134 l 1086 -1 l 1221 -1 l 1221 -134 l 1086 -134 m 1086 -1 l 1086 135 l 1221 135 l 1221 -1 l 1086 -1 m 1086 135 l 1086 271 l 1221 271 l 1221 135 l 1086 135 m 1086 271 l 1086 407 l 1221 407 l 1221 271 l 1086 271 m 1086 407 l 1086 543 l 1221 543 l 1221 407 l 1086 407 m 1086 543 l 1086 679 l 1221 679 l 1221 543 l 1086 543 m 1086 679 l 1086 815 l 1221 815 l 1221 679 l 1086 679 m 1086 815 l 1086 948 l 1221 948 l 1221 815 l 1086 815 m 949 948 l 949 1084 l 1086 1084 l 1086 948 l 949 948 m 1086 -134 l 1086 -269 l 949 -269 l 949 -134 l 1086 -134 m 949 -134 l 949 -1 l 1086 -1 l 1086 -134 l 949 -134 m 949 815 l 949 948 l 1086 948 l 1086 815 l 949 815 m 814 948 l 814 1084 l 949 1084 l 949 948 l 814 948 m 949 -134 l 949 -269 l 814 -269 l 814 -134 l 949 -134 m 814 -134 l 814 -1 l 949 -1 l 949 -134 l 814 -134 m 677 948 l 677 1084 l 814 1084 l 814 948 l 677 948 m 677 -134 l 677 -1 l 814 -1 l 814 -134 l 677 -134 m 677 -1 l 677 135 l 814 135 l 814 -1 l 677 -1 m 677 135 l 677 271 l 814 271 l 814 135 l 677 135 m 677 407 l 677 543 l 814 543 l 814 407 l 677 407 m 677 543 l 677 679 l 814 679 l 814 543 l 677 543 m 677 679 l 677 815 l 814 815 l 814 679 l 677 679 m 541 948 l 541 1084 l 677 1084 l 677 948 l 541 948 m 677 -134 l 677 -269 l 541 -269 l 541 -134 l 677 -134 m 541 -134 l 541 -1 l 677 -1 l 677 -134 l 541 -134 m 541 -1 l 541 135 l 677 135 l 677 -1 l 541 -1 m 541 135 l 541 271 l 677 271 l 677 135 l 541 135 m 541 407 l 541 543 l 677 543 l 677 407 l 541 407 m 541 543 l 541 679 l 677 679 l 677 543 l 541 543 m 541 679 l 541 815 l 677 815 l 677 679 l 541 679 m 408 948 l 408 1084 l 541 1084 l 541 948 l 408 948 m 541 -134 l 541 -269 l 408 -269 l 408 -134 l 541 -134 m 408 -134 l 408 -1 l 541 -1 l 541 -134 l 408 -134 m 408 -1 l 408 135 l 541 135 l 541 -1 l 408 -1 m 408 135 l 408 271 l 541 271 l 541 135 l 408 135 m 408 407 l 408 543 l 541 543 l 541 407 l 408 407 m 408 543 l 408 679 l 541 679 l 541 543 l 408 543 m 408 679 l 408 815 l 541 815 l 541 679 l 408 679 m 272 948 l 272 1084 l 408 1084 l 408 948 l 272 948 m 408 -134 l 408 -269 l 272 -269 l 272 -134 l 408 -134 m 272 -134 l 272 -1 l 408 -1 l 408 -134 l 272 -134 m 136 948 l 136 1084 l 272 1084 l 272 948 l 136 948 m 272 -134 l 272 -269 l 136 -269 l 136 -134 l 272 -134 m 136 -134 l 136 -1 l 272 -1 l 272 -134 l 136 -134 m 136 815 l 136 948 l 272 948 l 272 815 l 136 815 m 0 -134 l 0 -1 l 136 -1 l 136 -134 l 0 -134 m 0 -1 l 0 135 l 136 135 l 136 -1 l 0 -1 m 0 135 l 0 271 l 136 271 l 136 135 l 0 135 m 0 271 l 0 407 l 136 407 l 136 271 l 0 271 m 0 407 l 0 543 l 136 543 l 136 407 l 0 407 m 0 543 l 0 679 l 136 679 l 136 543 l 0 543 m 0 679 l 0 815 l 136 815 l 136 679 l 0 679 m 0 815 l 0 948 l 136 948 l 136 815 l 0 815 z "},"B":{"ha":1221,"x_min":0,"x_max":1355,"o":"m 1221 -134 l 1221 -1 l 1355 -1 l 1355 -134 l 1221 -134 m 1221 -1 l 1221 135 l 1355 135 l 1355 -1 l 1221 -1 m 1221 135 l 1221 271 l 1355 271 l 1355 135 l 1221 135 m 1221 271 l 1221 407 l 1355 407 l 1355 271 l 1221 271 m 1221 407 l 1221 543 l 1355 543 l 1355 407 l 1221 407 m 1221 543 l 1221 679 l 1355 679 l 1355 543 l 1221 543 m 1221 679 l 1221 815 l 1355 815 l 1355 679 l 1221 679 m 1221 -134 l 1221 -269 l 1086 -269 l 1086 -134 l 1221 -134 m 1086 -134 l 1086 -1 l 1221 -1 l 1221 -134 l 1086 -134 m 1086 -1 l 1086 135 l 1221 135 l 1221 -1 l 1086 -1 m 1086 135 l 1086 271 l 1221 271 l 1221 135 l 1086 135 m 1086 271 l 1086 407 l 1221 407 l 1221 271 l 1086 271 m 1086 407 l 1086 543 l 1221 543 l 1221 407 l 1086 407 m 1086 543 l 1086 679 l 1221 679 l 1221 543 l 1086 543 m 1086 679 l 1086 815 l 1221 815 l 1221 679 l 1086 679 m 1086 815 l 1086 948 l 1221 948 l 1221 815 l 1086 815 m 949 948 l 949 1084 l 1086 1084 l 1086 948 l 949 948 m 1086 -134 l 1086 -269 l 949 -269 l 949 -134 l 1086 -134 m 949 -134 l 949 -1 l 1086 -1 l 1086 -134 l 949 -134 m 949 -1 l 949 135 l 1086 135 l 1086 -1 l 949 -1 m 949 407 l 949 543 l 1086 543 l 1086 407 l 949 407 m 949 815 l 949 948 l 1086 948 l 1086 815 l 949 815 m 814 948 l 814 1084 l 949 1084 l 949 948 l 814 948 m 949 -134 l 949 -269 l 814 -269 l 814 -134 l 949 -134 m 814 -134 l 814 -1 l 949 -1 l 949 -134 l 814 -134 m 677 948 l 677 1084 l 814 1084 l 814 948 l 677 948 m 814 -134 l 814 -269 l 677 -269 l 677 -134 l 814 -134 m 677 -134 l 677 -1 l 814 -1 l 814 -134 l 677 -134 m 677 135 l 677 271 l 814 271 l 814 135 l 677 135 m 677 271 l 677 407 l 814 407 l 814 271 l 677 271 m 677 543 l 677 679 l 814 679 l 814 543 l 677 543 m 677 679 l 677 815 l 814 815 l 814 679 l 677 679 m 541 948 l 541 1084 l 677 1084 l 677 948 l 541 948 m 677 -134 l 677 -269 l 541 -269 l 541 -134 l 677 -134 m 541 -134 l 541 -1 l 677 -1 l 677 -134 l 541 -134 m 541 135 l 541 271 l 677 271 l 677 135 l 541 135 m 541 271 l 541 407 l 677 407 l 677 271 l 541 271 m 541 543 l 541 679 l 677 679 l 677 543 l 541 543 m 541 679 l 541 815 l 677 815 l 677 679 l 541 679 m 408 948 l 408 1084 l 541 1084 l 541 948 l 408 948 m 541 -134 l 541 -269 l 408 -269 l 408 -134 l 541 -134 m 408 -134 l 408 -1 l 541 -1 l 541 -134 l 408 -134 m 408 135 l 408 271 l 541 271 l 541 135 l 408 135 m 408 271 l 408 407 l 541 407 l 541 271 l 408 271 m 408 543 l 408 679 l 541 679 l 541 543 l 408 543 m 408 679 l 408 815 l 541 815 l 541 679 l 408 679 m 272 948 l 272 1084 l 408 1084 l 408 948 l 272 948 m 408 -134 l 408 -269 l 272 -269 l 272 -134 l 408 -134 m 272 -134 l 272 -1 l 408 -1 l 408 -134 l 272 -134 m 136 948 l 136 1084 l 272 1084 l 272 948 l 136 948 m 272 -134 l 272 -269 l 136 -269 l 136 -134 l 272 -134 m 136 -134 l 136 -1 l 272 -1 l 272 -134 l 136 -134 m 0 948 l 0 1084 l 136 1084 l 136 948 l 0 948 m 0 -134 l 0 -1 l 136 -1 l 136 -134 l 0 -134 m 0 -1 l 0 135 l 136 135 l 136 -1 l 0 -1 m 0 135 l 0 271 l 136 271 l 136 135 l 0 135 m 0 271 l 0 407 l 136 407 l 136 271 l 0 271 m 0 407 l 0 543 l 136 543 l 136 407 l 0 407 m 0 543 l 0 679 l 136 679 l 136 543 l 0 543 m 0 679 l 0 815 l 136 815 l 136 679 l 0 679 m 0 815 l 0 948 l 136 948 l 136 815 l 0 815 z "},"C":{"ha":1221,"x_min":0,"x_max":1355,"o":"m 1221 -134 l 1221 -1 l 1355 -1 l 1355 -134 l 1221 -134 m 1221 -1 l 1221 135 l 1355 135 l 1355 -1 l 1221 -1 m 1221 135 l 1221 271 l 1355 271 l 1355 135 l 1221 135 m 1221 407 l 1221 543 l 1355 543 l 1355 407 l 1221 407 m 1221 543 l 1221 679 l 1355 679 l 1355 543 l 1221 543 m 1221 679 l 1221 815 l 1355 815 l 1355 679 l 1221 679 m 1221 -134 l 1221 -269 l 1086 -269 l 1086 -134 l 1221 -134 m 1086 -134 l 1086 -1 l 1221 -1 l 1221 -134 l 1086 -134 m 1086 -1 l 1086 135 l 1221 135 l 1221 -1 l 1086 -1 m 1086 135 l 1086 271 l 1221 271 l 1221 135 l 1086 135 m 1086 271 l 1086 407 l 1221 407 l 1221 271 l 1086 271 m 1086 407 l 1086 543 l 1221 543 l 1221 407 l 1086 407 m 1086 543 l 1086 679 l 1221 679 l 1221 543 l 1086 543 m 1086 679 l 1086 815 l 1221 815 l 1221 679 l 1086 679 m 1086 815 l 1086 948 l 1221 948 l 1221 815 l 1086 815 m 949 948 l 949 1084 l 1086 1084 l 1086 948 l 949 948 m 1086 -134 l 1086 -269 l 949 -269 l 949 -134 l 1086 -134 m 949 -134 l 949 -1 l 1086 -1 l 1086 -134 l 949 -134 m 949 -1 l 949 135 l 1086 135 l 1086 -1 l 949 -1 m 949 271 l 949 407 l 1086 407 l 1086 271 l 949 271 m 949 407 l 949 543 l 1086 543 l 1086 407 l 949 407 m 949 543 l 949 679 l 1086 679 l 1086 543 l 949 543 m 949 815 l 949 948 l 1086 948 l 1086 815 l 949 815 m 814 948 l 814 1084 l 949 1084 l 949 948 l 814 948 m 949 -134 l 949 -269 l 814 -269 l 814 -134 l 949 -134 m 814 -134 l 814 -1 l 949 -1 l 949 -134 l 814 -134 m 814 271 l 814 407 l 949 407 l 949 271 l 814 271 m 814 407 l 814 543 l 949 543 l 949 407 l 814 407 m 814 543 l 814 679 l 949 679 l 949 543 l 814 543 m 677 948 l 677 1084 l 814 1084 l 814 948 l 677 948 m 814 -134 l 814 -269 l 677 -269 l 677 -134 l 814 -134 m 677 -134 l 677 -1 l 814 -1 l 814 -134 l 677 -134 m 677 135 l 677 271 l 814 271 l 814 135 l 677 135 m 677 271 l 677 407 l 814 407 l 814 271 l 677 271 m 677 407 l 677 543 l 814 543 l 814 407 l 677 407 m 677 543 l 677 679 l 814 679 l 814 543 l 677 543 m 677 679 l 677 815 l 814 815 l 814 679 l 677 679 m 541 948 l 541 1084 l 677 1084 l 677 948 l 541 948 m 677 -134 l 677 -269 l 541 -269 l 541 -134 l 677 -134 m 541 -134 l 541 -1 l 677 -1 l 677 -134 l 541 -134 m 541 135 l 541 271 l 677 271 l 677 135 l 541 135 m 541 271 l 541 407 l 677 407 l 677 271 l 541 271 m 541 407 l 541 543 l 677 543 l 677 407 l 541 407 m 541 543 l 541 679 l 677 679 l 677 543 l 541 543 m 541 679 l 541 815 l 677 815 l 677 679 l 541 679 m 408 948 l 408 1084 l 541 1084 l 541 948 l 408 948 m 541 -134 l 541 -269 l 408 -269 l 408 -134 l 541 -134 m 408 -134 l 408 -1 l 541 -1 l 541 -134 l 408 -134 m 408 135 l 408 271 l 541 271 l 541 135 l 408 135 m 408 271 l 408 407 l 541 407 l 541 271 l 408 271 m 408 407 l 408 543 l 541 543 l 541 407 l 408 407 m 408 543 l 408 679 l 541 679 l 541 543 l 408 543 m 408 679 l 408 815 l 541 815 l 541 679 l 408 679 m 272 948 l 272 1084 l 408 1084 l 408 948 l 272 948 m 408 -134 l 408 -269 l 272 -269 l 272 -134 l 408 -134 m 272 -134 l 272 -1 l 408 -1 l 408 -134 l 272 -134 m 136 948 l 136 1084 l 272 1084 l 272 948 l 136 948 m 136 -134 l 136 -1 l 272 -1 l 272 -134 l 136 -134 m 136 -1 l 136 135 l 272 135 l 272 -1 l 136 -1 m 136 815 l 136 948 l 272 948 l 272 815 l 136 815 m 0 -1 l 0 135 l 136 135 l 136 -1 l 0 -1 m 0 135 l 0 271 l 136 271 l 136 135 l 0 135 m 0 271 l 0 407 l 136 407 l 136 271 l 0 271 m 0 407 l 0 543 l 136 543 l 136 407 l 0 407 m 0 543 l 0 679 l 136 679 l 136 543 l 0 543 m 0 679 l 0 815 l 136 815 l 136 679 l 0 679 m 0 815 l 0 948 l 136 948 l 136 815 l 0 815 z "},"D":{"ha":1221,"x_min":0,"x_max":1355,"o":"m 1221 -1 l 1221 135 l 1355 135 l 1355 -1 l 1221 -1 m 1221 135 l 1221 271 l 1355 271 l 1355 135 l 1221 135 m 1221 271 l 1221 407 l 1355 407 l 1355 271 l 1221 271 m 1221 407 l 1221 543 l 1355 543 l 1355 407 l 1221 407 m 1221 543 l 1221 679 l 1355 679 l 1355 543 l 1221 543 m 1086 -134 l 1086 -1 l 1221 -1 l 1221 -134 l 1086 -134 m 1086 -1 l 1086 135 l 1221 135 l 1221 -1 l 1086 -1 m 1086 135 l 1086 271 l 1221 271 l 1221 135 l 1086 135 m 1086 271 l 1086 407 l 1221 407 l 1221 271 l 1086 271 m 1086 407 l 1086 543 l 1221 543 l 1221 407 l 1086 407 m 1086 543 l 1086 679 l 1221 679 l 1221 543 l 1086 543 m 1086 679 l 1086 815 l 1221 815 l 1221 679 l 1086 679 m 1086 -134 l 1086 -269 l 949 -269 l 949 -134 l 1086 -134 m 949 -134 l 949 -1 l 1086 -1 l 1086 -134 l 949 -134 m 949 -1 l 949 135 l 1086 135 l 1086 -1 l 949 -1 m 949 135 l 949 271 l 1086 271 l 1086 135 l 949 135 m 949 679 l 949 815 l 1086 815 l 1086 679 l 949 679 m 949 815 l 949 948 l 1086 948 l 1086 815 l 949 815 m 814 948 l 814 1084 l 949 1084 l 949 948 l 814 948 m 949 -134 l 949 -269 l 814 -269 l 814 -134 l 949 -134 m 814 -134 l 814 -1 l 949 -1 l 949 -134 l 814 -134 m 814 -1 l 814 135 l 949 135 l 949 -1 l 814 -1 m 814 815 l 814 948 l 949 948 l 949 815 l 814 815 m 677 948 l 677 1084 l 814 1084 l 814 948 l 677 948 m 814 -134 l 814 -269 l 677 -269 l 677 -134 l 814 -134 m 677 -134 l 677 -1 l 814 -1 l 814 -134 l 677 -134 m 677 271 l 677 407 l 814 407 l 814 271 l 677 271 m 677 407 l 677 543 l 814 543 l 814 407 l 677 407 m 677 543 l 677 679 l 814 679 l 814 543 l 677 543 m 541 948 l 541 1084 l 677 1084 l 677 948 l 541 948 m 677 -134 l 677 -269 l 541 -269 l 541 -134 l 677 -134 m 541 -134 l 541 -1 l 677 -1 l 677 -134 l 541 -134 m 541 135 l 541 271 l 677 271 l 677 135 l 541 135 m 541 271 l 541 407 l 677 407 l 677 271 l 541 271 m 541 407 l 541 543 l 677 543 l 677 407 l 541 407 m 541 543 l 541 679 l 677 679 l 677 543 l 541 543 m 541 679 l 541 815 l 677 815 l 677 679 l 541 679 m 408 948 l 408 1084 l 541 1084 l 541 948 l 408 948 m 541 -134 l 541 -269 l 408 -269 l 408 -134 l 541 -134 m 408 -134 l 408 -1 l 541 -1 l 541 -134 l 408 -134 m 408 135 l 408 271 l 541 271 l 541 135 l 408 135 m 408 271 l 408 407 l 541 407 l 541 271 l 408 271 m 408 407 l 408 543 l 541 543 l 541 407 l 408 407 m 408 543 l 408 679 l 541 679 l 541 543 l 408 543 m 408 679 l 408 815 l 541 815 l 541 679 l 408 679 m 272 948 l 272 1084 l 408 1084 l 408 948 l 272 948 m 408 -134 l 408 -269 l 272 -269 l 272 -134 l 408 -134 m 272 -134 l 272 -1 l 408 -1 l 408 -134 l 272 -134 m 136 948 l 136 1084 l 272 1084 l 272 948 l 136 948 m 272 -134 l 272 -269 l 136 -269 l 136 -134 l 272 -134 m 136 -134 l 136 -1 l 272 -1 l 272 -134 l 136 -134 m 0 948 l 0 1084 l 136 1084 l 136 948 l 0 948 m 0 -134 l 0 -1 l 136 -1 l 136 -134 l 0 -134 m 0 -1 l 0 135 l 136 135 l 136 -1 l 0 -1 m 0 135 l 0 271 l 136 271 l 136 135 l 0 135 m 0 271 l 0 407 l 136 407 l 136 271 l 0 271 m 0 407 l 0 543 l 136 543 l 136 407 l 0 407 m 0 543 l 0 679 l 136 679 l 136 543 l 0 543 m 0 679 l 0 815 l 136 815 l 136 679 l 0 679 m 0 815 l 0 948 l 136 948 l 136 815 l 0 815 z "},"E":{"ha":1221,"x_min":0,"x_max":1355,"o":"m 1355 -134 l 1355 -269 l 1221 -269 l 1221 -134 l 1355 -134 m 1221 -134 l 1221 -1 l 1355 -1 l 1355 -134 l 1221 -134 m 1221 -1 l 1221 135 l 1355 135 l 1355 -1 l 1221 -1 m 1221 543 l 1221 679 l 1355 679 l 1355 543 l 1221 543 m 1221 679 l 1221 815 l 1355 815 l 1355 679 l 1221 679 m 1221 815 l 1221 948 l 1355 948 l 1355 815 l 1221 815 m 1086 948 l 1086 1084 l 1221 1084 l 1221 948 l 1086 948 m 1221 -134 l 1221 -269 l 1086 -269 l 1086 -134 l 1221 -134 m 1086 -134 l 1086 -1 l 1221 -1 l 1221 -134 l 1086 -134 m 1086 -1 l 1086 135 l 1221 135 l 1221 -1 l 1086 -1 m 1086 135 l 1086 271 l 1221 271 l 1221 135 l 1086 135 m 1086 271 l 1086 407 l 1221 407 l 1221 271 l 1086 271 m 1086 407 l 1086 543 l 1221 543 l 1221 407 l 1086 407 m 1086 543 l 1086 679 l 1221 679 l 1221 543 l 1086 543 m 1086 679 l 1086 815 l 1221 815 l 1221 679 l 1086 679 m 1086 815 l 1086 948 l 1221 948 l 1221 815 l 1086 815 m 949 948 l 949 1084 l 1086 1084 l 1086 948 l 949 948 m 1086 -134 l 1086 -269 l 949 -269 l 949 -134 l 1086 -134 m 949 -134 l 949 -1 l 1086 -1 l 1086 -134 l 949 -134 m 949 135 l 949 271 l 1086 271 l 1086 135 l 949 135 m 949 271 l 949 407 l 1086 407 l 1086 271 l 949 271 m 949 407 l 949 543 l 1086 543 l 1086 407 l 949 407 m 949 543 l 949 679 l 1086 679 l 1086 543 l 949 543 m 949 679 l 949 815 l 1086 815 l 1086 679 l 949 679 m 814 948 l 814 1084 l 949 1084 l 949 948 l 814 948 m 949 -134 l 949 -269 l 814 -269 l 814 -134 l 949 -134 m 814 -134 l 814 -1 l 949 -1 l 949 -134 l 814 -134 m 814 135 l 814 271 l 949 271 l 949 135 l 814 135 m 814 271 l 814 407 l 949 407 l 949 271 l 814 271 m 814 543 l 814 679 l 949 679 l 949 543 l 814 543 m 814 679 l 814 815 l 949 815 l 949 679 l 814 679 m 677 948 l 677 1084 l 814 1084 l 814 948 l 677 948 m 814 -134 l 814 -269 l 677 -269 l 677 -134 l 814 -134 m 677 -134 l 677 -1 l 814 -1 l 814 -134 l 677 -134 m 677 135 l 677 271 l 814 271 l 814 135 l 677 135 m 677 271 l 677 407 l 814 407 l 814 271 l 677 271 m 677 543 l 677 679 l 814 679 l 814 543 l 677 543 m 677 679 l 677 815 l 814 815 l 814 679 l 677 679 m 541 948 l 541 1084 l 677 1084 l 677 948 l 541 948 m 677 -134 l 677 -269 l 541 -269 l 541 -134 l 677 -134 m 541 -134 l 541 -1 l 677 -1 l 677 -134 l 541 -134 m 541 135 l 541 271 l 677 271 l 677 135 l 541 135 m 541 271 l 541 407 l 677 407 l 677 271 l 541 271 m 541 543 l 541 679 l 677 679 l 677 543 l 541 543 m 541 679 l 541 815 l 677 815 l 677 679 l 541 679 m 408 948 l 408 1084 l 541 1084 l 541 948 l 408 948 m 541 -134 l 541 -269 l 408 -269 l 408 -134 l 541 -134 m 408 -134 l 408 -1 l 541 -1 l 541 -134 l 408 -134 m 408 135 l 408 271 l 541 271 l 541 135 l 408 135 m 408 271 l 408 407 l 541 407 l 541 271 l 408 271 m 408 543 l 408 679 l 541 679 l 541 543 l 408 543 m 408 679 l 408 815 l 541 815 l 541 679 l 408 679 m 272 948 l 272 1084 l 408 1084 l 408 948 l 272 948 m 408 -134 l 408 -269 l 272 -269 l 272 -134 l 408 -134 m 272 -134 l 272 -1 l 408 -1 l 408 -134 l 272 -134 m 136 948 l 136 1084 l 272 1084 l 272 948 l 136 948 m 272 -134 l 272 -269 l 136 -269 l 136 -134 l 272 -134 m 136 -134 l 136 -1 l 272 -1 l 272 -134 l 136 -134 m 0 948 l 0 1084 l 136 1084 l 136 948 l 0 948 m 0 -134 l 0 -1 l 136 -1 l 136 -134 l 0 -134 m 0 -1 l 0 135 l 136 135 l 136 -1 l 0 -1 m 0 135 l 0 271 l 136 271 l 136 135 l 0 135 m 0 271 l 0 407 l 136 407 l 136 271 l 0 271 m 0 407 l 0 543 l 136 543 l 136 407 l 0 407 m 0 543 l 0 679 l 136 679 l 136 543 l 0 543 m 0 679 l 0 815 l 136 815 l 136 679 l 0 679 m 0 815 l 0 948 l 136 948 l 136 815 l 0 815 z "},"F":{"ha":1221,"x_min":0,"x_max":1355,"o":"m 1221 543 l 1221 679 l 1355 679 l 1355 543 l 1221 543 m 1221 679 l 1221 815 l 1355 815 l 1355 679 l 1221 679 m 1221 815 l 1221 948 l 1355 948 l 1355 815 l 1221 815 m 1086 948 l 1086 1084 l 1221 1084 l 1221 948 l 1086 948 m 1086 135 l 1086 271 l 1221 271 l 1221 135 l 1086 135 m 1086 271 l 1086 407 l 1221 407 l 1221 271 l 1086 271 m 1086 407 l 1086 543 l 1221 543 l 1221 407 l 1086 407 m 1086 543 l 1086 679 l 1221 679 l 1221 543 l 1086 543 m 1086 679 l 1086 815 l 1221 815 l 1221 679 l 1086 679 m 1086 815 l 1086 948 l 1221 948 l 1221 815 l 1086 815 m 949 948 l 949 1084 l 1086 1084 l 1086 948 l 949 948 m 949 135 l 949 271 l 1086 271 l 1086 135 l 949 135 m 949 271 l 949 407 l 1086 407 l 1086 271 l 949 271 m 949 407 l 949 543 l 1086 543 l 1086 407 l 949 407 m 949 543 l 949 679 l 1086 679 l 1086 543 l 949 543 m 949 679 l 949 815 l 1086 815 l 1086 679 l 949 679 m 814 948 l 814 1084 l 949 1084 l 949 948 l 814 948 m 814 135 l 814 271 l 949 271 l 949 135 l 814 135 m 814 271 l 814 407 l 949 407 l 949 271 l 814 271 m 814 543 l 814 679 l 949 679 l 949 543 l 814 543 m 814 679 l 814 815 l 949 815 l 949 679 l 814 679 m 677 948 l 677 1084 l 814 1084 l 814 948 l 677 948 m 677 135 l 677 271 l 814 271 l 814 135 l 677 135 m 677 271 l 677 407 l 814 407 l 814 271 l 677 271 m 677 543 l 677 679 l 814 679 l 814 543 l 677 543 m 677 679 l 677 815 l 814 815 l 814 679 l 677 679 m 541 948 l 541 1084 l 677 1084 l 677 948 l 541 948 m 677 -134 l 677 -269 l 541 -269 l 541 -134 l 677 -134 m 541 -134 l 541 -1 l 677 -1 l 677 -134 l 541 -134 m 541 -1 l 541 135 l 677 135 l 677 -1 l 541 -1 m 541 135 l 541 271 l 677 271 l 677 135 l 541 135 m 541 271 l 541 407 l 677 407 l 677 271 l 541 271 m 541 543 l 541 679 l 677 679 l 677 543 l 541 543 m 541 679 l 541 815 l 677 815 l 677 679 l 541 679 m 408 948 l 408 1084 l 541 1084 l 541 948 l 408 948 m 541 -134 l 541 -269 l 408 -269 l 408 -134 l 541 -134 m 408 -134 l 408 -1 l 541 -1 l 541 -134 l 408 -134 m 408 -1 l 408 135 l 541 135 l 541 -1 l 408 -1 m 408 135 l 408 271 l 541 271 l 541 135 l 408 135 m 408 271 l 408 407 l 541 407 l 541 271 l 408 271 m 408 543 l 408 679 l 541 679 l 541 543 l 408 543 m 408 679 l 408 815 l 541 815 l 541 679 l 408 679 m 272 948 l 272 1084 l 408 1084 l 408 948 l 272 948 m 408 -134 l 408 -269 l 272 -269 l 272 -134 l 408 -134 m 272 -134 l 272 -1 l 408 -1 l 408 -134 l 272 -134 m 136 948 l 136 1084 l 272 1084 l 272 948 l 136 948 m 272 -134 l 272 -269 l 136 -269 l 136 -134 l 272 -134 m 136 -134 l 136 -1 l 272 -1 l 272 -134 l 136 -134 m 0 948 l 0 1084 l 136 1084 l 136 948 l 0 948 m 0 -134 l 0 -1 l 136 -1 l 136 -134 l 0 -134 m 0 -1 l 0 135 l 136 135 l 136 -1 l 0 -1 m 0 135 l 0 271 l 136 271 l 136 135 l 0 135 m 0 271 l 0 407 l 136 407 l 136 271 l 0 271 m 0 407 l 0 543 l 136 543 l 136 407 l 0 407 m 0 543 l 0 679 l 136 679 l 136 543 l 0 543 m 0 679 l 0 815 l 136 815 l 136 679 l 0 679 m 0 815 l 0 948 l 136 948 l 136 815 l 0 815 z "},"G":{"ha":1221,"x_min":0,"x_max":1355,"o":"m 1355 -134 l 1355 -269 l 1221 -269 l 1221 -134 l 1355 -134 m 1221 -134 l 1221 -1 l 1355 -1 l 1355 -134 l 1221 -134 m 1221 -1 l 1221 135 l 1355 135 l 1355 -1 l 1221 -1 m 1221 135 l 1221 271 l 1355 271 l 1355 135 l 1221 135 m 1221 271 l 1221 407 l 1355 407 l 1355 271 l 1221 271 m 1221 407 l 1221 543 l 1355 543 l 1355 407 l 1221 407 m 1221 543 l 1221 679 l 1355 679 l 1355 543 l 1221 543 m 1221 679 l 1221 815 l 1355 815 l 1355 679 l 1221 679 m 1221 -134 l 1221 -269 l 1086 -269 l 1086 -134 l 1221 -134 m 1086 -134 l 1086 -1 l 1221 -1 l 1221 -134 l 1086 -134 m 1086 -1 l 1086 135 l 1221 135 l 1221 -1 l 1086 -1 m 1086 135 l 1086 271 l 1221 271 l 1221 135 l 1086 135 m 1086 271 l 1086 407 l 1221 407 l 1221 271 l 1086 271 m 1086 407 l 1086 543 l 1221 543 l 1221 407 l 1086 407 m 1086 543 l 1086 679 l 1221 679 l 1221 543 l 1086 543 m 1086 679 l 1086 815 l 1221 815 l 1221 679 l 1086 679 m 1086 815 l 1086 948 l 1221 948 l 1221 815 l 1086 815 m 949 948 l 949 1084 l 1086 1084 l 1086 948 l 949 948 m 1086 -134 l 1086 -269 l 949 -269 l 949 -134 l 1086 -134 m 949 -134 l 949 -1 l 1086 -1 l 1086 -134 l 949 -134 m 949 543 l 949 679 l 1086 679 l 1086 543 l 949 543 m 949 815 l 949 948 l 1086 948 l 1086 815 l 949 815 m 814 948 l 814 1084 l 949 1084 l 949 948 l 814 948 m 949 -134 l 949 -269 l 814 -269 l 814 -134 l 949 -134 m 814 -134 l 814 -1 l 949 -1 l 949 -134 l 814 -134 m 814 -1 l 814 135 l 949 135 l 949 -1 l 814 -1 m 814 543 l 814 679 l 949 679 l 949 543 l 814 543 m 677 948 l 677 1084 l 814 1084 l 814 948 l 677 948 m 814 -134 l 814 -269 l 677 -269 l 677 -134 l 814 -134 m 677 -134 l 677 -1 l 814 -1 l 814 -134 l 677 -134 m 677 135 l 677 271 l 814 271 l 814 135 l 677 135 m 677 271 l 677 407 l 814 407 l 814 271 l 677 271 m 677 543 l 677 679 l 814 679 l 814 543 l 677 543 m 677 679 l 677 815 l 814 815 l 814 679 l 677 679 m 541 948 l 541 1084 l 677 1084 l 677 948 l 541 948 m 677 -134 l 677 -269 l 541 -269 l 541 -134 l 677 -134 m 541 -134 l 541 -1 l 677 -1 l 677 -134 l 541 -134 m 541 135 l 541 271 l 677 271 l 677 135 l 541 135 m 541 271 l 541 407 l 677 407 l 677 271 l 541 271 m 541 407 l 541 543 l 677 543 l 677 407 l 541 407 m 541 543 l 541 679 l 677 679 l 677 543 l 541 543 m 541 679 l 541 815 l 677 815 l 677 679 l 541 679 m 408 948 l 408 1084 l 541 1084 l 541 948 l 408 948 m 541 -134 l 541 -269 l 408 -269 l 408 -134 l 541 -134 m 408 -134 l 408 -1 l 541 -1 l 541 -134 l 408 -134 m 408 135 l 408 271 l 541 271 l 541 135 l 408 135 m 408 271 l 408 407 l 541 407 l 541 271 l 408 271 m 408 407 l 408 543 l 541 543 l 541 407 l 408 407 m 408 543 l 408 679 l 541 679 l 541 543 l 408 543 m 408 679 l 408 815 l 541 815 l 541 679 l 408 679 m 272 948 l 272 1084 l 408 1084 l 408 948 l 272 948 m 408 -134 l 408 -269 l 272 -269 l 272 -134 l 408 -134 m 272 -134 l 272 -1 l 408 -1 l 408 -134 l 272 -134 m 136 948 l 136 1084 l 272 1084 l 272 948 l 136 948 m 136 -134 l 136 -1 l 272 -1 l 272 -134 l 136 -134 m 136 -1 l 136 135 l 272 135 l 272 -1 l 136 -1 m 136 815 l 136 948 l 272 948 l 272 815 l 136 815 m 0 -1 l 0 135 l 136 135 l 136 -1 l 0 -1 m 0 135 l 0 271 l 136 271 l 136 135 l 0 135 m 0 271 l 0 407 l 136 407 l 136 271 l 0 271 m 0 407 l 0 543 l 136 543 l 136 407 l 0 407 m 0 543 l 0 679 l 136 679 l 136 543 l 0 543 m 0 679 l 0 815 l 136 815 l 136 679 l 0 679 m 0 815 l 0 948 l 136 948 l 136 815 l 0 815 z "},"H":{"ha":1221,"x_min":0,"x_max":1355,"o":"m 1355 -134 l 1355 -269 l 1221 -269 l 1221 -134 l 1355 -134 m 1221 -134 l 1221 -1 l 1355 -1 l 1355 -134 l 1221 -134 m 1221 -1 l 1221 135 l 1355 135 l 1355 -1 l 1221 -1 m 1221 135 l 1221 271 l 1355 271 l 1355 135 l 1221 135 m 1221 271 l 1221 407 l 1355 407 l 1355 271 l 1221 271 m 1221 407 l 1221 543 l 1355 543 l 1355 407 l 1221 407 m 1221 543 l 1221 679 l 1355 679 l 1355 543 l 1221 543 m 1221 679 l 1221 815 l 1355 815 l 1355 679 l 1221 679 m 1221 815 l 1221 948 l 1355 948 l 1355 815 l 1221 815 m 1086 948 l 1086 1084 l 1221 1084 l 1221 948 l 1086 948 m 1221 -134 l 1221 -269 l 1086 -269 l 1086 -134 l 1221 -134 m 1086 -134 l 1086 -1 l 1221 -1 l 1221 -134 l 1086 -134 m 1086 -1 l 1086 135 l 1221 135 l 1221 -1 l 1086 -1 m 1086 135 l 1086 271 l 1221 271 l 1221 135 l 1086 135 m 1086 271 l 1086 407 l 1221 407 l 1221 271 l 1086 271 m 1086 407 l 1086 543 l 1221 543 l 1221 407 l 1086 407 m 1086 543 l 1086 679 l 1221 679 l 1221 543 l 1086 543 m 1086 679 l 1086 815 l 1221 815 l 1221 679 l 1086 679 m 1086 815 l 1086 948 l 1221 948 l 1221 815 l 1086 815 m 949 948 l 949 1084 l 1086 1084 l 1086 948 l 949 948 m 1086 -134 l 1086 -269 l 949 -269 l 949 -134 l 1086 -134 m 949 -134 l 949 -1 l 1086 -1 l 1086 -134 l 949 -134 m 814 948 l 814 1084 l 949 1084 l 949 948 l 814 948 m 949 -134 l 949 -269 l 814 -269 l 814 -134 l 949 -134 m 814 -134 l 814 -1 l 949 -1 l 949 -134 l 814 -134 m 677 948 l 677 1084 l 814 1084 l 814 948 l 677 948 m 677 -134 l 677 -1 l 814 -1 l 814 -134 l 677 -134 m 677 -1 l 677 135 l 814 135 l 814 -1 l 677 -1 m 677 135 l 677 271 l 814 271 l 814 135 l 677 135 m 677 271 l 677 407 l 814 407 l 814 271 l 677 271 m 677 543 l 677 679 l 814 679 l 814 543 l 677 543 m 677 679 l 677 815 l 814 815 l 814 679 l 677 679 m 677 815 l 677 948 l 814 948 l 814 815 l 677 815 m 677 -134 l 677 -269 l 541 -269 l 541 -134 l 677 -134 m 541 -134 l 541 -1 l 677 -1 l 677 -134 l 541 -134 m 541 -1 l 541 135 l 677 135 l 677 -1 l 541 -1 m 541 135 l 541 271 l 677 271 l 677 135 l 541 135 m 541 271 l 541 407 l 677 407 l 677 271 l 541 271 m 541 543 l 541 679 l 677 679 l 677 543 l 541 543 m 541 679 l 541 815 l 677 815 l 677 679 l 541 679 m 541 815 l 541 948 l 677 948 l 677 815 l 541 815 m 408 948 l 408 1084 l 541 1084 l 541 948 l 408 948 m 541 -134 l 541 -269 l 408 -269 l 408 -134 l 541 -134 m 408 -134 l 408 -1 l 541 -1 l 541 -134 l 408 -134 m 408 -1 l 408 135 l 541 135 l 541 -1 l 408 -1 m 408 135 l 408 271 l 541 271 l 541 135 l 408 135 m 408 271 l 408 407 l 541 407 l 541 271 l 408 271 m 408 543 l 408 679 l 541 679 l 541 543 l 408 543 m 408 679 l 408 815 l 541 815 l 541 679 l 408 679 m 408 815 l 408 948 l 541 948 l 541 815 l 408 815 m 272 948 l 272 1084 l 408 1084 l 408 948 l 272 948 m 408 -134 l 408 -269 l 272 -269 l 272 -134 l 408 -134 m 272 -134 l 272 -1 l 408 -1 l 408 -134 l 272 -134 m 136 948 l 136 1084 l 272 1084 l 272 948 l 136 948 m 272 -134 l 272 -269 l 136 -269 l 136 -134 l 272 -134 m 136 -134 l 136 -1 l 272 -1 l 272 -134 l 136 -134 m 0 948 l 0 1084 l 136 1084 l 136 948 l 0 948 m 0 -134 l 0 -1 l 136 -1 l 136 -134 l 0 -134 m 0 -1 l 0 135 l 136 135 l 136 -1 l 0 -1 m 0 135 l 0 271 l 136 271 l 136 135 l 0 135 m 0 271 l 0 407 l 136 407 l 136 271 l 0 271 m 0 407 l 0 543 l 136 543 l 136 407 l 0 407 m 0 543 l 0 679 l 136 679 l 136 543 l 0 543 m 0 679 l 0 815 l 136 815 l 136 679 l 0 679 m 0 815 l 0 948 l 136 948 l 136 815 l 0 815 z "},"I":{"ha":541,"x_min":0,"x_max":677,"o":"m 677 -134 l 677 -269 l 541 -269 l 541 -134 l 677 -134 m 541 -134 l 541 -1 l 677 -1 l 677 -134 l 541 -134 m 541 -1 l 541 135 l 677 135 l 677 -1 l 541 -1 m 541 135 l 541 271 l 677 271 l 677 135 l 541 135 m 541 271 l 541 407 l 677 407 l 677 271 l 541 271 m 541 407 l 541 543 l 677 543 l 677 407 l 541 407 m 541 543 l 541 679 l 677 679 l 677 543 l 541 543 m 541 679 l 541 815 l 677 815 l 677 679 l 541 679 m 541 815 l 541 948 l 677 948 l 677 815 l 541 815 m 408 948 l 408 1084 l 541 1084 l 541 948 l 408 948 m 541 -134 l 541 -269 l 408 -269 l 408 -134 l 541 -134 m 408 -134 l 408 -1 l 541 -1 l 541 -134 l 408 -134 m 408 -1 l 408 135 l 541 135 l 541 -1 l 408 -1 m 408 135 l 408 271 l 541 271 l 541 135 l 408 135 m 408 271 l 408 407 l 541 407 l 541 271 l 408 271 m 408 407 l 408 543 l 541 543 l 541 407 l 408 407 m 408 543 l 408 679 l 541 679 l 541 543 l 408 543 m 408 679 l 408 815 l 541 815 l 541 679 l 408 679 m 408 815 l 408 948 l 541 948 l 541 815 l 408 815 m 272 948 l 272 1084 l 408 1084 l 408 948 l 272 948 m 408 -134 l 408 -269 l 272 -269 l 272 -134 l 408 -134 m 272 -134 l 272 -1 l 408 -1 l 408 -134 l 272 -134 m 136 948 l 136 1084 l 272 1084 l 272 948 l 136 948 m 272 -134 l 272 -269 l 136 -269 l 136 -134 l 272 -134 m 136 -134 l 136 -1 l 272 -1 l 272 -134 l 136 -134 m 0 948 l 0 1084 l 136 1084 l 136 948 l 0 948 m 0 -134 l 0 -1 l 136 -1 l 136 -134 l 0 -134 m 0 -1 l 0 135 l 136 135 l 136 -1 l 0 -1 m 0 135 l 0 271 l 136 271 l 136 135 l 0 135 m 0 271 l 0 407 l 136 407 l 136 271 l 0 271 m 0 407 l 0 543 l 136 543 l 136 407 l 0 407 m 0 543 l 0 679 l 136 679 l 136 543 l 0 543 m 0 679 l 0 815 l 136 815 l 136 679 l 0 679 m 0 815 l 0 948 l 136 948 l 136 815 l 0 815 z "},"J":{"ha":1221,"x_min":0,"x_max":1355,"o":"m 1221 -134 l 1221 -1 l 1355 -1 l 1355 -134 l 1221 -134 m 1221 -1 l 1221 135 l 1355 135 l 1355 -1 l 1221 -1 m 1221 135 l 1221 271 l 1355 271 l 1355 135 l 1221 135 m 1221 271 l 1221 407 l 1355 407 l 1355 271 l 1221 271 m 1221 407 l 1221 543 l 1355 543 l 1355 407 l 1221 407 m 1221 543 l 1221 679 l 1355 679 l 1355 543 l 1221 543 m 1221 679 l 1221 815 l 1355 815 l 1355 679 l 1221 679 m 1221 815 l 1221 948 l 1355 948 l 1355 815 l 1221 815 m 1086 948 l 1086 1084 l 1221 1084 l 1221 948 l 1086 948 m 1221 -134 l 1221 -269 l 1086 -269 l 1086 -134 l 1221 -134 m 1086 -134 l 1086 -1 l 1221 -1 l 1221 -134 l 1086 -134 m 1086 -1 l 1086 135 l 1221 135 l 1221 -1 l 1086 -1 m 1086 135 l 1086 271 l 1221 271 l 1221 135 l 1086 135 m 1086 271 l 1086 407 l 1221 407 l 1221 271 l 1086 271 m 1086 407 l 1086 543 l 1221 543 l 1221 407 l 1086 407 m 1086 543 l 1086 679 l 1221 679 l 1221 543 l 1086 543 m 1086 679 l 1086 815 l 1221 815 l 1221 679 l 1086 679 m 1086 815 l 1086 948 l 1221 948 l 1221 815 l 1086 815 m 949 948 l 949 1084 l 1086 1084 l 1086 948 l 949 948 m 1086 -134 l 1086 -269 l 949 -269 l 949 -134 l 1086 -134 m 949 -134 l 949 -1 l 1086 -1 l 1086 -134 l 949 -134 m 949 -1 l 949 135 l 1086 135 l 1086 -1 l 949 -1 m 814 948 l 814 1084 l 949 1084 l 949 948 l 814 948 m 949 -134 l 949 -269 l 814 -269 l 814 -134 l 949 -134 m 814 -134 l 814 -1 l 949 -1 l 949 -134 l 814 -134 m 677 948 l 677 1084 l 814 1084 l 814 948 l 677 948 m 814 -134 l 814 -269 l 677 -269 l 677 -134 l 814 -134 m 677 -134 l 677 -1 l 814 -1 l 814 -134 l 677 -134 m 677 135 l 677 271 l 814 271 l 814 135 l 677 135 m 677 271 l 677 407 l 814 407 l 814 271 l 677 271 m 677 407 l 677 543 l 814 543 l 814 407 l 677 407 m 677 543 l 677 679 l 814 679 l 814 543 l 677 543 m 677 679 l 677 815 l 814 815 l 814 679 l 677 679 m 677 815 l 677 948 l 814 948 l 814 815 l 677 815 m 677 -134 l 677 -269 l 541 -269 l 541 -134 l 677 -134 m 541 -134 l 541 -1 l 677 -1 l 677 -134 l 541 -134 m 541 135 l 541 271 l 677 271 l 677 135 l 541 135 m 541 271 l 541 407 l 677 407 l 677 271 l 541 271 m 541 407 l 541 543 l 677 543 l 677 407 l 541 407 m 541 -134 l 541 -269 l 408 -269 l 408 -134 l 541 -134 m 408 -134 l 408 -1 l 541 -1 l 541 -134 l 408 -134 m 408 135 l 408 271 l 541 271 l 541 135 l 408 135 m 408 271 l 408 407 l 541 407 l 541 271 l 408 271 m 408 407 l 408 543 l 541 543 l 541 407 l 408 407 m 408 -134 l 408 -269 l 272 -269 l 272 -134 l 408 -134 m 272 -134 l 272 -1 l 408 -1 l 408 -134 l 272 -134 m 272 407 l 272 543 l 408 543 l 408 407 l 272 407 m 136 -134 l 136 -1 l 272 -1 l 272 -134 l 136 -134 m 136 -1 l 136 135 l 272 135 l 272 -1 l 136 -1 m 136 407 l 136 543 l 272 543 l 272 407 l 136 407 m 0 -1 l 0 135 l 136 135 l 136 -1 l 0 -1 m 0 135 l 0 271 l 136 271 l 136 135 l 0 135 m 0 271 l 0 407 l 136 407 l 136 271 l 0 271 m 0 407 l 0 543 l 136 543 l 136 407 l 0 407 z "},"K":{"ha":1221,"x_min":0,"x_max":1355,"o":"m 1355 -134 l 1355 -269 l 1221 -269 l 1221 -134 l 1355 -134 m 1221 -134 l 1221 -1 l 1355 -1 l 1355 -134 l 1221 -134 m 1221 -1 l 1221 135 l 1355 135 l 1355 -1 l 1221 -1 m 1221 543 l 1221 679 l 1355 679 l 1355 543 l 1221 543 m 1221 679 l 1221 815 l 1355 815 l 1355 679 l 1221 679 m 1221 815 l 1221 948 l 1355 948 l 1355 815 l 1221 815 m 1086 948 l 1086 1084 l 1221 1084 l 1221 948 l 1086 948 m 1221 -134 l 1221 -269 l 1086 -269 l 1086 -134 l 1221 -134 m 1086 -134 l 1086 -1 l 1221 -1 l 1221 -134 l 1086 -134 m 1086 -1 l 1086 135 l 1221 135 l 1221 -1 l 1086 -1 m 1086 135 l 1086 271 l 1221 271 l 1221 135 l 1086 135 m 1086 407 l 1086 543 l 1221 543 l 1221 407 l 1086 407 m 1086 543 l 1086 679 l 1221 679 l 1221 543 l 1086 543 m 1086 679 l 1086 815 l 1221 815 l 1221 679 l 1086 679 m 1086 815 l 1086 948 l 1221 948 l 1221 815 l 1086 815 m 949 948 l 949 1084 l 1086 1084 l 1086 948 l 949 948 m 1086 -134 l 1086 -269 l 949 -269 l 949 -134 l 1086 -134 m 949 -134 l 949 -1 l 1086 -1 l 1086 -134 l 949 -134 m 949 135 l 949 271 l 1086 271 l 1086 135 l 949 135 m 949 271 l 949 407 l 1086 407 l 1086 271 l 949 271 m 949 407 l 949 543 l 1086 543 l 1086 407 l 949 407 m 949 543 l 949 679 l 1086 679 l 1086 543 l 949 543 m 949 679 l 949 815 l 1086 815 l 1086 679 l 949 679 m 814 948 l 814 1084 l 949 1084 l 949 948 l 814 948 m 949 -134 l 949 -269 l 814 -269 l 814 -134 l 949 -134 m 814 -134 l 814 -1 l 949 -1 l 949 -134 l 814 -134 m 814 271 l 814 407 l 949 407 l 949 271 l 814 271 m 814 407 l 814 543 l 949 543 l 949 407 l 814 407 m 814 543 l 814 679 l 949 679 l 949 543 l 814 543 m 677 948 l 677 1084 l 814 1084 l 814 948 l 677 948 m 677 -134 l 677 -1 l 814 -1 l 814 -134 l 677 -134 m 677 -1 l 677 135 l 814 135 l 814 -1 l 677 -1 m 677 407 l 677 543 l 814 543 l 814 407 l 677 407 m 677 815 l 677 948 l 814 948 l 814 815 l 677 815 m 677 -134 l 677 -269 l 541 -269 l 541 -134 l 677 -134 m 541 -134 l 541 -1 l 677 -1 l 677 -134 l 541 -134 m 541 -1 l 541 135 l 677 135 l 677 -1 l 541 -1 m 541 135 l 541 271 l 677 271 l 677 135 l 541 135 m 541 679 l 541 815 l 677 815 l 677 679 l 541 679 m 541 815 l 541 948 l 677 948 l 677 815 l 541 815 m 408 948 l 408 1084 l 541 1084 l 541 948 l 408 948 m 541 -134 l 541 -269 l 408 -269 l 408 -134 l 541 -134 m 408 -134 l 408 -1 l 541 -1 l 541 -134 l 408 -134 m 408 -1 l 408 135 l 541 135 l 541 -1 l 408 -1 m 408 135 l 408 271 l 541 271 l 541 135 l 408 135 m 408 271 l 408 407 l 541 407 l 541 271 l 408 271 m 408 543 l 408 679 l 541 679 l 541 543 l 408 543 m 408 679 l 408 815 l 541 815 l 541 679 l 408 679 m 408 815 l 408 948 l 541 948 l 541 815 l 408 815 m 272 948 l 272 1084 l 408 1084 l 408 948 l 272 948 m 408 -134 l 408 -269 l 272 -269 l 272 -134 l 408 -134 m 272 -134 l 272 -1 l 408 -1 l 408 -134 l 272 -134 m 136 948 l 136 1084 l 272 1084 l 272 948 l 136 948 m 272 -134 l 272 -269 l 136 -269 l 136 -134 l 272 -134 m 136 -134 l 136 -1 l 272 -1 l 272 -134 l 136 -134 m 0 948 l 0 1084 l 136 1084 l 136 948 l 0 948 m 0 -134 l 0 -1 l 136 -1 l 136 -134 l 0 -134 m 0 -1 l 0 135 l 136 135 l 136 -1 l 0 -1 m 0 135 l 0 271 l 136 271 l 136 135 l 0 135 m 0 271 l 0 407 l 136 407 l 136 271 l 0 271 m 0 407 l 0 543 l 136 543 l 136 407 l 0 407 m 0 543 l 0 679 l 136 679 l 136 543 l 0 543 m 0 679 l 0 815 l 136 815 l 136 679 l 0 679 m 0 815 l 0 948 l 136 948 l 136 815 l 0 815 z "},"L":{"ha":1086,"x_min":0,"x_max":1221,"o":"m 1221 -134 l 1221 -269 l 1086 -269 l 1086 -134 l 1221 -134 m 1086 -134 l 1086 -1 l 1221 -1 l 1221 -134 l 1086 -134 m 1086 -1 l 1086 135 l 1221 135 l 1221 -1 l 1086 -1 m 1086 -134 l 1086 -269 l 949 -269 l 949 -134 l 1086 -134 m 949 -134 l 949 -1 l 1086 -1 l 1086 -134 l 949 -134 m 949 -1 l 949 135 l 1086 135 l 1086 -1 l 949 -1 m 949 135 l 949 271 l 1086 271 l 1086 135 l 949 135 m 949 -134 l 949 -269 l 814 -269 l 814 -134 l 949 -134 m 814 -134 l 814 -1 l 949 -1 l 949 -134 l 814 -134 m 814 135 l 814 271 l 949 271 l 949 135 l 814 135 m 814 -134 l 814 -269 l 677 -269 l 677 -134 l 814 -134 m 677 -134 l 677 -1 l 814 -1 l 814 -134 l 677 -134 m 677 135 l 677 271 l 814 271 l 814 135 l 677 135 m 677 -134 l 677 -269 l 541 -269 l 541 -134 l 677 -134 m 541 -134 l 541 -1 l 677 -1 l 677 -134 l 541 -134 m 541 135 l 541 271 l 677 271 l 677 135 l 541 135 m 541 271 l 541 407 l 677 407 l 677 271 l 541 271 m 541 407 l 541 543 l 677 543 l 677 407 l 541 407 m 541 543 l 541 679 l 677 679 l 677 543 l 541 543 m 541 679 l 541 815 l 677 815 l 677 679 l 541 679 m 541 815 l 541 948 l 677 948 l 677 815 l 541 815 m 408 948 l 408 1084 l 541 1084 l 541 948 l 408 948 m 541 -134 l 541 -269 l 408 -269 l 408 -134 l 541 -134 m 408 -134 l 408 -1 l 541 -1 l 541 -134 l 408 -134 m 408 135 l 408 271 l 541 271 l 541 135 l 408 135 m 408 271 l 408 407 l 541 407 l 541 271 l 408 271 m 408 407 l 408 543 l 541 543 l 541 407 l 408 407 m 408 543 l 408 679 l 541 679 l 541 543 l 408 543 m 408 679 l 408 815 l 541 815 l 541 679 l 408 679 m 408 815 l 408 948 l 541 948 l 541 815 l 408 815 m 272 948 l 272 1084 l 408 1084 l 408 948 l 272 948 m 408 -134 l 408 -269 l 272 -269 l 272 -134 l 408 -134 m 272 -134 l 272 -1 l 408 -1 l 408 -134 l 272 -134 m 136 948 l 136 1084 l 272 1084 l 272 948 l 136 948 m 272 -134 l 272 -269 l 136 -269 l 136 -134 l 272 -134 m 136 -134 l 136 -1 l 272 -1 l 272 -134 l 136 -134 m 0 948 l 0 1084 l 136 1084 l 136 948 l 0 948 m 0 -134 l 0 -1 l 136 -1 l 136 -134 l 0 -134 m 0 -1 l 0 135 l 136 135 l 136 -1 l 0 -1 m 0 135 l 0 271 l 136 271 l 136 135 l 0 135 m 0 271 l 0 407 l 136 407 l 136 271 l 0 271 m 0 407 l 0 543 l 136 543 l 136 407 l 0 407 m 0 543 l 0 679 l 136 679 l 136 543 l 0 543 m 0 679 l 0 815 l 136 815 l 136 679 l 0 679 m 0 815 l 0 948 l 136 948 l 136 815 l 0 815 z "},"M":{"ha":1221,"x_min":0,"x_max":1355,"o":"m 1355 -134 l 1355 -269 l 1221 -269 l 1221 -134 l 1355 -134 m 1221 -134 l 1221 -1 l 1355 -1 l 1355 -134 l 1221 -134 m 1221 -1 l 1221 135 l 1355 135 l 1355 -1 l 1221 -1 m 1221 135 l 1221 271 l 1355 271 l 1355 135 l 1221 135 m 1221 271 l 1221 407 l 1355 407 l 1355 271 l 1221 271 m 1221 407 l 1221 543 l 1355 543 l 1355 407 l 1221 407 m 1221 543 l 1221 679 l 1355 679 l 1355 543 l 1221 543 m 1221 679 l 1221 815 l 1355 815 l 1355 679 l 1221 679 m 1221 815 l 1221 948 l 1355 948 l 1355 815 l 1221 815 m 1086 948 l 1086 1084 l 1221 1084 l 1221 948 l 1086 948 m 1221 -134 l 1221 -269 l 1086 -269 l 1086 -134 l 1221 -134 m 1086 -134 l 1086 -1 l 1221 -1 l 1221 -134 l 1086 -134 m 1086 -1 l 1086 135 l 1221 135 l 1221 -1 l 1086 -1 m 1086 135 l 1086 271 l 1221 271 l 1221 135 l 1086 135 m 1086 271 l 1086 407 l 1221 407 l 1221 271 l 1086 271 m 1086 407 l 1086 543 l 1221 543 l 1221 407 l 1086 407 m 1086 543 l 1086 679 l 1221 679 l 1221 543 l 1086 543 m 1086 679 l 1086 815 l 1221 815 l 1221 679 l 1086 679 m 1086 815 l 1086 948 l 1221 948 l 1221 815 l 1086 815 m 949 948 l 949 1084 l 1086 1084 l 1086 948 l 949 948 m 1086 -134 l 1086 -269 l 949 -269 l 949 -134 l 1086 -134 m 949 -134 l 949 -1 l 1086 -1 l 1086 -134 l 949 -134 m 814 948 l 814 1084 l 949 1084 l 949 948 l 814 948 m 949 -134 l 949 -269 l 814 -269 l 814 -134 l 949 -134 m 814 -134 l 814 -1 l 949 -1 l 949 -134 l 814 -134 m 677 948 l 677 1084 l 814 1084 l 814 948 l 677 948 m 677 -134 l 677 -1 l 814 -1 l 814 -134 l 677 -134 m 677 -1 l 677 135 l 814 135 l 814 -1 l 677 -1 m 677 135 l 677 271 l 814 271 l 814 135 l 677 135 m 677 271 l 677 407 l 814 407 l 814 271 l 677 271 m 677 407 l 677 543 l 814 543 l 814 407 l 677 407 m 677 815 l 677 948 l 814 948 l 814 815 l 677 815 m 677 -134 l 677 -269 l 541 -269 l 541 -134 l 677 -134 m 541 -134 l 541 -1 l 677 -1 l 677 -134 l 541 -134 m 541 -1 l 541 135 l 677 135 l 677 -1 l 541 -1 m 541 135 l 541 271 l 677 271 l 677 135 l 541 135 m 541 271 l 541 407 l 677 407 l 677 271 l 541 271 m 541 679 l 541 815 l 677 815 l 677 679 l 541 679 m 541 815 l 541 948 l 677 948 l 677 815 l 541 815 m 408 948 l 408 1084 l 541 1084 l 541 948 l 408 948 m 541 -134 l 541 -269 l 408 -269 l 408 -134 l 541 -134 m 408 -134 l 408 -1 l 541 -1 l 541 -134 l 408 -134 m 408 -1 l 408 135 l 541 135 l 541 -1 l 408 -1 m 408 135 l 408 271 l 541 271 l 541 135 l 408 135 m 408 271 l 408 407 l 541 407 l 541 271 l 408 271 m 408 407 l 408 543 l 541 543 l 541 407 l 408 407 m 408 815 l 408 948 l 541 948 l 541 815 l 408 815 m 272 948 l 272 1084 l 408 1084 l 408 948 l 272 948 m 408 -134 l 408 -269 l 272 -269 l 272 -134 l 408 -134 m 272 -134 l 272 -1 l 408 -1 l 408 -134 l 272 -134 m 136 948 l 136 1084 l 272 1084 l 272 948 l 136 948 m 272 -134 l 272 -269 l 136 -269 l 136 -134 l 272 -134 m 136 -134 l 136 -1 l 272 -1 l 272 -134 l 136 -134 m 0 948 l 0 1084 l 136 1084 l 136 948 l 0 948 m 0 -134 l 0 -1 l 136 -1 l 136 -134 l 0 -134 m 0 -1 l 0 135 l 136 135 l 136 -1 l 0 -1 m 0 135 l 0 271 l 136 271 l 136 135 l 0 135 m 0 271 l 0 407 l 136 407 l 136 271 l 0 271 m 0 407 l 0 543 l 136 543 l 136 407 l 0 407 m 0 543 l 0 679 l 136 679 l 136 543 l 0 543 m 0 679 l 0 815 l 136 815 l 136 679 l 0 679 m 0 815 l 0 948 l 136 948 l 136 815 l 0 815 z "},"N":{"ha":1221,"x_min":0,"x_max":1355,"o":"m 1355 -134 l 1355 -269 l 1221 -269 l 1221 -134 l 1355 -134 m 1221 -134 l 1221 -1 l 1355 -1 l 1355 -134 l 1221 -134 m 1221 -1 l 1221 135 l 1355 135 l 1355 -1 l 1221 -1 m 1221 135 l 1221 271 l 1355 271 l 1355 135 l 1221 135 m 1221 271 l 1221 407 l 1355 407 l 1355 271 l 1221 271 m 1221 407 l 1221 543 l 1355 543 l 1355 407 l 1221 407 m 1221 543 l 1221 679 l 1355 679 l 1355 543 l 1221 543 m 1221 679 l 1221 815 l 1355 815 l 1355 679 l 1221 679 m 1221 815 l 1221 948 l 1355 948 l 1355 815 l 1221 815 m 1086 948 l 1086 1084 l 1221 1084 l 1221 948 l 1086 948 m 1221 -134 l 1221 -269 l 1086 -269 l 1086 -134 l 1221 -134 m 1086 -134 l 1086 -1 l 1221 -1 l 1221 -134 l 1086 -134 m 1086 -1 l 1086 135 l 1221 135 l 1221 -1 l 1086 -1 m 1086 135 l 1086 271 l 1221 271 l 1221 135 l 1086 135 m 1086 271 l 1086 407 l 1221 407 l 1221 271 l 1086 271 m 1086 407 l 1086 543 l 1221 543 l 1221 407 l 1086 407 m 1086 543 l 1086 679 l 1221 679 l 1221 543 l 1086 543 m 1086 679 l 1086 815 l 1221 815 l 1221 679 l 1086 679 m 1086 815 l 1086 948 l 1221 948 l 1221 815 l 1086 815 m 949 948 l 949 1084 l 1086 1084 l 1086 948 l 949 948 m 1086 -134 l 1086 -269 l 949 -269 l 949 -134 l 1086 -134 m 949 -134 l 949 -1 l 1086 -1 l 1086 -134 l 949 -134 m 814 948 l 814 1084 l 949 1084 l 949 948 l 814 948 m 949 -134 l 949 -269 l 814 -269 l 814 -134 l 949 -134 m 814 -134 l 814 -1 l 949 -1 l 949 -134 l 814 -134 m 677 948 l 677 1084 l 814 1084 l 814 948 l 677 948 m 677 -134 l 677 -1 l 814 -1 l 814 -134 l 677 -134 m 677 -1 l 677 135 l 814 135 l 814 -1 l 677 -1 m 677 135 l 677 271 l 814 271 l 814 135 l 677 135 m 677 543 l 677 679 l 814 679 l 814 543 l 677 543 m 677 679 l 677 815 l 814 815 l 814 679 l 677 679 m 677 815 l 677 948 l 814 948 l 814 815 l 677 815 m 677 -134 l 677 -269 l 541 -269 l 541 -134 l 677 -134 m 541 -134 l 541 -1 l 677 -1 l 677 -134 l 541 -134 m 541 -1 l 541 135 l 677 135 l 677 -1 l 541 -1 m 541 135 l 541 271 l 677 271 l 677 135 l 541 135 m 541 271 l 541 407 l 677 407 l 677 271 l 541 271 m 541 679 l 541 815 l 677 815 l 677 679 l 541 679 m 541 815 l 541 948 l 677 948 l 677 815 l 541 815 m 408 948 l 408 1084 l 541 1084 l 541 948 l 408 948 m 541 -134 l 541 -269 l 408 -269 l 408 -134 l 541 -134 m 408 -134 l 408 -1 l 541 -1 l 541 -134 l 408 -134 m 408 -1 l 408 135 l 541 135 l 541 -1 l 408 -1 m 408 135 l 408 271 l 541 271 l 541 135 l 408 135 m 408 271 l 408 407 l 541 407 l 541 271 l 408 271 m 408 407 l 408 543 l 541 543 l 541 407 l 408 407 m 408 815 l 408 948 l 541 948 l 541 815 l 408 815 m 272 948 l 272 1084 l 408 1084 l 408 948 l 272 948 m 408 -134 l 408 -269 l 272 -269 l 272 -134 l 408 -134 m 272 -134 l 272 -1 l 408 -1 l 408 -134 l 272 -134 m 136 948 l 136 1084 l 272 1084 l 272 948 l 136 948 m 272 -134 l 272 -269 l 136 -269 l 136 -134 l 272 -134 m 136 -134 l 136 -1 l 272 -1 l 272 -134 l 136 -134 m 0 948 l 0 1084 l 136 1084 l 136 948 l 0 948 m 0 -134 l 0 -1 l 136 -1 l 136 -134 l 0 -134 m 0 -1 l 0 135 l 136 135 l 136 -1 l 0 -1 m 0 135 l 0 271 l 136 271 l 136 135 l 0 135 m 0 271 l 0 407 l 136 407 l 136 271 l 0 271 m 0 407 l 0 543 l 136 543 l 136 407 l 0 407 m 0 543 l 0 679 l 136 679 l 136 543 l 0 543 m 0 679 l 0 815 l 136 815 l 136 679 l 0 679 m 0 815 l 0 948 l 136 948 l 136 815 l 0 815 z "},"O":{"ha":1221,"x_min":0,"x_max":1355,"o":"m 1221 -134 l 1221 -1 l 1355 -1 l 1355 -134 l 1221 -134 m 1221 -1 l 1221 135 l 1355 135 l 1355 -1 l 1221 -1 m 1221 135 l 1221 271 l 1355 271 l 1355 135 l 1221 135 m 1221 271 l 1221 407 l 1355 407 l 1355 271 l 1221 271 m 1221 407 l 1221 543 l 1355 543 l 1355 407 l 1221 407 m 1221 543 l 1221 679 l 1355 679 l 1355 543 l 1221 543 m 1221 679 l 1221 815 l 1355 815 l 1355 679 l 1221 679 m 1221 -134 l 1221 -269 l 1086 -269 l 1086 -134 l 1221 -134 m 1086 -134 l 1086 -1 l 1221 -1 l 1221 -134 l 1086 -134 m 1086 -1 l 1086 135 l 1221 135 l 1221 -1 l 1086 -1 m 1086 135 l 1086 271 l 1221 271 l 1221 135 l 1086 135 m 1086 271 l 1086 407 l 1221 407 l 1221 271 l 1086 271 m 1086 407 l 1086 543 l 1221 543 l 1221 407 l 1086 407 m 1086 543 l 1086 679 l 1221 679 l 1221 543 l 1086 543 m 1086 679 l 1086 815 l 1221 815 l 1221 679 l 1086 679 m 1086 815 l 1086 948 l 1221 948 l 1221 815 l 1086 815 m 949 948 l 949 1084 l 1086 1084 l 1086 948 l 949 948 m 1086 -134 l 1086 -269 l 949 -269 l 949 -134 l 1086 -134 m 949 -134 l 949 -1 l 1086 -1 l 1086 -134 l 949 -134 m 949 -1 l 949 135 l 1086 135 l 1086 -1 l 949 -1 m 949 815 l 949 948 l 1086 948 l 1086 815 l 949 815 m 814 948 l 814 1084 l 949 1084 l 949 948 l 814 948 m 949 -134 l 949 -269 l 814 -269 l 814 -134 l 949 -134 m 814 -134 l 814 -1 l 949 -1 l 949 -134 l 814 -134 m 677 948 l 677 1084 l 814 1084 l 814 948 l 677 948 m 814 -134 l 814 -269 l 677 -269 l 677 -134 l 814 -134 m 677 -134 l 677 -1 l 814 -1 l 814 -134 l 677 -134 m 677 135 l 677 271 l 814 271 l 814 135 l 677 135 m 677 271 l 677 407 l 814 407 l 814 271 l 677 271 m 677 407 l 677 543 l 814 543 l 814 407 l 677 407 m 677 543 l 677 679 l 814 679 l 814 543 l 677 543 m 677 679 l 677 815 l 814 815 l 814 679 l 677 679 m 541 948 l 541 1084 l 677 1084 l 677 948 l 541 948 m 677 -134 l 677 -269 l 541 -269 l 541 -134 l 677 -134 m 541 -134 l 541 -1 l 677 -1 l 677 -134 l 541 -134 m 541 135 l 541 271 l 677 271 l 677 135 l 541 135 m 541 271 l 541 407 l 677 407 l 677 271 l 541 271 m 541 407 l 541 543 l 677 543 l 677 407 l 541 407 m 541 543 l 541 679 l 677 679 l 677 543 l 541 543 m 541 679 l 541 815 l 677 815 l 677 679 l 541 679 m 408 948 l 408 1084 l 541 1084 l 541 948 l 408 948 m 541 -134 l 541 -269 l 408 -269 l 408 -134 l 541 -134 m 408 -134 l 408 -1 l 541 -1 l 541 -134 l 408 -134 m 408 135 l 408 271 l 541 271 l 541 135 l 408 135 m 408 271 l 408 407 l 541 407 l 541 271 l 408 271 m 408 407 l 408 543 l 541 543 l 541 407 l 408 407 m 408 543 l 408 679 l 541 679 l 541 543 l 408 543 m 408 679 l 408 815 l 541 815 l 541 679 l 408 679 m 272 948 l 272 1084 l 408 1084 l 408 948 l 272 948 m 408 -134 l 408 -269 l 272 -269 l 272 -134 l 408 -134 m 272 -134 l 272 -1 l 408 -1 l 408 -134 l 272 -134 m 136 948 l 136 1084 l 272 1084 l 272 948 l 136 948 m 136 -134 l 136 -1 l 272 -1 l 272 -134 l 136 -134 m 136 -1 l 136 135 l 272 135 l 272 -1 l 136 -1 m 136 815 l 136 948 l 272 948 l 272 815 l 136 815 m 0 -1 l 0 135 l 136 135 l 136 -1 l 0 -1 m 0 135 l 0 271 l 136 271 l 136 135 l 0 135 m 0 271 l 0 407 l 136 407 l 136 271 l 0 271 m 0 407 l 0 543 l 136 543 l 136 407 l 0 407 m 0 543 l 0 679 l 136 679 l 136 543 l 0 543 m 0 679 l 0 815 l 136 815 l 136 679 l 0 679 m 0 815 l 0 948 l 136 948 l 136 815 l 0 815 z "},"P":{"ha":1221,"x_min":0,"x_max":1355,"o":"m 1221 135 l 1221 271 l 1355 271 l 1355 135 l 1221 135 m 1221 271 l 1221 407 l 1355 407 l 1355 271 l 1221 271 m 1221 407 l 1221 543 l 1355 543 l 1355 407 l 1221 407 m 1221 543 l 1221 679 l 1355 679 l 1355 543 l 1221 543 m 1221 679 l 1221 815 l 1355 815 l 1355 679 l 1221 679 m 1086 -1 l 1086 135 l 1221 135 l 1221 -1 l 1086 -1 m 1086 135 l 1086 271 l 1221 271 l 1221 135 l 1086 135 m 1086 271 l 1086 407 l 1221 407 l 1221 271 l 1086 271 m 1086 407 l 1086 543 l 1221 543 l 1221 407 l 1086 407 m 1086 543 l 1086 679 l 1221 679 l 1221 543 l 1086 543 m 1086 679 l 1086 815 l 1221 815 l 1221 679 l 1086 679 m 1086 815 l 1086 948 l 1221 948 l 1221 815 l 1086 815 m 949 948 l 949 1084 l 1086 1084 l 1086 948 l 949 948 m 949 -1 l 949 135 l 1086 135 l 1086 -1 l 949 -1 m 949 135 l 949 271 l 1086 271 l 1086 135 l 949 135 m 949 271 l 949 407 l 1086 407 l 1086 271 l 949 271 m 949 815 l 949 948 l 1086 948 l 1086 815 l 949 815 m 814 948 l 814 1084 l 949 1084 l 949 948 l 814 948 m 814 -1 l 814 135 l 949 135 l 949 -1 l 814 -1 m 814 135 l 814 271 l 949 271 l 949 135 l 814 135 m 677 948 l 677 1084 l 814 1084 l 814 948 l 677 948 m 677 -1 l 677 135 l 814 135 l 814 -1 l 677 -1 m 677 135 l 677 271 l 814 271 l 814 135 l 677 135 m 677 407 l 677 543 l 814 543 l 814 407 l 677 407 m 677 543 l 677 679 l 814 679 l 814 543 l 677 543 m 677 679 l 677 815 l 814 815 l 814 679 l 677 679 m 541 948 l 541 1084 l 677 1084 l 677 948 l 541 948 m 677 -134 l 677 -269 l 541 -269 l 541 -134 l 677 -134 m 541 -134 l 541 -1 l 677 -1 l 677 -134 l 541 -134 m 541 -1 l 541 135 l 677 135 l 677 -1 l 541 -1 m 541 135 l 541 271 l 677 271 l 677 135 l 541 135 m 541 407 l 541 543 l 677 543 l 677 407 l 541 407 m 541 543 l 541 679 l 677 679 l 677 543 l 541 543 m 541 679 l 541 815 l 677 815 l 677 679 l 541 679 m 408 948 l 408 1084 l 541 1084 l 541 948 l 408 948 m 541 -134 l 541 -269 l 408 -269 l 408 -134 l 541 -134 m 408 -134 l 408 -1 l 541 -1 l 541 -134 l 408 -134 m 408 -1 l 408 135 l 541 135 l 541 -1 l 408 -1 m 408 135 l 408 271 l 541 271 l 541 135 l 408 135 m 408 407 l 408 543 l 541 543 l 541 407 l 408 407 m 408 543 l 408 679 l 541 679 l 541 543 l 408 543 m 408 679 l 408 815 l 541 815 l 541 679 l 408 679 m 272 948 l 272 1084 l 408 1084 l 408 948 l 272 948 m 408 -134 l 408 -269 l 272 -269 l 272 -134 l 408 -134 m 272 -134 l 272 -1 l 408 -1 l 408 -134 l 272 -134 m 136 948 l 136 1084 l 272 1084 l 272 948 l 136 948 m 272 -134 l 272 -269 l 136 -269 l 136 -134 l 272 -134 m 136 -134 l 136 -1 l 272 -1 l 272 -134 l 136 -134 m 0 948 l 0 1084 l 136 1084 l 136 948 l 0 948 m 0 -134 l 0 -1 l 136 -1 l 136 -134 l 0 -134 m 0 -1 l 0 135 l 136 135 l 136 -1 l 0 -1 m 0 135 l 0 271 l 136 271 l 136 135 l 0 135 m 0 271 l 0 407 l 136 407 l 136 271 l 0 271 m 0 407 l 0 543 l 136 543 l 136 407 l 0 407 m 0 543 l 0 679 l 136 679 l 136 543 l 0 543 m 0 679 l 0 815 l 136 815 l 136 679 l 0 679 m 0 815 l 0 948 l 136 948 l 136 815 l 0 815 z "},"Q":{"ha":1221,"x_min":0,"x_max":1355,"o":"m 1355 -134 l 1355 -269 l 1221 -269 l 1221 -134 l 1355 -134 m 1221 -134 l 1221 -1 l 1355 -1 l 1355 -134 l 1221 -134 m 1221 -1 l 1221 135 l 1355 135 l 1355 -1 l 1221 -1 m 1221 135 l 1221 271 l 1355 271 l 1355 135 l 1221 135 m 1221 271 l 1221 407 l 1355 407 l 1355 271 l 1221 271 m 1221 407 l 1221 543 l 1355 543 l 1355 407 l 1221 407 m 1221 543 l 1221 679 l 1355 679 l 1355 543 l 1221 543 m 1221 679 l 1221 815 l 1355 815 l 1355 679 l 1221 679 m 1221 -134 l 1221 -269 l 1086 -269 l 1086 -134 l 1221 -134 m 1086 -134 l 1086 -1 l 1221 -1 l 1221 -134 l 1086 -134 m 1086 -1 l 1086 135 l 1221 135 l 1221 -1 l 1086 -1 m 1086 135 l 1086 271 l 1221 271 l 1221 135 l 1086 135 m 1086 271 l 1086 407 l 1221 407 l 1221 271 l 1086 271 m 1086 407 l 1086 543 l 1221 543 l 1221 407 l 1086 407 m 1086 543 l 1086 679 l 1221 679 l 1221 543 l 1086 543 m 1086 679 l 1086 815 l 1221 815 l 1221 679 l 1086 679 m 1086 815 l 1086 948 l 1221 948 l 1221 815 l 1086 815 m 949 948 l 949 1084 l 1086 1084 l 1086 948 l 949 948 m 1086 -134 l 1086 -269 l 949 -269 l 949 -134 l 1086 -134 m 949 -134 l 949 -1 l 1086 -1 l 1086 -134 l 949 -134 m 949 135 l 949 271 l 1086 271 l 1086 135 l 949 135 m 949 815 l 949 948 l 1086 948 l 1086 815 l 949 815 m 814 948 l 814 1084 l 949 1084 l 949 948 l 814 948 m 949 -134 l 949 -269 l 814 -269 l 814 -134 l 949 -134 m 814 -134 l 814 -1 l 949 -1 l 949 -134 l 814 -134 m 677 948 l 677 1084 l 814 1084 l 814 948 l 677 948 m 814 -134 l 814 -269 l 677 -269 l 677 -134 l 814 -134 m 677 -134 l 677 -1 l 814 -1 l 814 -134 l 677 -134 m 677 271 l 677 407 l 814 407 l 814 271 l 677 271 m 677 407 l 677 543 l 814 543 l 814 407 l 677 407 m 677 543 l 677 679 l 814 679 l 814 543 l 677 543 m 677 679 l 677 815 l 814 815 l 814 679 l 677 679 m 541 948 l 541 1084 l 677 1084 l 677 948 l 541 948 m 677 -134 l 677 -269 l 541 -269 l 541 -134 l 677 -134 m 541 -134 l 541 -1 l 677 -1 l 677 -134 l 541 -134 m 541 135 l 541 271 l 677 271 l 677 135 l 541 135 m 541 271 l 541 407 l 677 407 l 677 271 l 541 271 m 541 407 l 541 543 l 677 543 l 677 407 l 541 407 m 541 543 l 541 679 l 677 679 l 677 543 l 541 543 m 541 679 l 541 815 l 677 815 l 677 679 l 541 679 m 408 948 l 408 1084 l 541 1084 l 541 948 l 408 948 m 541 -134 l 541 -269 l 408 -269 l 408 -134 l 541 -134 m 408 -134 l 408 -1 l 541 -1 l 541 -134 l 408 -134 m 408 135 l 408 271 l 541 271 l 541 135 l 408 135 m 408 271 l 408 407 l 541 407 l 541 271 l 408 271 m 408 407 l 408 543 l 541 543 l 541 407 l 408 407 m 408 543 l 408 679 l 541 679 l 541 543 l 408 543 m 408 679 l 408 815 l 541 815 l 541 679 l 408 679 m 272 948 l 272 1084 l 408 1084 l 408 948 l 272 948 m 408 -134 l 408 -269 l 272 -269 l 272 -134 l 408 -134 m 272 -134 l 272 -1 l 408 -1 l 408 -134 l 272 -134 m 136 948 l 136 1084 l 272 1084 l 272 948 l 136 948 m 136 -134 l 136 -1 l 272 -1 l 272 -134 l 136 -134 m 136 -1 l 136 135 l 272 135 l 272 -1 l 136 -1 m 136 815 l 136 948 l 272 948 l 272 815 l 136 815 m 0 -1 l 0 135 l 136 135 l 136 -1 l 0 -1 m 0 135 l 0 271 l 136 271 l 136 135 l 0 135 m 0 271 l 0 407 l 136 407 l 136 271 l 0 271 m 0 407 l 0 543 l 136 543 l 136 407 l 0 407 m 0 543 l 0 679 l 136 679 l 136 543 l 0 543 m 0 679 l 0 815 l 136 815 l 136 679 l 0 679 m 0 815 l 0 948 l 136 948 l 136 815 l 0 815 z "},"R":{"ha":1221,"x_min":0,"x_max":1355,"o":"m 1355 -134 l 1355 -269 l 1221 -269 l 1221 -134 l 1355 -134 m 1221 -134 l 1221 -1 l 1355 -1 l 1355 -134 l 1221 -134 m 1221 -1 l 1221 135 l 1355 135 l 1355 -1 l 1221 -1 m 1221 135 l 1221 271 l 1355 271 l 1355 135 l 1221 135 m 1221 271 l 1221 407 l 1355 407 l 1355 271 l 1221 271 m 1221 407 l 1221 543 l 1355 543 l 1355 407 l 1221 407 m 1221 543 l 1221 679 l 1355 679 l 1355 543 l 1221 543 m 1221 679 l 1221 815 l 1355 815 l 1355 679 l 1221 679 m 1221 -134 l 1221 -269 l 1086 -269 l 1086 -134 l 1221 -134 m 1086 -134 l 1086 -1 l 1221 -1 l 1221 -134 l 1086 -134 m 1086 -1 l 1086 135 l 1221 135 l 1221 -1 l 1086 -1 m 1086 135 l 1086 271 l 1221 271 l 1221 135 l 1086 135 m 1086 271 l 1086 407 l 1221 407 l 1221 271 l 1086 271 m 1086 407 l 1086 543 l 1221 543 l 1221 407 l 1086 407 m 1086 543 l 1086 679 l 1221 679 l 1221 543 l 1086 543 m 1086 679 l 1086 815 l 1221 815 l 1221 679 l 1086 679 m 1086 815 l 1086 948 l 1221 948 l 1221 815 l 1086 815 m 949 948 l 949 1084 l 1086 1084 l 1086 948 l 949 948 m 1086 -134 l 1086 -269 l 949 -269 l 949 -134 l 1086 -134 m 949 -134 l 949 -1 l 1086 -1 l 1086 -134 l 949 -134 m 949 407 l 949 543 l 1086 543 l 1086 407 l 949 407 m 949 815 l 949 948 l 1086 948 l 1086 815 l 949 815 m 814 948 l 814 1084 l 949 1084 l 949 948 l 814 948 m 949 -134 l 949 -269 l 814 -269 l 814 -134 l 949 -134 m 814 -134 l 814 -1 l 949 -1 l 949 -134 l 814 -134 m 677 948 l 677 1084 l 814 1084 l 814 948 l 677 948 m 677 -134 l 677 -1 l 814 -1 l 814 -134 l 677 -134 m 677 -1 l 677 135 l 814 135 l 814 -1 l 677 -1 m 677 135 l 677 271 l 814 271 l 814 135 l 677 135 m 677 271 l 677 407 l 814 407 l 814 271 l 677 271 m 677 543 l 677 679 l 814 679 l 814 543 l 677 543 m 677 679 l 677 815 l 814 815 l 814 679 l 677 679 m 541 948 l 541 1084 l 677 1084 l 677 948 l 541 948 m 677 -134 l 677 -269 l 541 -269 l 541 -134 l 677 -134 m 541 -134 l 541 -1 l 677 -1 l 677 -134 l 541 -134 m 541 -1 l 541 135 l 677 135 l 677 -1 l 541 -1 m 541 135 l 541 271 l 677 271 l 677 135 l 541 135 m 541 271 l 541 407 l 677 407 l 677 271 l 541 271 m 541 543 l 541 679 l 677 679 l 677 543 l 541 543 m 541 679 l 541 815 l 677 815 l 677 679 l 541 679 m 408 948 l 408 1084 l 541 1084 l 541 948 l 408 948 m 541 -134 l 541 -269 l 408 -269 l 408 -134 l 541 -134 m 408 -134 l 408 -1 l 541 -1 l 541 -134 l 408 -134 m 408 -1 l 408 135 l 541 135 l 541 -1 l 408 -1 m 408 135 l 408 271 l 541 271 l 541 135 l 408 135 m 408 271 l 408 407 l 541 407 l 541 271 l 408 271 m 408 543 l 408 679 l 541 679 l 541 543 l 408 543 m 408 679 l 408 815 l 541 815 l 541 679 l 408 679 m 272 948 l 272 1084 l 408 1084 l 408 948 l 272 948 m 408 -134 l 408 -269 l 272 -269 l 272 -134 l 408 -134 m 272 -134 l 272 -1 l 408 -1 l 408 -134 l 272 -134 m 136 948 l 136 1084 l 272 1084 l 272 948 l 136 948 m 272 -134 l 272 -269 l 136 -269 l 136 -134 l 272 -134 m 136 -134 l 136 -1 l 272 -1 l 272 -134 l 136 -134 m 0 948 l 0 1084 l 136 1084 l 136 948 l 0 948 m 0 -134 l 0 -1 l 136 -1 l 136 -134 l 0 -134 m 0 -1 l 0 135 l 136 135 l 136 -1 l 0 -1 m 0 135 l 0 271 l 136 271 l 136 135 l 0 135 m 0 271 l 0 407 l 136 407 l 136 271 l 0 271 m 0 407 l 0 543 l 136 543 l 136 407 l 0 407 m 0 543 l 0 679 l 136 679 l 136 543 l 0 543 m 0 679 l 0 815 l 136 815 l 136 679 l 0 679 m 0 815 l 0 948 l 136 948 l 136 815 l 0 815 z "},"S":{"ha":1221,"x_min":0,"x_max":1355,"o":"m 1221 -134 l 1221 -1 l 1355 -1 l 1355 -134 l 1221 -134 m 1221 -1 l 1221 135 l 1355 135 l 1355 -1 l 1221 -1 m 1221 135 l 1221 271 l 1355 271 l 1355 135 l 1221 135 m 1221 271 l 1221 407 l 1355 407 l 1355 271 l 1221 271 m 1221 407 l 1221 543 l 1355 543 l 1355 407 l 1221 407 m 1221 543 l 1221 679 l 1355 679 l 1355 543 l 1221 543 m 1221 679 l 1221 815 l 1355 815 l 1355 679 l 1221 679 m 1221 -134 l 1221 -269 l 1086 -269 l 1086 -134 l 1221 -134 m 1086 -134 l 1086 -1 l 1221 -1 l 1221 -134 l 1086 -134 m 1086 -1 l 1086 135 l 1221 135 l 1221 -1 l 1086 -1 m 1086 135 l 1086 271 l 1221 271 l 1221 135 l 1086 135 m 1086 271 l 1086 407 l 1221 407 l 1221 271 l 1086 271 m 1086 407 l 1086 543 l 1221 543 l 1221 407 l 1086 407 m 1086 543 l 1086 679 l 1221 679 l 1221 543 l 1086 543 m 1086 679 l 1086 815 l 1221 815 l 1221 679 l 1086 679 m 1086 815 l 1086 948 l 1221 948 l 1221 815 l 1086 815 m 949 948 l 949 1084 l 1086 1084 l 1086 948 l 949 948 m 1086 -134 l 1086 -269 l 949 -269 l 949 -134 l 1086 -134 m 949 -134 l 949 -1 l 1086 -1 l 1086 -134 l 949 -134 m 949 -1 l 949 135 l 1086 135 l 1086 -1 l 949 -1 m 949 407 l 949 543 l 1086 543 l 1086 407 l 949 407 m 949 543 l 949 679 l 1086 679 l 1086 543 l 949 543 m 949 815 l 949 948 l 1086 948 l 1086 815 l 949 815 m 814 948 l 814 1084 l 949 1084 l 949 948 l 814 948 m 949 -134 l 949 -269 l 814 -269 l 814 -134 l 949 -134 m 814 -134 l 814 -1 l 949 -1 l 949 -134 l 814 -134 m 814 543 l 814 679 l 949 679 l 949 543 l 814 543 m 677 948 l 677 1084 l 814 1084 l 814 948 l 677 948 m 814 -134 l 814 -269 l 677 -269 l 677 -134 l 814 -134 m 677 -134 l 677 -1 l 814 -1 l 814 -134 l 677 -134 m 677 135 l 677 271 l 814 271 l 814 135 l 677 135 m 677 271 l 677 407 l 814 407 l 814 271 l 677 271 m 677 543 l 677 679 l 814 679 l 814 543 l 677 543 m 677 679 l 677 815 l 814 815 l 814 679 l 677 679 m 541 948 l 541 1084 l 677 1084 l 677 948 l 541 948 m 677 -134 l 677 -269 l 541 -269 l 541 -134 l 677 -134 m 541 -134 l 541 -1 l 677 -1 l 677 -134 l 541 -134 m 541 135 l 541 271 l 677 271 l 677 135 l 541 135 m 541 271 l 541 407 l 677 407 l 677 271 l 541 271 m 541 543 l 541 679 l 677 679 l 677 543 l 541 543 m 541 679 l 541 815 l 677 815 l 677 679 l 541 679 m 408 948 l 408 1084 l 541 1084 l 541 948 l 408 948 m 541 -134 l 541 -269 l 408 -269 l 408 -134 l 541 -134 m 408 -134 l 408 -1 l 541 -1 l 541 -134 l 408 -134 m 408 135 l 408 271 l 541 271 l 541 135 l 408 135 m 408 271 l 408 407 l 541 407 l 541 271 l 408 271 m 408 543 l 408 679 l 541 679 l 541 543 l 408 543 m 408 679 l 408 815 l 541 815 l 541 679 l 408 679 m 272 948 l 272 1084 l 408 1084 l 408 948 l 272 948 m 408 -134 l 408 -269 l 272 -269 l 272 -134 l 408 -134 m 272 -134 l 272 -1 l 408 -1 l 408 -134 l 272 -134 m 272 271 l 272 407 l 408 407 l 408 271 l 272 271 m 136 948 l 136 1084 l 272 1084 l 272 948 l 136 948 m 136 -134 l 136 -1 l 272 -1 l 272 -134 l 136 -134 m 136 -1 l 136 135 l 272 135 l 272 -1 l 136 -1 m 136 271 l 136 407 l 272 407 l 272 271 l 136 271 m 136 407 l 136 543 l 272 543 l 272 407 l 136 407 m 136 815 l 136 948 l 272 948 l 272 815 l 136 815 m 0 -1 l 0 135 l 136 135 l 136 -1 l 0 -1 m 0 135 l 0 271 l 136 271 l 136 135 l 0 135 m 0 271 l 0 407 l 136 407 l 136 271 l 0 271 m 0 407 l 0 543 l 136 543 l 136 407 l 0 407 m 0 543 l 0 679 l 136 679 l 136 543 l 0 543 m 0 679 l 0 815 l 136 815 l 136 679 l 0 679 m 0 815 l 0 948 l 136 948 l 136 815 l 0 815 z "},"T":{"ha":1086,"x_min":0,"x_max":1221,"o":"m 1086 543 l 1086 679 l 1221 679 l 1221 543 l 1086 543 m 1086 679 l 1086 815 l 1221 815 l 1221 679 l 1086 679 m 1086 815 l 1086 948 l 1221 948 l 1221 815 l 1086 815 m 949 948 l 949 1084 l 1086 1084 l 1086 948 l 949 948 m 949 543 l 949 679 l 1086 679 l 1086 543 l 949 543 m 949 679 l 949 815 l 1086 815 l 1086 679 l 949 679 m 949 815 l 949 948 l 1086 948 l 1086 815 l 949 815 m 814 948 l 814 1084 l 949 1084 l 949 948 l 814 948 m 949 -134 l 949 -269 l 814 -269 l 814 -134 l 949 -134 m 814 -134 l 814 -1 l 949 -1 l 949 -134 l 814 -134 m 814 -1 l 814 135 l 949 135 l 949 -1 l 814 -1 m 814 135 l 814 271 l 949 271 l 949 135 l 814 135 m 814 271 l 814 407 l 949 407 l 949 271 l 814 271 m 814 407 l 814 543 l 949 543 l 949 407 l 814 407 m 814 543 l 814 679 l 949 679 l 949 543 l 814 543 m 814 679 l 814 815 l 949 815 l 949 679 l 814 679 m 677 948 l 677 1084 l 814 1084 l 814 948 l 677 948 m 814 -134 l 814 -269 l 677 -269 l 677 -134 l 814 -134 m 677 -134 l 677 -1 l 814 -1 l 814 -134 l 677 -134 m 677 -1 l 677 135 l 814 135 l 814 -1 l 677 -1 m 677 135 l 677 271 l 814 271 l 814 135 l 677 135 m 677 271 l 677 407 l 814 407 l 814 271 l 677 271 m 677 407 l 677 543 l 814 543 l 814 407 l 677 407 m 677 543 l 677 679 l 814 679 l 814 543 l 677 543 m 677 679 l 677 815 l 814 815 l 814 679 l 677 679 m 541 948 l 541 1084 l 677 1084 l 677 948 l 541 948 m 677 -134 l 677 -269 l 541 -269 l 541 -134 l 677 -134 m 541 -134 l 541 -1 l 677 -1 l 677 -134 l 541 -134 m 408 948 l 408 1084 l 541 1084 l 541 948 l 408 948 m 541 -134 l 541 -269 l 408 -269 l 408 -134 l 541 -134 m 408 -134 l 408 -1 l 541 -1 l 541 -134 l 408 -134 m 272 948 l 272 1084 l 408 1084 l 408 948 l 272 948 m 272 -134 l 272 -1 l 408 -1 l 408 -134 l 272 -134 m 272 -1 l 272 135 l 408 135 l 408 -1 l 272 -1 m 272 135 l 272 271 l 408 271 l 408 135 l 272 135 m 272 271 l 272 407 l 408 407 l 408 271 l 272 271 m 272 407 l 272 543 l 408 543 l 408 407 l 272 407 m 272 543 l 272 679 l 408 679 l 408 543 l 272 543 m 272 679 l 272 815 l 408 815 l 408 679 l 272 679 m 136 948 l 136 1084 l 272 1084 l 272 948 l 136 948 m 136 679 l 136 815 l 272 815 l 272 679 l 136 679 m 0 948 l 0 1084 l 136 1084 l 136 948 l 0 948 m 0 679 l 0 815 l 136 815 l 136 679 l 0 679 m 0 815 l 0 948 l 136 948 l 136 815 l 0 815 z "},"U":{"ha":1221,"x_min":0,"x_max":1355,"o":"m 1221 -134 l 1221 -1 l 1355 -1 l 1355 -134 l 1221 -134 m 1221 -1 l 1221 135 l 1355 135 l 1355 -1 l 1221 -1 m 1221 135 l 1221 271 l 1355 271 l 1355 135 l 1221 135 m 1221 271 l 1221 407 l 1355 407 l 1355 271 l 1221 271 m 1221 407 l 1221 543 l 1355 543 l 1355 407 l 1221 407 m 1221 543 l 1221 679 l 1355 679 l 1355 543 l 1221 543 m 1221 679 l 1221 815 l 1355 815 l 1355 679 l 1221 679 m 1221 815 l 1221 948 l 1355 948 l 1355 815 l 1221 815 m 1086 948 l 1086 1084 l 1221 1084 l 1221 948 l 1086 948 m 1221 -134 l 1221 -269 l 1086 -269 l 1086 -134 l 1221 -134 m 1086 -134 l 1086 -1 l 1221 -1 l 1221 -134 l 1086 -134 m 1086 -1 l 1086 135 l 1221 135 l 1221 -1 l 1086 -1 m 1086 135 l 1086 271 l 1221 271 l 1221 135 l 1086 135 m 1086 271 l 1086 407 l 1221 407 l 1221 271 l 1086 271 m 1086 407 l 1086 543 l 1221 543 l 1221 407 l 1086 407 m 1086 543 l 1086 679 l 1221 679 l 1221 543 l 1086 543 m 1086 679 l 1086 815 l 1221 815 l 1221 679 l 1086 679 m 1086 815 l 1086 948 l 1221 948 l 1221 815 l 1086 815 m 949 948 l 949 1084 l 1086 1084 l 1086 948 l 949 948 m 1086 -134 l 1086 -269 l 949 -269 l 949 -134 l 1086 -134 m 949 -134 l 949 -1 l 1086 -1 l 1086 -134 l 949 -134 m 949 -1 l 949 135 l 1086 135 l 1086 -1 l 949 -1 m 814 948 l 814 1084 l 949 1084 l 949 948 l 814 948 m 949 -134 l 949 -269 l 814 -269 l 814 -134 l 949 -134 m 814 -134 l 814 -1 l 949 -1 l 949 -134 l 814 -134 m 677 948 l 677 1084 l 814 1084 l 814 948 l 677 948 m 814 -134 l 814 -269 l 677 -269 l 677 -134 l 814 -134 m 677 -134 l 677 -1 l 814 -1 l 814 -134 l 677 -134 m 677 135 l 677 271 l 814 271 l 814 135 l 677 135 m 677 271 l 677 407 l 814 407 l 814 271 l 677 271 m 677 407 l 677 543 l 814 543 l 814 407 l 677 407 m 677 543 l 677 679 l 814 679 l 814 543 l 677 543 m 677 679 l 677 815 l 814 815 l 814 679 l 677 679 m 677 815 l 677 948 l 814 948 l 814 815 l 677 815 m 677 -134 l 677 -269 l 541 -269 l 541 -134 l 677 -134 m 541 -134 l 541 -1 l 677 -1 l 677 -134 l 541 -134 m 541 135 l 541 271 l 677 271 l 677 135 l 541 135 m 541 271 l 541 407 l 677 407 l 677 271 l 541 271 m 541 407 l 541 543 l 677 543 l 677 407 l 541 407 m 541 543 l 541 679 l 677 679 l 677 543 l 541 543 m 541 679 l 541 815 l 677 815 l 677 679 l 541 679 m 541 815 l 541 948 l 677 948 l 677 815 l 541 815 m 408 948 l 408 1084 l 541 1084 l 541 948 l 408 948 m 541 -134 l 541 -269 l 408 -269 l 408 -134 l 541 -134 m 408 -134 l 408 -1 l 541 -1 l 541 -134 l 408 -134 m 408 135 l 408 271 l 541 271 l 541 135 l 408 135 m 408 271 l 408 407 l 541 407 l 541 271 l 408 271 m 408 407 l 408 543 l 541 543 l 541 407 l 408 407 m 408 543 l 408 679 l 541 679 l 541 543 l 408 543 m 408 679 l 408 815 l 541 815 l 541 679 l 408 679 m 408 815 l 408 948 l 541 948 l 541 815 l 408 815 m 272 948 l 272 1084 l 408 1084 l 408 948 l 272 948 m 408 -134 l 408 -269 l 272 -269 l 272 -134 l 408 -134 m 272 -134 l 272 -1 l 408 -1 l 408 -134 l 272 -134 m 136 948 l 136 1084 l 272 1084 l 272 948 l 136 948 m 136 -134 l 136 -1 l 272 -1 l 272 -134 l 136 -134 m 136 -1 l 136 135 l 272 135 l 272 -1 l 136 -1 m 0 948 l 0 1084 l 136 1084 l 136 948 l 0 948 m 0 -1 l 0 135 l 136 135 l 136 -1 l 0 -1 m 0 135 l 0 271 l 136 271 l 136 135 l 0 135 m 0 271 l 0 407 l 136 407 l 136 271 l 0 271 m 0 407 l 0 543 l 136 543 l 136 407 l 0 407 m 0 543 l 0 679 l 136 679 l 136 543 l 0 543 m 0 679 l 0 815 l 136 815 l 136 679 l 0 679 m 0 815 l 0 948 l 136 948 l 136 815 l 0 815 z "},"V":{"ha":1221,"x_min":0,"x_max":1355,"o":"m 1221 135 l 1221 271 l 1355 271 l 1355 135 l 1221 135 m 1221 271 l 1221 407 l 1355 407 l 1355 271 l 1221 271 m 1221 407 l 1221 543 l 1355 543 l 1355 407 l 1221 407 m 1221 543 l 1221 679 l 1355 679 l 1355 543 l 1221 543 m 1221 679 l 1221 815 l 1355 815 l 1355 679 l 1221 679 m 1221 815 l 1221 948 l 1355 948 l 1355 815 l 1221 815 m 1086 948 l 1086 1084 l 1221 1084 l 1221 948 l 1086 948 m 1086 -1 l 1086 135 l 1221 135 l 1221 -1 l 1086 -1 m 1086 135 l 1086 271 l 1221 271 l 1221 135 l 1086 135 m 1086 271 l 1086 407 l 1221 407 l 1221 271 l 1086 271 m 1086 407 l 1086 543 l 1221 543 l 1221 407 l 1086 407 m 1086 543 l 1086 679 l 1221 679 l 1221 543 l 1086 543 m 1086 679 l 1086 815 l 1221 815 l 1221 679 l 1086 679 m 1086 815 l 1086 948 l 1221 948 l 1221 815 l 1086 815 m 949 948 l 949 1084 l 1086 1084 l 1086 948 l 949 948 m 949 -134 l 949 -1 l 1086 -1 l 1086 -134 l 949 -134 m 949 -1 l 949 135 l 1086 135 l 1086 -1 l 949 -1 m 949 135 l 949 271 l 1086 271 l 1086 135 l 949 135 m 949 271 l 949 407 l 1086 407 l 1086 271 l 949 271 m 814 948 l 814 1084 l 949 1084 l 949 948 l 814 948 m 949 -134 l 949 -269 l 814 -269 l 814 -134 l 949 -134 m 814 -134 l 814 -1 l 949 -1 l 949 -134 l 814 -134 m 814 -1 l 814 135 l 949 135 l 949 -1 l 814 -1 m 814 135 l 814 271 l 949 271 l 949 135 l 814 135 m 677 948 l 677 1084 l 814 1084 l 814 948 l 677 948 m 814 -134 l 814 -269 l 677 -269 l 677 -134 l 814 -134 m 677 -134 l 677 -1 l 814 -1 l 814 -134 l 677 -134 m 677 -1 l 677 135 l 814 135 l 814 -1 l 677 -1 m 677 407 l 677 543 l 814 543 l 814 407 l 677 407 m 677 543 l 677 679 l 814 679 l 814 543 l 677 543 m 677 679 l 677 815 l 814 815 l 814 679 l 677 679 m 677 815 l 677 948 l 814 948 l 814 815 l 677 815 m 677 -134 l 677 -269 l 541 -269 l 541 -134 l 677 -134 m 541 -134 l 541 -1 l 677 -1 l 677 -134 l 541 -134 m 541 271 l 541 407 l 677 407 l 677 271 l 541 271 m 541 407 l 541 543 l 677 543 l 677 407 l 541 407 m 541 543 l 541 679 l 677 679 l 677 543 l 541 543 m 541 679 l 541 815 l 677 815 l 677 679 l 541 679 m 541 815 l 541 948 l 677 948 l 677 815 l 541 815 m 408 948 l 408 1084 l 541 1084 l 541 948 l 408 948 m 408 -134 l 408 -1 l 541 -1 l 541 -134 l 408 -134 m 408 -1 l 408 135 l 541 135 l 541 -1 l 408 -1 m 408 407 l 408 543 l 541 543 l 541 407 l 408 407 m 408 543 l 408 679 l 541 679 l 541 543 l 408 543 m 408 679 l 408 815 l 541 815 l 541 679 l 408 679 m 408 815 l 408 948 l 541 948 l 541 815 l 408 815 m 272 948 l 272 1084 l 408 1084 l 408 948 l 272 948 m 272 -1 l 272 135 l 408 135 l 408 -1 l 272 -1 m 272 135 l 272 271 l 408 271 l 408 135 l 272 135 m 136 948 l 136 1084 l 272 1084 l 272 948 l 136 948 m 136 135 l 136 271 l 272 271 l 272 135 l 136 135 m 136 271 l 136 407 l 272 407 l 272 271 l 136 271 m 0 948 l 0 1084 l 136 1084 l 136 948 l 0 948 m 0 271 l 0 407 l 136 407 l 136 271 l 0 271 m 0 407 l 0 543 l 136 543 l 136 407 l 0 407 m 0 543 l 0 679 l 136 679 l 136 543 l 0 543 m 0 679 l 0 815 l 136 815 l 136 679 l 0 679 m 0 815 l 0 948 l 136 948 l 136 815 l 0 815 z "},"W":{"ha":1221,"x_min":0,"x_max":1355,"o":"m 1355 -134 l 1355 -269 l 1221 -269 l 1221 -134 l 1355 -134 m 1221 -134 l 1221 -1 l 1355 -1 l 1355 -134 l 1221 -134 m 1221 -1 l 1221 135 l 1355 135 l 1355 -1 l 1221 -1 m 1221 135 l 1221 271 l 1355 271 l 1355 135 l 1221 135 m 1221 271 l 1221 407 l 1355 407 l 1355 271 l 1221 271 m 1221 407 l 1221 543 l 1355 543 l 1355 407 l 1221 407 m 1221 543 l 1221 679 l 1355 679 l 1355 543 l 1221 543 m 1221 679 l 1221 815 l 1355 815 l 1355 679 l 1221 679 m 1221 815 l 1221 948 l 1355 948 l 1355 815 l 1221 815 m 1086 948 l 1086 1084 l 1221 1084 l 1221 948 l 1086 948 m 1221 -134 l 1221 -269 l 1086 -269 l 1086 -134 l 1221 -134 m 1086 -134 l 1086 -1 l 1221 -1 l 1221 -134 l 1086 -134 m 1086 -1 l 1086 135 l 1221 135 l 1221 -1 l 1086 -1 m 1086 135 l 1086 271 l 1221 271 l 1221 135 l 1086 135 m 1086 271 l 1086 407 l 1221 407 l 1221 271 l 1086 271 m 1086 407 l 1086 543 l 1221 543 l 1221 407 l 1086 407 m 1086 543 l 1086 679 l 1221 679 l 1221 543 l 1086 543 m 1086 679 l 1086 815 l 1221 815 l 1221 679 l 1086 679 m 1086 815 l 1086 948 l 1221 948 l 1221 815 l 1086 815 m 949 948 l 949 1084 l 1086 1084 l 1086 948 l 949 948 m 1086 -134 l 1086 -269 l 949 -269 l 949 -134 l 1086 -134 m 949 -134 l 949 -1 l 1086 -1 l 1086 -134 l 949 -134 m 814 948 l 814 1084 l 949 1084 l 949 948 l 814 948 m 949 -134 l 949 -269 l 814 -269 l 814 -134 l 949 -134 m 814 -134 l 814 -1 l 949 -1 l 949 -134 l 814 -134 m 677 948 l 677 1084 l 814 1084 l 814 948 l 677 948 m 677 -134 l 677 -1 l 814 -1 l 814 -134 l 677 -134 m 677 -1 l 677 135 l 814 135 l 814 -1 l 677 -1 m 677 407 l 677 543 l 814 543 l 814 407 l 677 407 m 677 543 l 677 679 l 814 679 l 814 543 l 677 543 m 677 679 l 677 815 l 814 815 l 814 679 l 677 679 m 677 815 l 677 948 l 814 948 l 814 815 l 677 815 m 677 -134 l 677 -269 l 541 -269 l 541 -134 l 677 -134 m 541 -134 l 541 -1 l 677 -1 l 677 -134 l 541 -134 m 541 -1 l 541 135 l 677 135 l 677 -1 l 541 -1 m 541 135 l 541 271 l 677 271 l 677 135 l 541 135 m 541 543 l 541 679 l 677 679 l 677 543 l 541 543 m 541 679 l 541 815 l 677 815 l 677 679 l 541 679 m 541 815 l 541 948 l 677 948 l 677 815 l 541 815 m 408 948 l 408 1084 l 541 1084 l 541 948 l 408 948 m 541 -134 l 541 -269 l 408 -269 l 408 -134 l 541 -134 m 408 -134 l 408 -1 l 541 -1 l 541 -134 l 408 -134 m 408 -1 l 408 135 l 541 135 l 541 -1 l 408 -1 m 408 407 l 408 543 l 541 543 l 541 407 l 408 407 m 408 543 l 408 679 l 541 679 l 541 543 l 408 543 m 408 679 l 408 815 l 541 815 l 541 679 l 408 679 m 408 815 l 408 948 l 541 948 l 541 815 l 408 815 m 272 948 l 272 1084 l 408 1084 l 408 948 l 272 948 m 408 -134 l 408 -269 l 272 -269 l 272 -134 l 408 -134 m 272 -134 l 272 -1 l 408 -1 l 408 -134 l 272 -134 m 136 948 l 136 1084 l 272 1084 l 272 948 l 136 948 m 272 -134 l 272 -269 l 136 -269 l 136 -134 l 272 -134 m 136 -134 l 136 -1 l 272 -1 l 272 -134 l 136 -134 m 0 948 l 0 1084 l 136 1084 l 136 948 l 0 948 m 0 -134 l 0 -1 l 136 -1 l 136 -134 l 0 -134 m 0 -1 l 0 135 l 136 135 l 136 -1 l 0 -1 m 0 135 l 0 271 l 136 271 l 136 135 l 0 135 m 0 271 l 0 407 l 136 407 l 136 271 l 0 271 m 0 407 l 0 543 l 136 543 l 136 407 l 0 407 m 0 543 l 0 679 l 136 679 l 136 543 l 0 543 m 0 679 l 0 815 l 136 815 l 136 679 l 0 679 m 0 815 l 0 948 l 136 948 l 136 815 l 0 815 z "},"X":{"ha":1221,"x_min":0,"x_max":1355,"o":"m 1355 -134 l 1355 -269 l 1221 -269 l 1221 -134 l 1355 -134 m 1221 -134 l 1221 -1 l 1355 -1 l 1355 -134 l 1221 -134 m 1221 -1 l 1221 135 l 1355 135 l 1355 -1 l 1221 -1 m 1221 135 l 1221 271 l 1355 271 l 1355 135 l 1221 135 m 1221 407 l 1221 543 l 1355 543 l 1355 407 l 1221 407 m 1221 543 l 1221 679 l 1355 679 l 1355 543 l 1221 543 m 1221 679 l 1221 815 l 1355 815 l 1355 679 l 1221 679 m 1221 815 l 1221 948 l 1355 948 l 1355 815 l 1221 815 m 1086 948 l 1086 1084 l 1221 1084 l 1221 948 l 1086 948 m 1221 -134 l 1221 -269 l 1086 -269 l 1086 -134 l 1221 -134 m 1086 -134 l 1086 -1 l 1221 -1 l 1221 -134 l 1086 -134 m 1086 -1 l 1086 135 l 1221 135 l 1221 -1 l 1086 -1 m 1086 135 l 1086 271 l 1221 271 l 1221 135 l 1086 135 m 1086 271 l 1086 407 l 1221 407 l 1221 271 l 1086 271 m 1086 407 l 1086 543 l 1221 543 l 1221 407 l 1086 407 m 1086 543 l 1086 679 l 1221 679 l 1221 543 l 1086 543 m 1086 679 l 1086 815 l 1221 815 l 1221 679 l 1086 679 m 1086 815 l 1086 948 l 1221 948 l 1221 815 l 1086 815 m 949 948 l 949 1084 l 1086 1084 l 1086 948 l 949 948 m 1086 -134 l 1086 -269 l 949 -269 l 949 -134 l 1086 -134 m 949 -134 l 949 -1 l 1086 -1 l 1086 -134 l 949 -134 m 949 271 l 949 407 l 1086 407 l 1086 271 l 949 271 m 949 407 l 949 543 l 1086 543 l 1086 407 l 949 407 m 949 543 l 949 679 l 1086 679 l 1086 543 l 949 543 m 814 948 l 814 1084 l 949 1084 l 949 948 l 814 948 m 949 -134 l 949 -269 l 814 -269 l 814 -134 l 949 -134 m 814 -134 l 814 -1 l 949 -1 l 949 -134 l 814 -134 m 814 407 l 814 543 l 949 543 l 949 407 l 814 407 m 677 948 l 677 1084 l 814 1084 l 814 948 l 677 948 m 677 -134 l 677 -1 l 814 -1 l 814 -134 l 677 -134 m 677 -1 l 677 135 l 814 135 l 814 -1 l 677 -1 m 677 815 l 677 948 l 814 948 l 814 815 l 677 815 m 677 -134 l 677 -269 l 541 -269 l 541 -134 l 677 -134 m 541 -134 l 541 -1 l 677 -1 l 677 -134 l 541 -134 m 541 -1 l 541 135 l 677 135 l 677 -1 l 541 -1 m 541 135 l 541 271 l 677 271 l 677 135 l 541 135 m 541 679 l 541 815 l 677 815 l 677 679 l 541 679 m 541 815 l 541 948 l 677 948 l 677 815 l 541 815 m 408 948 l 408 1084 l 541 1084 l 541 948 l 408 948 m 541 -134 l 541 -269 l 408 -269 l 408 -134 l 541 -134 m 408 -134 l 408 -1 l 541 -1 l 541 -134 l 408 -134 m 408 -1 l 408 135 l 541 135 l 541 -1 l 408 -1 m 408 815 l 408 948 l 541 948 l 541 815 l 408 815 m 272 948 l 272 1084 l 408 1084 l 408 948 l 272 948 m 408 -134 l 408 -269 l 272 -269 l 272 -134 l 408 -134 m 272 -134 l 272 -1 l 408 -1 l 408 -134 l 272 -134 m 272 407 l 272 543 l 408 543 l 408 407 l 272 407 m 136 948 l 136 1084 l 272 1084 l 272 948 l 136 948 m 272 -134 l 272 -269 l 136 -269 l 136 -134 l 272 -134 m 136 -134 l 136 -1 l 272 -1 l 272 -134 l 136 -134 m 136 271 l 136 407 l 272 407 l 272 271 l 136 271 m 136 407 l 136 543 l 272 543 l 272 407 l 136 407 m 136 543 l 136 679 l 272 679 l 272 543 l 136 543 m 0 948 l 0 1084 l 136 1084 l 136 948 l 0 948 m 0 -134 l 0 -1 l 136 -1 l 136 -134 l 0 -134 m 0 -1 l 0 135 l 136 135 l 136 -1 l 0 -1 m 0 135 l 0 271 l 136 271 l 136 135 l 0 135 m 0 271 l 0 407 l 136 407 l 136 271 l 0 271 m 0 543 l 0 679 l 136 679 l 136 543 l 0 543 m 0 679 l 0 815 l 136 815 l 136 679 l 0 679 m 0 815 l 0 948 l 136 948 l 136 815 l 0 815 z "},"Y":{"ha":1086,"x_min":0,"x_max":1221,"o":"m 1086 271 l 1086 407 l 1221 407 l 1221 271 l 1086 271 m 1086 407 l 1086 543 l 1221 543 l 1221 407 l 1086 407 m 1086 543 l 1086 679 l 1221 679 l 1221 543 l 1086 543 m 1086 679 l 1086 815 l 1221 815 l 1221 679 l 1086 679 m 1086 815 l 1086 948 l 1221 948 l 1221 815 l 1086 815 m 949 948 l 949 1084 l 1086 1084 l 1086 948 l 949 948 m 949 135 l 949 271 l 1086 271 l 1086 135 l 949 135 m 949 271 l 949 407 l 1086 407 l 1086 271 l 949 271 m 949 407 l 949 543 l 1086 543 l 1086 407 l 949 407 m 949 543 l 949 679 l 1086 679 l 1086 543 l 949 543 m 949 679 l 949 815 l 1086 815 l 1086 679 l 949 679 m 949 815 l 949 948 l 1086 948 l 1086 815 l 949 815 m 814 948 l 814 1084 l 949 1084 l 949 948 l 814 948 m 949 -134 l 949 -269 l 814 -269 l 814 -134 l 949 -134 m 814 -134 l 814 -1 l 949 -1 l 949 -134 l 814 -134 m 814 -1 l 814 135 l 949 135 l 949 -1 l 814 -1 m 814 135 l 814 271 l 949 271 l 949 135 l 814 135 m 814 271 l 814 407 l 949 407 l 949 271 l 814 271 m 814 407 l 814 543 l 949 543 l 949 407 l 814 407 m 677 948 l 677 1084 l 814 1084 l 814 948 l 677 948 m 814 -134 l 814 -269 l 677 -269 l 677 -134 l 814 -134 m 677 -134 l 677 -1 l 814 -1 l 814 -134 l 677 -134 m 677 -1 l 677 135 l 814 135 l 814 -1 l 677 -1 m 677 135 l 677 271 l 814 271 l 814 135 l 677 135 m 677 271 l 677 407 l 814 407 l 814 271 l 677 271 m 541 948 l 541 1084 l 677 1084 l 677 948 l 541 948 m 677 -134 l 677 -269 l 541 -269 l 541 -134 l 677 -134 m 541 -134 l 541 -1 l 677 -1 l 677 -134 l 541 -134 m 541 543 l 541 679 l 677 679 l 677 543 l 541 543 m 541 679 l 541 815 l 677 815 l 677 679 l 541 679 m 541 815 l 541 948 l 677 948 l 677 815 l 541 815 m 408 948 l 408 1084 l 541 1084 l 541 948 l 408 948 m 541 -134 l 541 -269 l 408 -269 l 408 -134 l 541 -134 m 408 -134 l 408 -1 l 541 -1 l 541 -134 l 408 -134 m 408 543 l 408 679 l 541 679 l 541 543 l 408 543 m 408 679 l 408 815 l 541 815 l 541 679 l 408 679 m 408 815 l 408 948 l 541 948 l 541 815 l 408 815 m 272 948 l 272 1084 l 408 1084 l 408 948 l 272 948 m 272 -134 l 272 -1 l 408 -1 l 408 -134 l 272 -134 m 272 -1 l 272 135 l 408 135 l 408 -1 l 272 -1 m 272 135 l 272 271 l 408 271 l 408 135 l 272 135 m 272 271 l 272 407 l 408 407 l 408 271 l 272 271 m 136 948 l 136 1084 l 272 1084 l 272 948 l 136 948 m 136 271 l 136 407 l 272 407 l 272 271 l 136 271 m 136 407 l 136 543 l 272 543 l 272 407 l 136 407 m 0 948 l 0 1084 l 136 1084 l 136 948 l 0 948 m 0 407 l 0 543 l 136 543 l 136 407 l 0 407 m 0 543 l 0 679 l 136 679 l 136 543 l 0 543 m 0 679 l 0 815 l 136 815 l 136 679 l 0 679 m 0 815 l 0 948 l 136 948 l 136 815 l 0 815 z "},"Z":{"ha":1221,"x_min":0,"x_max":1355,"o":"m 1355 -134 l 1355 -269 l 1221 -269 l 1221 -134 l 1355 -134 m 1221 -134 l 1221 -1 l 1355 -1 l 1355 -134 l 1221 -134 m 1221 -1 l 1221 135 l 1355 135 l 1355 -1 l 1221 -1 m 1221 407 l 1221 543 l 1355 543 l 1355 407 l 1221 407 m 1221 543 l 1221 679 l 1355 679 l 1355 543 l 1221 543 m 1221 679 l 1221 815 l 1355 815 l 1355 679 l 1221 679 m 1221 815 l 1221 948 l 1355 948 l 1355 815 l 1221 815 m 1086 948 l 1086 1084 l 1221 1084 l 1221 948 l 1086 948 m 1221 -134 l 1221 -269 l 1086 -269 l 1086 -134 l 1221 -134 m 1086 -134 l 1086 -1 l 1221 -1 l 1221 -134 l 1086 -134 m 1086 -1 l 1086 135 l 1221 135 l 1221 -1 l 1086 -1 m 1086 135 l 1086 271 l 1221 271 l 1221 135 l 1086 135 m 1086 271 l 1086 407 l 1221 407 l 1221 271 l 1086 271 m 1086 407 l 1086 543 l 1221 543 l 1221 407 l 1086 407 m 1086 543 l 1086 679 l 1221 679 l 1221 543 l 1086 543 m 1086 679 l 1086 815 l 1221 815 l 1221 679 l 1086 679 m 1086 815 l 1086 948 l 1221 948 l 1221 815 l 1086 815 m 949 948 l 949 1084 l 1086 1084 l 1086 948 l 949 948 m 1086 -134 l 1086 -269 l 949 -269 l 949 -134 l 1086 -134 m 949 -134 l 949 -1 l 1086 -1 l 1086 -134 l 949 -134 m 949 135 l 949 271 l 1086 271 l 1086 135 l 949 135 m 949 271 l 949 407 l 1086 407 l 1086 271 l 949 271 m 949 407 l 949 543 l 1086 543 l 1086 407 l 949 407 m 949 543 l 949 679 l 1086 679 l 1086 543 l 949 543 m 814 948 l 814 1084 l 949 1084 l 949 948 l 814 948 m 949 -134 l 949 -269 l 814 -269 l 814 -134 l 949 -134 m 814 -134 l 814 -1 l 949 -1 l 949 -134 l 814 -134 m 814 135 l 814 271 l 949 271 l 949 135 l 814 135 m 814 271 l 814 407 l 949 407 l 949 271 l 814 271 m 814 407 l 814 543 l 949 543 l 949 407 l 814 407 m 677 948 l 677 1084 l 814 1084 l 814 948 l 677 948 m 814 -134 l 814 -269 l 677 -269 l 677 -134 l 814 -134 m 677 -134 l 677 -1 l 814 -1 l 814 -134 l 677 -134 m 677 135 l 677 271 l 814 271 l 814 135 l 677 135 m 677 271 l 677 407 l 814 407 l 814 271 l 677 271 m 541 948 l 541 1084 l 677 1084 l 677 948 l 541 948 m 677 -134 l 677 -269 l 541 -269 l 541 -134 l 677 -134 m 541 -134 l 541 -1 l 677 -1 l 677 -134 l 541 -134 m 541 135 l 541 271 l 677 271 l 677 135 l 541 135 m 541 679 l 541 815 l 677 815 l 677 679 l 541 679 m 408 948 l 408 1084 l 541 1084 l 541 948 l 408 948 m 541 -134 l 541 -269 l 408 -269 l 408 -134 l 541 -134 m 408 -134 l 408 -1 l 541 -1 l 541 -134 l 408 -134 m 408 543 l 408 679 l 541 679 l 541 543 l 408 543 m 408 679 l 408 815 l 541 815 l 541 679 l 408 679 m 272 948 l 272 1084 l 408 1084 l 408 948 l 272 948 m 408 -134 l 408 -269 l 272 -269 l 272 -134 l 408 -134 m 272 -134 l 272 -1 l 408 -1 l 408 -134 l 272 -134 m 272 407 l 272 543 l 408 543 l 408 407 l 272 407 m 272 543 l 272 679 l 408 679 l 408 543 l 272 543 m 272 679 l 272 815 l 408 815 l 408 679 l 272 679 m 136 948 l 136 1084 l 272 1084 l 272 948 l 136 948 m 272 -134 l 272 -269 l 136 -269 l 136 -134 l 272 -134 m 136 -134 l 136 -1 l 272 -1 l 272 -134 l 136 -134 m 136 271 l 136 407 l 272 407 l 272 271 l 136 271 m 136 407 l 136 543 l 272 543 l 272 407 l 136 407 m 136 679 l 136 815 l 272 815 l 272 679 l 136 679 m 0 948 l 0 1084 l 136 1084 l 136 948 l 0 948 m 0 -134 l 0 -1 l 136 -1 l 136 -134 l 0 -134 m 0 -1 l 0 135 l 136 135 l 136 -1 l 0 -1 m 0 135 l 0 271 l 136 271 l 136 135 l 0 135 m 0 271 l 0 407 l 136 407 l 136 271 l 0 271 m 0 679 l 0 815 l 136 815 l 136 679 l 0 679 m 0 815 l 0 948 l 136 948 l 136 815 l 0 815 z "},"[":{"ha":386,"x_min":0,"x_max":0,"o":""},"\\":{"ha":386,"x_min":0,"x_max":0,"o":""},"]":{"ha":386,"x_min":0,"x_max":0,"o":""},"^":{"ha":949,"x_min":0,"x_max":1086,"o":"m 949 135 l 949 271 l 1086 271 l 1086 135 l 949 135 m 949 271 l 949 407 l 1086 407 l 1086 271 l 949 271 m 949 407 l 949 543 l 1086 543 l 1086 407 l 949 407 m 949 543 l 949 679 l 1086 679 l 1086 543 l 949 543 m 814 135 l 814 271 l 949 271 l 949 135 l 814 135 m 814 271 l 814 407 l 949 407 l 949 271 l 814 271 m 814 407 l 814 543 l 949 543 l 949 407 l 814 407 m 814 543 l 814 679 l 949 679 l 949 543 l 814 543 m 814 679 l 814 815 l 949 815 l 949 679 l 814 679 m 677 135 l 677 271 l 814 271 l 814 135 l 677 135 m 677 271 l 677 407 l 814 407 l 814 271 l 677 271 m 677 679 l 677 815 l 814 815 l 814 679 l 677 679 m 677 815 l 677 948 l 814 948 l 814 815 l 677 815 m 541 948 l 541 1084 l 677 1084 l 677 948 l 541 948 m 541 271 l 541 407 l 677 407 l 677 271 l 541 271 m 541 407 l 541 543 l 677 543 l 677 407 l 541 407 m 541 815 l 541 948 l 677 948 l 677 815 l 541 815 m 408 948 l 408 1084 l 541 1084 l 541 948 l 408 948 m 408 135 l 408 271 l 541 271 l 541 135 l 408 135 m 408 271 l 408 407 l 541 407 l 541 271 l 408 271 m 408 407 l 408 543 l 541 543 l 541 407 l 408 407 m 408 543 l 408 679 l 541 679 l 541 543 l 408 543 m 272 948 l 272 1084 l 408 1084 l 408 948 l 272 948 m 272 135 l 272 271 l 408 271 l 408 135 l 272 135 m 272 271 l 272 407 l 408 407 l 408 271 l 272 271 m 272 407 l 272 543 l 408 543 l 408 407 l 272 407 m 272 815 l 272 948 l 408 948 l 408 815 l 272 815 m 136 135 l 136 271 l 272 271 l 272 135 l 136 135 m 136 271 l 136 407 l 272 407 l 272 271 l 136 271 m 136 679 l 136 815 l 272 815 l 272 679 l 136 679 m 136 815 l 136 948 l 272 948 l 272 815 l 136 815 m 0 271 l 0 407 l 136 407 l 136 271 l 0 271 m 0 407 l 0 543 l 136 543 l 136 407 l 0 407 m 0 543 l 0 679 l 136 679 l 136 543 l 0 543 m 0 679 l 0 815 l 136 815 l 136 679 l 0 679 z "},"_":{"ha":1221,"x_min":0,"x_max":1355,"o":"m 1355 -134 l 1355 -269 l 1221 -269 l 1221 -134 l 1355 -134 m 1221 -134 l 1221 -1 l 1355 -1 l 1355 -134 l 1221 -134 m 1221 -1 l 1221 135 l 1355 135 l 1355 -1 l 1221 -1 m 1221 -134 l 1221 -269 l 1086 -269 l 1086 -134 l 1221 -134 m 1086 -134 l 1086 -1 l 1221 -1 l 1221 -134 l 1086 -134 m 1086 -1 l 1086 135 l 1221 135 l 1221 -1 l 1086 -1 m 1086 135 l 1086 271 l 1221 271 l 1221 135 l 1086 135 m 1086 -134 l 1086 -269 l 949 -269 l 949 -134 l 1086 -134 m 949 -134 l 949 -1 l 1086 -1 l 1086 -134 l 949 -134 m 949 135 l 949 271 l 1086 271 l 1086 135 l 949 135 m 949 -134 l 949 -269 l 814 -269 l 814 -134 l 949 -134 m 814 -134 l 814 -1 l 949 -1 l 949 -134 l 814 -134 m 814 135 l 814 271 l 949 271 l 949 135 l 814 135 m 814 -134 l 814 -269 l 677 -269 l 677 -134 l 814 -134 m 677 -134 l 677 -1 l 814 -1 l 814 -134 l 677 -134 m 677 135 l 677 271 l 814 271 l 814 135 l 677 135 m 677 -134 l 677 -269 l 541 -269 l 541 -134 l 677 -134 m 541 -134 l 541 -1 l 677 -1 l 677 -134 l 541 -134 m 541 135 l 541 271 l 677 271 l 677 135 l 541 135 m 541 -134 l 541 -269 l 408 -269 l 408 -134 l 541 -134 m 408 -134 l 408 -1 l 541 -1 l 541 -134 l 408 -134 m 408 135 l 408 271 l 541 271 l 541 135 l 408 135 m 408 -134 l 408 -269 l 272 -269 l 272 -134 l 408 -134 m 272 -134 l 272 -1 l 408 -1 l 408 -134 l 272 -134 m 272 135 l 272 271 l 408 271 l 408 135 l 272 135 m 272 -134 l 272 -269 l 136 -269 l 136 -134 l 272 -134 m 136 -134 l 136 -1 l 272 -1 l 272 -134 l 136 -134 m 136 135 l 136 271 l 272 271 l 272 135 l 136 135 m 0 -134 l 0 -1 l 136 -1 l 136 -134 l 0 -134 m 0 -1 l 0 135 l 136 135 l 136 -1 l 0 -1 m 0 135 l 0 271 l 136 271 l 136 135 l 0 135 z "},"`":{"ha":463,"x_min":0,"x_max":0,"o":""},"a":{"ha":1221,"x_min":0,"x_max":1355,"o":"m 1355 -134 l 1355 -269 l 1221 -269 l 1221 -134 l 1355 -134 m 1221 -134 l 1221 -1 l 1355 -1 l 1355 -134 l 1221 -134 m 1221 -1 l 1221 135 l 1355 135 l 1355 -1 l 1221 -1 m 1221 135 l 1221 271 l 1355 271 l 1355 135 l 1221 135 m 1221 271 l 1221 407 l 1355 407 l 1355 271 l 1221 271 m 1221 407 l 1221 543 l 1355 543 l 1355 407 l 1221 407 m 1221 543 l 1221 679 l 1355 679 l 1355 543 l 1221 543 m 1221 679 l 1221 815 l 1355 815 l 1355 679 l 1221 679 m 1221 -134 l 1221 -269 l 1086 -269 l 1086 -134 l 1221 -134 m 1086 -134 l 1086 -1 l 1221 -1 l 1221 -134 l 1086 -134 m 1086 -1 l 1086 135 l 1221 135 l 1221 -1 l 1086 -1 m 1086 135 l 1086 271 l 1221 271 l 1221 135 l 1086 135 m 1086 271 l 1086 407 l 1221 407 l 1221 271 l 1086 271 m 1086 407 l 1086 543 l 1221 543 l 1221 407 l 1086 407 m 1086 543 l 1086 679 l 1221 679 l 1221 543 l 1086 543 m 1086 679 l 1086 815 l 1221 815 l 1221 679 l 1086 679 m 1086 815 l 1086 948 l 1221 948 l 1221 815 l 1086 815 m 949 948 l 949 1084 l 1086 1084 l 1086 948 l 949 948 m 1086 -134 l 1086 -269 l 949 -269 l 949 -134 l 1086 -134 m 949 -134 l 949 -1 l 1086 -1 l 1086 -134 l 949 -134 m 949 815 l 949 948 l 1086 948 l 1086 815 l 949 815 m 814 948 l 814 1084 l 949 1084 l 949 948 l 814 948 m 949 -134 l 949 -269 l 814 -269 l 814 -134 l 949 -134 m 814 -134 l 814 -1 l 949 -1 l 949 -134 l 814 -134 m 677 948 l 677 1084 l 814 1084 l 814 948 l 677 948 m 677 -134 l 677 -1 l 814 -1 l 814 -134 l 677 -134 m 677 -1 l 677 135 l 814 135 l 814 -1 l 677 -1 m 677 135 l 677 271 l 814 271 l 814 135 l 677 135 m 677 407 l 677 543 l 814 543 l 814 407 l 677 407 m 677 543 l 677 679 l 814 679 l 814 543 l 677 543 m 677 679 l 677 815 l 814 815 l 814 679 l 677 679 m 541 948 l 541 1084 l 677 1084 l 677 948 l 541 948 m 677 -134 l 677 -269 l 541 -269 l 541 -134 l 677 -134 m 541 -134 l 541 -1 l 677 -1 l 677 -134 l 541 -134 m 541 -1 l 541 135 l 677 135 l 677 -1 l 541 -1 m 541 135 l 541 271 l 677 271 l 677 135 l 541 135 m 541 407 l 541 543 l 677 543 l 677 407 l 541 407 m 541 543 l 541 679 l 677 679 l 677 543 l 541 543 m 541 679 l 541 815 l 677 815 l 677 679 l 541 679 m 408 948 l 408 1084 l 541 1084 l 541 948 l 408 948 m 541 -134 l 541 -269 l 408 -269 l 408 -134 l 541 -134 m 408 -134 l 408 -1 l 541 -1 l 541 -134 l 408 -134 m 408 -1 l 408 135 l 541 135 l 541 -1 l 408 -1 m 408 135 l 408 271 l 541 271 l 541 135 l 408 135 m 408 407 l 408 543 l 541 543 l 541 407 l 408 407 m 408 543 l 408 679 l 541 679 l 541 543 l 408 543 m 408 679 l 408 815 l 541 815 l 541 679 l 408 679 m 272 948 l 272 1084 l 408 1084 l 408 948 l 272 948 m 408 -134 l 408 -269 l 272 -269 l 272 -134 l 408 -134 m 272 -134 l 272 -1 l 408 -1 l 408 -134 l 272 -134 m 136 948 l 136 1084 l 272 1084 l 272 948 l 136 948 m 272 -134 l 272 -269 l 136 -269 l 136 -134 l 272 -134 m 136 -134 l 136 -1 l 272 -1 l 272 -134 l 136 -134 m 136 815 l 136 948 l 272 948 l 272 815 l 136 815 m 0 -134 l 0 -1 l 136 -1 l 136 -134 l 0 -134 m 0 -1 l 0 135 l 136 135 l 136 -1 l 0 -1 m 0 135 l 0 271 l 136 271 l 136 135 l 0 135 m 0 271 l 0 407 l 136 407 l 136 271 l 0 271 m 0 407 l 0 543 l 136 543 l 136 407 l 0 407 m 0 543 l 0 679 l 136 679 l 136 543 l 0 543 m 0 679 l 0 815 l 136 815 l 136 679 l 0 679 m 0 815 l 0 948 l 136 948 l 136 815 l 0 815 z "},"b":{"ha":1221,"x_min":0,"x_max":1355,"o":"m 1221 -134 l 1221 -1 l 1355 -1 l 1355 -134 l 1221 -134 m 1221 -1 l 1221 135 l 1355 135 l 1355 -1 l 1221 -1 m 1221 135 l 1221 271 l 1355 271 l 1355 135 l 1221 135 m 1221 271 l 1221 407 l 1355 407 l 1355 271 l 1221 271 m 1221 407 l 1221 543 l 1355 543 l 1355 407 l 1221 407 m 1221 543 l 1221 679 l 1355 679 l 1355 543 l 1221 543 m 1221 679 l 1221 815 l 1355 815 l 1355 679 l 1221 679 m 1221 -134 l 1221 -269 l 1086 -269 l 1086 -134 l 1221 -134 m 1086 -134 l 1086 -1 l 1221 -1 l 1221 -134 l 1086 -134 m 1086 -1 l 1086 135 l 1221 135 l 1221 -1 l 1086 -1 m 1086 135 l 1086 271 l 1221 271 l 1221 135 l 1086 135 m 1086 271 l 1086 407 l 1221 407 l 1221 271 l 1086 271 m 1086 407 l 1086 543 l 1221 543 l 1221 407 l 1086 407 m 1086 543 l 1086 679 l 1221 679 l 1221 543 l 1086 543 m 1086 679 l 1086 815 l 1221 815 l 1221 679 l 1086 679 m 1086 815 l 1086 948 l 1221 948 l 1221 815 l 1086 815 m 949 948 l 949 1084 l 1086 1084 l 1086 948 l 949 948 m 1086 -134 l 1086 -269 l 949 -269 l 949 -134 l 1086 -134 m 949 -134 l 949 -1 l 1086 -1 l 1086 -134 l 949 -134 m 949 -1 l 949 135 l 1086 135 l 1086 -1 l 949 -1 m 949 407 l 949 543 l 1086 543 l 1086 407 l 949 407 m 949 815 l 949 948 l 1086 948 l 1086 815 l 949 815 m 814 948 l 814 1084 l 949 1084 l 949 948 l 814 948 m 949 -134 l 949 -269 l 814 -269 l 814 -134 l 949 -134 m 814 -134 l 814 -1 l 949 -1 l 949 -134 l 814 -134 m 677 948 l 677 1084 l 814 1084 l 814 948 l 677 948 m 814 -134 l 814 -269 l 677 -269 l 677 -134 l 814 -134 m 677 -134 l 677 -1 l 814 -1 l 814 -134 l 677 -134 m 677 135 l 677 271 l 814 271 l 814 135 l 677 135 m 677 271 l 677 407 l 814 407 l 814 271 l 677 271 m 677 543 l 677 679 l 814 679 l 814 543 l 677 543 m 677 679 l 677 815 l 814 815 l 814 679 l 677 679 m 541 948 l 541 1084 l 677 1084 l 677 948 l 541 948 m 677 -134 l 677 -269 l 541 -269 l 541 -134 l 677 -134 m 541 -134 l 541 -1 l 677 -1 l 677 -134 l 541 -134 m 541 135 l 541 271 l 677 271 l 677 135 l 541 135 m 541 271 l 541 407 l 677 407 l 677 271 l 541 271 m 541 543 l 541 679 l 677 679 l 677 543 l 541 543 m 541 679 l 541 815 l 677 815 l 677 679 l 541 679 m 408 948 l 408 1084 l 541 1084 l 541 948 l 408 948 m 541 -134 l 541 -269 l 408 -269 l 408 -134 l 541 -134 m 408 -134 l 408 -1 l 541 -1 l 541 -134 l 408 -134 m 408 135 l 408 271 l 541 271 l 541 135 l 408 135 m 408 271 l 408 407 l 541 407 l 541 271 l 408 271 m 408 543 l 408 679 l 541 679 l 541 543 l 408 543 m 408 679 l 408 815 l 541 815 l 541 679 l 408 679 m 272 948 l 272 1084 l 408 1084 l 408 948 l 272 948 m 408 -134 l 408 -269 l 272 -269 l 272 -134 l 408 -134 m 272 -134 l 272 -1 l 408 -1 l 408 -134 l 272 -134 m 136 948 l 136 1084 l 272 1084 l 272 948 l 136 948 m 272 -134 l 272 -269 l 136 -269 l 136 -134 l 272 -134 m 136 -134 l 136 -1 l 272 -1 l 272 -134 l 136 -134 m 0 948 l 0 1084 l 136 1084 l 136 948 l 0 948 m 0 -134 l 0 -1 l 136 -1 l 136 -134 l 0 -134 m 0 -1 l 0 135 l 136 135 l 136 -1 l 0 -1 m 0 135 l 0 271 l 136 271 l 136 135 l 0 135 m 0 271 l 0 407 l 136 407 l 136 271 l 0 271 m 0 407 l 0 543 l 136 543 l 136 407 l 0 407 m 0 543 l 0 679 l 136 679 l 136 543 l 0 543 m 0 679 l 0 815 l 136 815 l 136 679 l 0 679 m 0 815 l 0 948 l 136 948 l 136 815 l 0 815 z "},"c":{"ha":1221,"x_min":0,"x_max":1355,"o":"m 1221 -134 l 1221 -1 l 1355 -1 l 1355 -134 l 1221 -134 m 1221 -1 l 1221 135 l 1355 135 l 1355 -1 l 1221 -1 m 1221 135 l 1221 271 l 1355 271 l 1355 135 l 1221 135 m 1221 407 l 1221 543 l 1355 543 l 1355 407 l 1221 407 m 1221 543 l 1221 679 l 1355 679 l 1355 543 l 1221 543 m 1221 679 l 1221 815 l 1355 815 l 1355 679 l 1221 679 m 1221 -134 l 1221 -269 l 1086 -269 l 1086 -134 l 1221 -134 m 1086 -134 l 1086 -1 l 1221 -1 l 1221 -134 l 1086 -134 m 1086 -1 l 1086 135 l 1221 135 l 1221 -1 l 1086 -1 m 1086 135 l 1086 271 l 1221 271 l 1221 135 l 1086 135 m 1086 271 l 1086 407 l 1221 407 l 1221 271 l 1086 271 m 1086 407 l 1086 543 l 1221 543 l 1221 407 l 1086 407 m 1086 543 l 1086 679 l 1221 679 l 1221 543 l 1086 543 m 1086 679 l 1086 815 l 1221 815 l 1221 679 l 1086 679 m 1086 815 l 1086 948 l 1221 948 l 1221 815 l 1086 815 m 949 948 l 949 1084 l 1086 1084 l 1086 948 l 949 948 m 1086 -134 l 1086 -269 l 949 -269 l 949 -134 l 1086 -134 m 949 -134 l 949 -1 l 1086 -1 l 1086 -134 l 949 -134 m 949 -1 l 949 135 l 1086 135 l 1086 -1 l 949 -1 m 949 271 l 949 407 l 1086 407 l 1086 271 l 949 271 m 949 407 l 949 543 l 1086 543 l 1086 407 l 949 407 m 949 543 l 949 679 l 1086 679 l 1086 543 l 949 543 m 949 815 l 949 948 l 1086 948 l 1086 815 l 949 815 m 814 948 l 814 1084 l 949 1084 l 949 948 l 814 948 m 949 -134 l 949 -269 l 814 -269 l 814 -134 l 949 -134 m 814 -134 l 814 -1 l 949 -1 l 949 -134 l 814 -134 m 814 271 l 814 407 l 949 407 l 949 271 l 814 271 m 814 407 l 814 543 l 949 543 l 949 407 l 814 407 m 814 543 l 814 679 l 949 679 l 949 543 l 814 543 m 677 948 l 677 1084 l 814 1084 l 814 948 l 677 948 m 814 -134 l 814 -269 l 677 -269 l 677 -134 l 814 -134 m 677 -134 l 677 -1 l 814 -1 l 814 -134 l 677 -134 m 677 135 l 677 271 l 814 271 l 814 135 l 677 135 m 677 271 l 677 407 l 814 407 l 814 271 l 677 271 m 677 407 l 677 543 l 814 543 l 814 407 l 677 407 m 677 543 l 677 679 l 814 679 l 814 543 l 677 543 m 677 679 l 677 815 l 814 815 l 814 679 l 677 679 m 541 948 l 541 1084 l 677 1084 l 677 948 l 541 948 m 677 -134 l 677 -269 l 541 -269 l 541 -134 l 677 -134 m 541 -134 l 541 -1 l 677 -1 l 677 -134 l 541 -134 m 541 135 l 541 271 l 677 271 l 677 135 l 541 135 m 541 271 l 541 407 l 677 407 l 677 271 l 541 271 m 541 407 l 541 543 l 677 543 l 677 407 l 541 407 m 541 543 l 541 679 l 677 679 l 677 543 l 541 543 m 541 679 l 541 815 l 677 815 l 677 679 l 541 679 m 408 948 l 408 1084 l 541 1084 l 541 948 l 408 948 m 541 -134 l 541 -269 l 408 -269 l 408 -134 l 541 -134 m 408 -134 l 408 -1 l 541 -1 l 541 -134 l 408 -134 m 408 135 l 408 271 l 541 271 l 541 135 l 408 135 m 408 271 l 408 407 l 541 407 l 541 271 l 408 271 m 408 407 l 408 543 l 541 543 l 541 407 l 408 407 m 408 543 l 408 679 l 541 679 l 541 543 l 408 543 m 408 679 l 408 815 l 541 815 l 541 679 l 408 679 m 272 948 l 272 1084 l 408 1084 l 408 948 l 272 948 m 408 -134 l 408 -269 l 272 -269 l 272 -134 l 408 -134 m 272 -134 l 272 -1 l 408 -1 l 408 -134 l 272 -134 m 136 948 l 136 1084 l 272 1084 l 272 948 l 136 948 m 136 -134 l 136 -1 l 272 -1 l 272 -134 l 136 -134 m 136 -1 l 136 135 l 272 135 l 272 -1 l 136 -1 m 136 815 l 136 948 l 272 948 l 272 815 l 136 815 m 0 -1 l 0 135 l 136 135 l 136 -1 l 0 -1 m 0 135 l 0 271 l 136 271 l 136 135 l 0 135 m 0 271 l 0 407 l 136 407 l 136 271 l 0 271 m 0 407 l 0 543 l 136 543 l 136 407 l 0 407 m 0 543 l 0 679 l 136 679 l 136 543 l 0 543 m 0 679 l 0 815 l 136 815 l 136 679 l 0 679 m 0 815 l 0 948 l 136 948 l 136 815 l 0 815 z "},"d":{"ha":1221,"x_min":0,"x_max":1355,"o":"m 1221 -1 l 1221 135 l 1355 135 l 1355 -1 l 1221 -1 m 1221 135 l 1221 271 l 1355 271 l 1355 135 l 1221 135 m 1221 271 l 1221 407 l 1355 407 l 1355 271 l 1221 271 m 1221 407 l 1221 543 l 1355 543 l 1355 407 l 1221 407 m 1221 543 l 1221 679 l 1355 679 l 1355 543 l 1221 543 m 1086 -134 l 1086 -1 l 1221 -1 l 1221 -134 l 1086 -134 m 1086 -1 l 1086 135 l 1221 135 l 1221 -1 l 1086 -1 m 1086 135 l 1086 271 l 1221 271 l 1221 135 l 1086 135 m 1086 271 l 1086 407 l 1221 407 l 1221 271 l 1086 271 m 1086 407 l 1086 543 l 1221 543 l 1221 407 l 1086 407 m 1086 543 l 1086 679 l 1221 679 l 1221 543 l 1086 543 m 1086 679 l 1086 815 l 1221 815 l 1221 679 l 1086 679 m 1086 -134 l 1086 -269 l 949 -269 l 949 -134 l 1086 -134 m 949 -134 l 949 -1 l 1086 -1 l 1086 -134 l 949 -134 m 949 -1 l 949 135 l 1086 135 l 1086 -1 l 949 -1 m 949 135 l 949 271 l 1086 271 l 1086 135 l 949 135 m 949 679 l 949 815 l 1086 815 l 1086 679 l 949 679 m 949 815 l 949 948 l 1086 948 l 1086 815 l 949 815 m 814 948 l 814 1084 l 949 1084 l 949 948 l 814 948 m 949 -134 l 949 -269 l 814 -269 l 814 -134 l 949 -134 m 814 -134 l 814 -1 l 949 -1 l 949 -134 l 814 -134 m 814 -1 l 814 135 l 949 135 l 949 -1 l 814 -1 m 814 815 l 814 948 l 949 948 l 949 815 l 814 815 m 677 948 l 677 1084 l 814 1084 l 814 948 l 677 948 m 814 -134 l 814 -269 l 677 -269 l 677 -134 l 814 -134 m 677 -134 l 677 -1 l 814 -1 l 814 -134 l 677 -134 m 677 271 l 677 407 l 814 407 l 814 271 l 677 271 m 677 407 l 677 543 l 814 543 l 814 407 l 677 407 m 677 543 l 677 679 l 814 679 l 814 543 l 677 543 m 541 948 l 541 1084 l 677 1084 l 677 948 l 541 948 m 677 -134 l 677 -269 l 541 -269 l 541 -134 l 677 -134 m 541 -134 l 541 -1 l 677 -1 l 677 -134 l 541 -134 m 541 135 l 541 271 l 677 271 l 677 135 l 541 135 m 541 271 l 541 407 l 677 407 l 677 271 l 541 271 m 541 407 l 541 543 l 677 543 l 677 407 l 541 407 m 541 543 l 541 679 l 677 679 l 677 543 l 541 543 m 541 679 l 541 815 l 677 815 l 677 679 l 541 679 m 408 948 l 408 1084 l 541 1084 l 541 948 l 408 948 m 541 -134 l 541 -269 l 408 -269 l 408 -134 l 541 -134 m 408 -134 l 408 -1 l 541 -1 l 541 -134 l 408 -134 m 408 135 l 408 271 l 541 271 l 541 135 l 408 135 m 408 271 l 408 407 l 541 407 l 541 271 l 408 271 m 408 407 l 408 543 l 541 543 l 541 407 l 408 407 m 408 543 l 408 679 l 541 679 l 541 543 l 408 543 m 408 679 l 408 815 l 541 815 l 541 679 l 408 679 m 272 948 l 272 1084 l 408 1084 l 408 948 l 272 948 m 408 -134 l 408 -269 l 272 -269 l 272 -134 l 408 -134 m 272 -134 l 272 -1 l 408 -1 l 408 -134 l 272 -134 m 136 948 l 136 1084 l 272 1084 l 272 948 l 136 948 m 272 -134 l 272 -269 l 136 -269 l 136 -134 l 272 -134 m 136 -134 l 136 -1 l 272 -1 l 272 -134 l 136 -134 m 0 948 l 0 1084 l 136 1084 l 136 948 l 0 948 m 0 -134 l 0 -1 l 136 -1 l 136 -134 l 0 -134 m 0 -1 l 0 135 l 136 135 l 136 -1 l 0 -1 m 0 135 l 0 271 l 136 271 l 136 135 l 0 135 m 0 271 l 0 407 l 136 407 l 136 271 l 0 271 m 0 407 l 0 543 l 136 543 l 136 407 l 0 407 m 0 543 l 0 679 l 136 679 l 136 543 l 0 543 m 0 679 l 0 815 l 136 815 l 136 679 l 0 679 m 0 815 l 0 948 l 136 948 l 136 815 l 0 815 z "},"e":{"ha":1221,"x_min":0,"x_max":1355,"o":"m 1355 -134 l 1355 -269 l 1221 -269 l 1221 -134 l 1355 -134 m 1221 -134 l 1221 -1 l 1355 -1 l 1355 -134 l 1221 -134 m 1221 -1 l 1221 135 l 1355 135 l 1355 -1 l 1221 -1 m 1221 543 l 1221 679 l 1355 679 l 1355 543 l 1221 543 m 1221 679 l 1221 815 l 1355 815 l 1355 679 l 1221 679 m 1221 815 l 1221 948 l 1355 948 l 1355 815 l 1221 815 m 1086 948 l 1086 1084 l 1221 1084 l 1221 948 l 1086 948 m 1221 -134 l 1221 -269 l 1086 -269 l 1086 -134 l 1221 -134 m 1086 -134 l 1086 -1 l 1221 -1 l 1221 -134 l 1086 -134 m 1086 -1 l 1086 135 l 1221 135 l 1221 -1 l 1086 -1 m 1086 135 l 1086 271 l 1221 271 l 1221 135 l 1086 135 m 1086 271 l 1086 407 l 1221 407 l 1221 271 l 1086 271 m 1086 407 l 1086 543 l 1221 543 l 1221 407 l 1086 407 m 1086 543 l 1086 679 l 1221 679 l 1221 543 l 1086 543 m 1086 679 l 1086 815 l 1221 815 l 1221 679 l 1086 679 m 1086 815 l 1086 948 l 1221 948 l 1221 815 l 1086 815 m 949 948 l 949 1084 l 1086 1084 l 1086 948 l 949 948 m 1086 -134 l 1086 -269 l 949 -269 l 949 -134 l 1086 -134 m 949 -134 l 949 -1 l 1086 -1 l 1086 -134 l 949 -134 m 949 135 l 949 271 l 1086 271 l 1086 135 l 949 135 m 949 271 l 949 407 l 1086 407 l 1086 271 l 949 271 m 949 407 l 949 543 l 1086 543 l 1086 407 l 949 407 m 949 543 l 949 679 l 1086 679 l 1086 543 l 949 543 m 949 679 l 949 815 l 1086 815 l 1086 679 l 949 679 m 814 948 l 814 1084 l 949 1084 l 949 948 l 814 948 m 949 -134 l 949 -269 l 814 -269 l 814 -134 l 949 -134 m 814 -134 l 814 -1 l 949 -1 l 949 -134 l 814 -134 m 814 135 l 814 271 l 949 271 l 949 135 l 814 135 m 814 271 l 814 407 l 949 407 l 949 271 l 814 271 m 814 543 l 814 679 l 949 679 l 949 543 l 814 543 m 814 679 l 814 815 l 949 815 l 949 679 l 814 679 m 677 948 l 677 1084 l 814 1084 l 814 948 l 677 948 m 814 -134 l 814 -269 l 677 -269 l 677 -134 l 814 -134 m 677 -134 l 677 -1 l 814 -1 l 814 -134 l 677 -134 m 677 135 l 677 271 l 814 271 l 814 135 l 677 135 m 677 271 l 677 407 l 814 407 l 814 271 l 677 271 m 677 543 l 677 679 l 814 679 l 814 543 l 677 543 m 677 679 l 677 815 l 814 815 l 814 679 l 677 679 m 541 948 l 541 1084 l 677 1084 l 677 948 l 541 948 m 677 -134 l 677 -269 l 541 -269 l 541 -134 l 677 -134 m 541 -134 l 541 -1 l 677 -1 l 677 -134 l 541 -134 m 541 135 l 541 271 l 677 271 l 677 135 l 541 135 m 541 271 l 541 407 l 677 407 l 677 271 l 541 271 m 541 543 l 541 679 l 677 679 l 677 543 l 541 543 m 541 679 l 541 815 l 677 815 l 677 679 l 541 679 m 408 948 l 408 1084 l 541 1084 l 541 948 l 408 948 m 541 -134 l 541 -269 l 408 -269 l 408 -134 l 541 -134 m 408 -134 l 408 -1 l 541 -1 l 541 -134 l 408 -134 m 408 135 l 408 271 l 541 271 l 541 135 l 408 135 m 408 271 l 408 407 l 541 407 l 541 271 l 408 271 m 408 543 l 408 679 l 541 679 l 541 543 l 408 543 m 408 679 l 408 815 l 541 815 l 541 679 l 408 679 m 272 948 l 272 1084 l 408 1084 l 408 948 l 272 948 m 408 -134 l 408 -269 l 272 -269 l 272 -134 l 408 -134 m 272 -134 l 272 -1 l 408 -1 l 408 -134 l 272 -134 m 136 948 l 136 1084 l 272 1084 l 272 948 l 136 948 m 272 -134 l 272 -269 l 136 -269 l 136 -134 l 272 -134 m 136 -134 l 136 -1 l 272 -1 l 272 -134 l 136 -134 m 0 948 l 0 1084 l 136 1084 l 136 948 l 0 948 m 0 -134 l 0 -1 l 136 -1 l 136 -134 l 0 -134 m 0 -1 l 0 135 l 136 135 l 136 -1 l 0 -1 m 0 135 l 0 271 l 136 271 l 136 135 l 0 135 m 0 271 l 0 407 l 136 407 l 136 271 l 0 271 m 0 407 l 0 543 l 136 543 l 136 407 l 0 407 m 0 543 l 0 679 l 136 679 l 136 543 l 0 543 m 0 679 l 0 815 l 136 815 l 136 679 l 0 679 m 0 815 l 0 948 l 136 948 l 136 815 l 0 815 z "},"f":{"ha":1221,"x_min":0,"x_max":1355,"o":"m 1221 543 l 1221 679 l 1355 679 l 1355 543 l 1221 543 m 1221 679 l 1221 815 l 1355 815 l 1355 679 l 1221 679 m 1221 815 l 1221 948 l 1355 948 l 1355 815 l 1221 815 m 1086 948 l 1086 1084 l 1221 1084 l 1221 948 l 1086 948 m 1086 135 l 1086 271 l 1221 271 l 1221 135 l 1086 135 m 1086 271 l 1086 407 l 1221 407 l 1221 271 l 1086 271 m 1086 407 l 1086 543 l 1221 543 l 1221 407 l 1086 407 m 1086 543 l 1086 679 l 1221 679 l 1221 543 l 1086 543 m 1086 679 l 1086 815 l 1221 815 l 1221 679 l 1086 679 m 1086 815 l 1086 948 l 1221 948 l 1221 815 l 1086 815 m 949 948 l 949 1084 l 1086 1084 l 1086 948 l 949 948 m 949 135 l 949 271 l 1086 271 l 1086 135 l 949 135 m 949 271 l 949 407 l 1086 407 l 1086 271 l 949 271 m 949 407 l 949 543 l 1086 543 l 1086 407 l 949 407 m 949 543 l 949 679 l 1086 679 l 1086 543 l 949 543 m 949 679 l 949 815 l 1086 815 l 1086 679 l 949 679 m 814 948 l 814 1084 l 949 1084 l 949 948 l 814 948 m 814 135 l 814 271 l 949 271 l 949 135 l 814 135 m 814 271 l 814 407 l 949 407 l 949 271 l 814 271 m 814 543 l 814 679 l 949 679 l 949 543 l 814 543 m 814 679 l 814 815 l 949 815 l 949 679 l 814 679 m 677 948 l 677 1084 l 814 1084 l 814 948 l 677 948 m 677 135 l 677 271 l 814 271 l 814 135 l 677 135 m 677 271 l 677 407 l 814 407 l 814 271 l 677 271 m 677 543 l 677 679 l 814 679 l 814 543 l 677 543 m 677 679 l 677 815 l 814 815 l 814 679 l 677 679 m 541 948 l 541 1084 l 677 1084 l 677 948 l 541 948 m 677 -134 l 677 -269 l 541 -269 l 541 -134 l 677 -134 m 541 -134 l 541 -1 l 677 -1 l 677 -134 l 541 -134 m 541 -1 l 541 135 l 677 135 l 677 -1 l 541 -1 m 541 135 l 541 271 l 677 271 l 677 135 l 541 135 m 541 271 l 541 407 l 677 407 l 677 271 l 541 271 m 541 543 l 541 679 l 677 679 l 677 543 l 541 543 m 541 679 l 541 815 l 677 815 l 677 679 l 541 679 m 408 948 l 408 1084 l 541 1084 l 541 948 l 408 948 m 541 -134 l 541 -269 l 408 -269 l 408 -134 l 541 -134 m 408 -134 l 408 -1 l 541 -1 l 541 -134 l 408 -134 m 408 -1 l 408 135 l 541 135 l 541 -1 l 408 -1 m 408 135 l 408 271 l 541 271 l 541 135 l 408 135 m 408 271 l 408 407 l 541 407 l 541 271 l 408 271 m 408 543 l 408 679 l 541 679 l 541 543 l 408 543 m 408 679 l 408 815 l 541 815 l 541 679 l 408 679 m 272 948 l 272 1084 l 408 1084 l 408 948 l 272 948 m 408 -134 l 408 -269 l 272 -269 l 272 -134 l 408 -134 m 272 -134 l 272 -1 l 408 -1 l 408 -134 l 272 -134 m 136 948 l 136 1084 l 272 1084 l 272 948 l 136 948 m 272 -134 l 272 -269 l 136 -269 l 136 -134 l 272 -134 m 136 -134 l 136 -1 l 272 -1 l 272 -134 l 136 -134 m 0 948 l 0 1084 l 136 1084 l 136 948 l 0 948 m 0 -134 l 0 -1 l 136 -1 l 136 -134 l 0 -134 m 0 -1 l 0 135 l 136 135 l 136 -1 l 0 -1 m 0 135 l 0 271 l 136 271 l 136 135 l 0 135 m 0 271 l 0 407 l 136 407 l 136 271 l 0 271 m 0 407 l 0 543 l 136 543 l 136 407 l 0 407 m 0 543 l 0 679 l 136 679 l 136 543 l 0 543 m 0 679 l 0 815 l 136 815 l 136 679 l 0 679 m 0 815 l 0 948 l 136 948 l 136 815 l 0 815 z "},"g":{"ha":1221,"x_min":0,"x_max":1355,"o":"m 1355 -134 l 1355 -269 l 1221 -269 l 1221 -134 l 1355 -134 m 1221 -134 l 1221 -1 l 1355 -1 l 1355 -134 l 1221 -134 m 1221 -1 l 1221 135 l 1355 135 l 1355 -1 l 1221 -1 m 1221 135 l 1221 271 l 1355 271 l 1355 135 l 1221 135 m 1221 271 l 1221 407 l 1355 407 l 1355 271 l 1221 271 m 1221 407 l 1221 543 l 1355 543 l 1355 407 l 1221 407 m 1221 543 l 1221 679 l 1355 679 l 1355 543 l 1221 543 m 1221 679 l 1221 815 l 1355 815 l 1355 679 l 1221 679 m 1221 -134 l 1221 -269 l 1086 -269 l 1086 -134 l 1221 -134 m 1086 -134 l 1086 -1 l 1221 -1 l 1221 -134 l 1086 -134 m 1086 -1 l 1086 135 l 1221 135 l 1221 -1 l 1086 -1 m 1086 135 l 1086 271 l 1221 271 l 1221 135 l 1086 135 m 1086 271 l 1086 407 l 1221 407 l 1221 271 l 1086 271 m 1086 407 l 1086 543 l 1221 543 l 1221 407 l 1086 407 m 1086 543 l 1086 679 l 1221 679 l 1221 543 l 1086 543 m 1086 679 l 1086 815 l 1221 815 l 1221 679 l 1086 679 m 1086 815 l 1086 948 l 1221 948 l 1221 815 l 1086 815 m 949 948 l 949 1084 l 1086 1084 l 1086 948 l 949 948 m 1086 -134 l 1086 -269 l 949 -269 l 949 -134 l 1086 -134 m 949 -134 l 949 -1 l 1086 -1 l 1086 -134 l 949 -134 m 949 543 l 949 679 l 1086 679 l 1086 543 l 949 543 m 949 815 l 949 948 l 1086 948 l 1086 815 l 949 815 m 814 948 l 814 1084 l 949 1084 l 949 948 l 814 948 m 949 -134 l 949 -269 l 814 -269 l 814 -134 l 949 -134 m 814 -134 l 814 -1 l 949 -1 l 949 -134 l 814 -134 m 814 -1 l 814 135 l 949 135 l 949 -1 l 814 -1 m 814 543 l 814 679 l 949 679 l 949 543 l 814 543 m 677 948 l 677 1084 l 814 1084 l 814 948 l 677 948 m 814 -134 l 814 -269 l 677 -269 l 677 -134 l 814 -134 m 677 -134 l 677 -1 l 814 -1 l 814 -134 l 677 -134 m 677 135 l 677 271 l 814 271 l 814 135 l 677 135 m 677 271 l 677 407 l 814 407 l 814 271 l 677 271 m 677 543 l 677 679 l 814 679 l 814 543 l 677 543 m 677 679 l 677 815 l 814 815 l 814 679 l 677 679 m 541 948 l 541 1084 l 677 1084 l 677 948 l 541 948 m 677 -134 l 677 -269 l 541 -269 l 541 -134 l 677 -134 m 541 -134 l 541 -1 l 677 -1 l 677 -134 l 541 -134 m 541 135 l 541 271 l 677 271 l 677 135 l 541 135 m 541 271 l 541 407 l 677 407 l 677 271 l 541 271 m 541 407 l 541 543 l 677 543 l 677 407 l 541 407 m 541 543 l 541 679 l 677 679 l 677 543 l 541 543 m 541 679 l 541 815 l 677 815 l 677 679 l 541 679 m 408 948 l 408 1084 l 541 1084 l 541 948 l 408 948 m 541 -134 l 541 -269 l 408 -269 l 408 -134 l 541 -134 m 408 -134 l 408 -1 l 541 -1 l 541 -134 l 408 -134 m 408 135 l 408 271 l 541 271 l 541 135 l 408 135 m 408 271 l 408 407 l 541 407 l 541 271 l 408 271 m 408 407 l 408 543 l 541 543 l 541 407 l 408 407 m 408 543 l 408 679 l 541 679 l 541 543 l 408 543 m 408 679 l 408 815 l 541 815 l 541 679 l 408 679 m 272 948 l 272 1084 l 408 1084 l 408 948 l 272 948 m 408 -134 l 408 -269 l 272 -269 l 272 -134 l 408 -134 m 272 -134 l 272 -1 l 408 -1 l 408 -134 l 272 -134 m 136 948 l 136 1084 l 272 1084 l 272 948 l 136 948 m 136 -134 l 136 -1 l 272 -1 l 272 -134 l 136 -134 m 136 -1 l 136 135 l 272 135 l 272 -1 l 136 -1 m 136 815 l 136 948 l 272 948 l 272 815 l 136 815 m 0 -1 l 0 135 l 136 135 l 136 -1 l 0 -1 m 0 135 l 0 271 l 136 271 l 136 135 l 0 135 m 0 271 l 0 407 l 136 407 l 136 271 l 0 271 m 0 407 l 0 543 l 136 543 l 136 407 l 0 407 m 0 543 l 0 679 l 136 679 l 136 543 l 0 543 m 0 679 l 0 815 l 136 815 l 136 679 l 0 679 m 0 815 l 0 948 l 136 948 l 136 815 l 0 815 z "},"h":{"ha":1221,"x_min":0,"x_max":1355,"o":"m 1355 -134 l 1355 -269 l 1221 -269 l 1221 -134 l 1355 -134 m 1221 -134 l 1221 -1 l 1355 -1 l 1355 -134 l 1221 -134 m 1221 -1 l 1221 135 l 1355 135 l 1355 -1 l 1221 -1 m 1221 135 l 1221 271 l 1355 271 l 1355 135 l 1221 135 m 1221 271 l 1221 407 l 1355 407 l 1355 271 l 1221 271 m 1221 407 l 1221 543 l 1355 543 l 1355 407 l 1221 407 m 1221 543 l 1221 679 l 1355 679 l 1355 543 l 1221 543 m 1221 679 l 1221 815 l 1355 815 l 1355 679 l 1221 679 m 1221 815 l 1221 948 l 1355 948 l 1355 815 l 1221 815 m 1086 948 l 1086 1084 l 1221 1084 l 1221 948 l 1086 948 m 1221 -134 l 1221 -269 l 1086 -269 l 1086 -134 l 1221 -134 m 1086 -134 l 1086 -1 l 1221 -1 l 1221 -134 l 1086 -134 m 1086 -1 l 1086 135 l 1221 135 l 1221 -1 l 1086 -1 m 1086 135 l 1086 271 l 1221 271 l 1221 135 l 1086 135 m 1086 271 l 1086 407 l 1221 407 l 1221 271 l 1086 271 m 1086 407 l 1086 543 l 1221 543 l 1221 407 l 1086 407 m 1086 543 l 1086 679 l 1221 679 l 1221 543 l 1086 543 m 1086 679 l 1086 815 l 1221 815 l 1221 679 l 1086 679 m 1086 815 l 1086 948 l 1221 948 l 1221 815 l 1086 815 m 949 948 l 949 1084 l 1086 1084 l 1086 948 l 949 948 m 1086 -134 l 1086 -269 l 949 -269 l 949 -134 l 1086 -134 m 949 -134 l 949 -1 l 1086 -1 l 1086 -134 l 949 -134 m 814 948 l 814 1084 l 949 1084 l 949 948 l 814 948 m 949 -134 l 949 -269 l 814 -269 l 814 -134 l 949 -134 m 814 -134 l 814 -1 l 949 -1 l 949 -134 l 814 -134 m 677 948 l 677 1084 l 814 1084 l 814 948 l 677 948 m 677 -134 l 677 -1 l 814 -1 l 814 -134 l 677 -134 m 677 -1 l 677 135 l 814 135 l 814 -1 l 677 -1 m 677 135 l 677 271 l 814 271 l 814 135 l 677 135 m 677 271 l 677 407 l 814 407 l 814 271 l 677 271 m 677 543 l 677 679 l 814 679 l 814 543 l 677 543 m 677 679 l 677 815 l 814 815 l 814 679 l 677 679 m 677 815 l 677 948 l 814 948 l 814 815 l 677 815 m 677 -134 l 677 -269 l 541 -269 l 541 -134 l 677 -134 m 541 -134 l 541 -1 l 677 -1 l 677 -134 l 541 -134 m 541 -1 l 541 135 l 677 135 l 677 -1 l 541 -1 m 541 135 l 541 271 l 677 271 l 677 135 l 541 135 m 541 271 l 541 407 l 677 407 l 677 271 l 541 271 m 541 543 l 541 679 l 677 679 l 677 543 l 541 543 m 541 679 l 541 815 l 677 815 l 677 679 l 541 679 m 541 815 l 541 948 l 677 948 l 677 815 l 541 815 m 408 948 l 408 1084 l 541 1084 l 541 948 l 408 948 m 541 -134 l 541 -269 l 408 -269 l 408 -134 l 541 -134 m 408 -134 l 408 -1 l 541 -1 l 541 -134 l 408 -134 m 408 -1 l 408 135 l 541 135 l 541 -1 l 408 -1 m 408 135 l 408 271 l 541 271 l 541 135 l 408 135 m 408 271 l 408 407 l 541 407 l 541 271 l 408 271 m 408 543 l 408 679 l 541 679 l 541 543 l 408 543 m 408 679 l 408 815 l 541 815 l 541 679 l 408 679 m 408 815 l 408 948 l 541 948 l 541 815 l 408 815 m 272 948 l 272 1084 l 408 1084 l 408 948 l 272 948 m 408 -134 l 408 -269 l 272 -269 l 272 -134 l 408 -134 m 272 -134 l 272 -1 l 408 -1 l 408 -134 l 272 -134 m 136 948 l 136 1084 l 272 1084 l 272 948 l 136 948 m 272 -134 l 272 -269 l 136 -269 l 136 -134 l 272 -134 m 136 -134 l 136 -1 l 272 -1 l 272 -134 l 136 -134 m 0 948 l 0 1084 l 136 1084 l 136 948 l 0 948 m 0 -134 l 0 -1 l 136 -1 l 136 -134 l 0 -134 m 0 -1 l 0 135 l 136 135 l 136 -1 l 0 -1 m 0 135 l 0 271 l 136 271 l 136 135 l 0 135 m 0 271 l 0 407 l 136 407 l 136 271 l 0 271 m 0 407 l 0 543 l 136 543 l 136 407 l 0 407 m 0 543 l 0 679 l 136 679 l 136 543 l 0 543 m 0 679 l 0 815 l 136 815 l 136 679 l 0 679 m 0 815 l 0 948 l 136 948 l 136 815 l 0 815 z "},"i":{"ha":541,"x_min":0,"x_max":677,"o":"m 677 -134 l 677 -269 l 541 -269 l 541 -134 l 677 -134 m 541 -134 l 541 -1 l 677 -1 l 677 -134 l 541 -134 m 541 -1 l 541 135 l 677 135 l 677 -1 l 541 -1 m 541 135 l 541 271 l 677 271 l 677 135 l 541 135 m 541 271 l 541 407 l 677 407 l 677 271 l 541 271 m 541 407 l 541 543 l 677 543 l 677 407 l 541 407 m 541 543 l 541 679 l 677 679 l 677 543 l 541 543 m 541 679 l 541 815 l 677 815 l 677 679 l 541 679 m 541 815 l 541 948 l 677 948 l 677 815 l 541 815 m 408 948 l 408 1084 l 541 1084 l 541 948 l 408 948 m 541 -134 l 541 -269 l 408 -269 l 408 -134 l 541 -134 m 408 -134 l 408 -1 l 541 -1 l 541 -134 l 408 -134 m 408 -1 l 408 135 l 541 135 l 541 -1 l 408 -1 m 408 135 l 408 271 l 541 271 l 541 135 l 408 135 m 408 271 l 408 407 l 541 407 l 541 271 l 408 271 m 408 407 l 408 543 l 541 543 l 541 407 l 408 407 m 408 543 l 408 679 l 541 679 l 541 543 l 408 543 m 408 679 l 408 815 l 541 815 l 541 679 l 408 679 m 408 815 l 408 948 l 541 948 l 541 815 l 408 815 m 272 948 l 272 1084 l 408 1084 l 408 948 l 272 948 m 408 -134 l 408 -269 l 272 -269 l 272 -134 l 408 -134 m 272 -134 l 272 -1 l 408 -1 l 408 -134 l 272 -134 m 136 948 l 136 1084 l 272 1084 l 272 948 l 136 948 m 272 -134 l 272 -269 l 136 -269 l 136 -134 l 272 -134 m 136 -134 l 136 -1 l 272 -1 l 272 -134 l 136 -134 m 0 948 l 0 1084 l 136 1084 l 136 948 l 0 948 m 0 -134 l 0 -1 l 136 -1 l 136 -134 l 0 -134 m 0 -1 l 0 135 l 136 135 l 136 -1 l 0 -1 m 0 135 l 0 271 l 136 271 l 136 135 l 0 135 m 0 271 l 0 407 l 136 407 l 136 271 l 0 271 m 0 407 l 0 543 l 136 543 l 136 407 l 0 407 m 0 543 l 0 679 l 136 679 l 136 543 l 0 543 m 0 679 l 0 815 l 136 815 l 136 679 l 0 679 m 0 815 l 0 948 l 136 948 l 136 815 l 0 815 z "},"j":{"ha":1221,"x_min":0,"x_max":1355,"o":"m 1221 -134 l 1221 -1 l 1355 -1 l 1355 -134 l 1221 -134 m 1221 -1 l 1221 135 l 1355 135 l 1355 -1 l 1221 -1 m 1221 135 l 1221 271 l 1355 271 l 1355 135 l 1221 135 m 1221 271 l 1221 407 l 1355 407 l 1355 271 l 1221 271 m 1221 407 l 1221 543 l 1355 543 l 1355 407 l 1221 407 m 1221 543 l 1221 679 l 1355 679 l 1355 543 l 1221 543 m 1221 679 l 1221 815 l 1355 815 l 1355 679 l 1221 679 m 1221 815 l 1221 948 l 1355 948 l 1355 815 l 1221 815 m 1086 948 l 1086 1084 l 1221 1084 l 1221 948 l 1086 948 m 1221 -134 l 1221 -269 l 1086 -269 l 1086 -134 l 1221 -134 m 1086 -134 l 1086 -1 l 1221 -1 l 1221 -134 l 1086 -134 m 1086 -1 l 1086 135 l 1221 135 l 1221 -1 l 1086 -1 m 1086 135 l 1086 271 l 1221 271 l 1221 135 l 1086 135 m 1086 271 l 1086 407 l 1221 407 l 1221 271 l 1086 271 m 1086 407 l 1086 543 l 1221 543 l 1221 407 l 1086 407 m 1086 543 l 1086 679 l 1221 679 l 1221 543 l 1086 543 m 1086 679 l 1086 815 l 1221 815 l 1221 679 l 1086 679 m 1086 815 l 1086 948 l 1221 948 l 1221 815 l 1086 815 m 949 948 l 949 1084 l 1086 1084 l 1086 948 l 949 948 m 1086 -134 l 1086 -269 l 949 -269 l 949 -134 l 1086 -134 m 949 -134 l 949 -1 l 1086 -1 l 1086 -134 l 949 -134 m 949 -1 l 949 135 l 1086 135 l 1086 -1 l 949 -1 m 814 948 l 814 1084 l 949 1084 l 949 948 l 814 948 m 949 -134 l 949 -269 l 814 -269 l 814 -134 l 949 -134 m 814 -134 l 814 -1 l 949 -1 l 949 -134 l 814 -134 m 677 948 l 677 1084 l 814 1084 l 814 948 l 677 948 m 814 -134 l 814 -269 l 677 -269 l 677 -134 l 814 -134 m 677 -134 l 677 -1 l 814 -1 l 814 -134 l 677 -134 m 677 135 l 677 271 l 814 271 l 814 135 l 677 135 m 677 271 l 677 407 l 814 407 l 814 271 l 677 271 m 677 407 l 677 543 l 814 543 l 814 407 l 677 407 m 677 543 l 677 679 l 814 679 l 814 543 l 677 543 m 677 679 l 677 815 l 814 815 l 814 679 l 677 679 m 677 815 l 677 948 l 814 948 l 814 815 l 677 815 m 677 -134 l 677 -269 l 541 -269 l 541 -134 l 677 -134 m 541 -134 l 541 -1 l 677 -1 l 677 -134 l 541 -134 m 541 135 l 541 271 l 677 271 l 677 135 l 541 135 m 541 271 l 541 407 l 677 407 l 677 271 l 541 271 m 541 407 l 541 543 l 677 543 l 677 407 l 541 407 m 541 -134 l 541 -269 l 408 -269 l 408 -134 l 541 -134 m 408 -134 l 408 -1 l 541 -1 l 541 -134 l 408 -134 m 408 135 l 408 271 l 541 271 l 541 135 l 408 135 m 408 271 l 408 407 l 541 407 l 541 271 l 408 271 m 408 407 l 408 543 l 541 543 l 541 407 l 408 407 m 408 -134 l 408 -269 l 272 -269 l 272 -134 l 408 -134 m 272 -134 l 272 -1 l 408 -1 l 408 -134 l 272 -134 m 272 407 l 272 543 l 408 543 l 408 407 l 272 407 m 136 -134 l 136 -1 l 272 -1 l 272 -134 l 136 -134 m 136 -1 l 136 135 l 272 135 l 272 -1 l 136 -1 m 136 407 l 136 543 l 272 543 l 272 407 l 136 407 m 0 -1 l 0 135 l 136 135 l 136 -1 l 0 -1 m 0 135 l 0 271 l 136 271 l 136 135 l 0 135 m 0 271 l 0 407 l 136 407 l 136 271 l 0 271 m 0 407 l 0 543 l 136 543 l 136 407 l 0 407 z "},"k":{"ha":1221,"x_min":0,"x_max":1355,"o":"m 1355 -134 l 1355 -269 l 1221 -269 l 1221 -134 l 1355 -134 m 1221 -134 l 1221 -1 l 1355 -1 l 1355 -134 l 1221 -134 m 1221 -1 l 1221 135 l 1355 135 l 1355 -1 l 1221 -1 m 1221 543 l 1221 679 l 1355 679 l 1355 543 l 1221 543 m 1221 679 l 1221 815 l 1355 815 l 1355 679 l 1221 679 m 1221 815 l 1221 948 l 1355 948 l 1355 815 l 1221 815 m 1086 948 l 1086 1084 l 1221 1084 l 1221 948 l 1086 948 m 1221 -134 l 1221 -269 l 1086 -269 l 1086 -134 l 1221 -134 m 1086 -134 l 1086 -1 l 1221 -1 l 1221 -134 l 1086 -134 m 1086 -1 l 1086 135 l 1221 135 l 1221 -1 l 1086 -1 m 1086 135 l 1086 271 l 1221 271 l 1221 135 l 1086 135 m 1086 407 l 1086 543 l 1221 543 l 1221 407 l 1086 407 m 1086 543 l 1086 679 l 1221 679 l 1221 543 l 1086 543 m 1086 679 l 1086 815 l 1221 815 l 1221 679 l 1086 679 m 1086 815 l 1086 948 l 1221 948 l 1221 815 l 1086 815 m 949 948 l 949 1084 l 1086 1084 l 1086 948 l 949 948 m 1086 -134 l 1086 -269 l 949 -269 l 949 -134 l 1086 -134 m 949 -134 l 949 -1 l 1086 -1 l 1086 -134 l 949 -134 m 949 135 l 949 271 l 1086 271 l 1086 135 l 949 135 m 949 271 l 949 407 l 1086 407 l 1086 271 l 949 271 m 949 407 l 949 543 l 1086 543 l 1086 407 l 949 407 m 949 543 l 949 679 l 1086 679 l 1086 543 l 949 543 m 949 679 l 949 815 l 1086 815 l 1086 679 l 949 679 m 814 948 l 814 1084 l 949 1084 l 949 948 l 814 948 m 949 -134 l 949 -269 l 814 -269 l 814 -134 l 949 -134 m 814 -134 l 814 -1 l 949 -1 l 949 -134 l 814 -134 m 814 271 l 814 407 l 949 407 l 949 271 l 814 271 m 814 407 l 814 543 l 949 543 l 949 407 l 814 407 m 814 543 l 814 679 l 949 679 l 949 543 l 814 543 m 677 948 l 677 1084 l 814 1084 l 814 948 l 677 948 m 677 -134 l 677 -1 l 814 -1 l 814 -134 l 677 -134 m 677 -1 l 677 135 l 814 135 l 814 -1 l 677 -1 m 677 407 l 677 543 l 814 543 l 814 407 l 677 407 m 677 815 l 677 948 l 814 948 l 814 815 l 677 815 m 677 -134 l 677 -269 l 541 -269 l 541 -134 l 677 -134 m 541 -134 l 541 -1 l 677 -1 l 677 -134 l 541 -134 m 541 -1 l 541 135 l 677 135 l 677 -1 l 541 -1 m 541 135 l 541 271 l 677 271 l 677 135 l 541 135 m 541 679 l 541 815 l 677 815 l 677 679 l 541 679 m 541 815 l 541 948 l 677 948 l 677 815 l 541 815 m 408 948 l 408 1084 l 541 1084 l 541 948 l 408 948 m 541 -134 l 541 -269 l 408 -269 l 408 -134 l 541 -134 m 408 -134 l 408 -1 l 541 -1 l 541 -134 l 408 -134 m 408 -1 l 408 135 l 541 135 l 541 -1 l 408 -1 m 408 135 l 408 271 l 541 271 l 541 135 l 408 135 m 408 271 l 408 407 l 541 407 l 541 271 l 408 271 m 408 543 l 408 679 l 541 679 l 541 543 l 408 543 m 408 679 l 408 815 l 541 815 l 541 679 l 408 679 m 408 815 l 408 948 l 541 948 l 541 815 l 408 815 m 272 948 l 272 1084 l 408 1084 l 408 948 l 272 948 m 408 -134 l 408 -269 l 272 -269 l 272 -134 l 408 -134 m 272 -134 l 272 -1 l 408 -1 l 408 -134 l 272 -134 m 136 948 l 136 1084 l 272 1084 l 272 948 l 136 948 m 272 -134 l 272 -269 l 136 -269 l 136 -134 l 272 -134 m 136 -134 l 136 -1 l 272 -1 l 272 -134 l 136 -134 m 0 948 l 0 1084 l 136 1084 l 136 948 l 0 948 m 0 -134 l 0 -1 l 136 -1 l 136 -134 l 0 -134 m 0 -1 l 0 135 l 136 135 l 136 -1 l 0 -1 m 0 135 l 0 271 l 136 271 l 136 135 l 0 135 m 0 271 l 0 407 l 136 407 l 136 271 l 0 271 m 0 407 l 0 543 l 136 543 l 136 407 l 0 407 m 0 543 l 0 679 l 136 679 l 136 543 l 0 543 m 0 679 l 0 815 l 136 815 l 136 679 l 0 679 m 0 815 l 0 948 l 136 948 l 136 815 l 0 815 z "},"l":{"ha":1086,"x_min":0,"x_max":1221,"o":"m 1221 -134 l 1221 -269 l 1086 -269 l 1086 -134 l 1221 -134 m 1086 -134 l 1086 -1 l 1221 -1 l 1221 -134 l 1086 -134 m 1086 -1 l 1086 135 l 1221 135 l 1221 -1 l 1086 -1 m 1086 -134 l 1086 -269 l 949 -269 l 949 -134 l 1086 -134 m 949 -134 l 949 -1 l 1086 -1 l 1086 -134 l 949 -134 m 949 -1 l 949 135 l 1086 135 l 1086 -1 l 949 -1 m 949 135 l 949 271 l 1086 271 l 1086 135 l 949 135 m 949 -134 l 949 -269 l 814 -269 l 814 -134 l 949 -134 m 814 -134 l 814 -1 l 949 -1 l 949 -134 l 814 -134 m 814 135 l 814 271 l 949 271 l 949 135 l 814 135 m 814 -134 l 814 -269 l 677 -269 l 677 -134 l 814 -134 m 677 -134 l 677 -1 l 814 -1 l 814 -134 l 677 -134 m 677 135 l 677 271 l 814 271 l 814 135 l 677 135 m 677 -134 l 677 -269 l 541 -269 l 541 -134 l 677 -134 m 541 -134 l 541 -1 l 677 -1 l 677 -134 l 541 -134 m 541 135 l 541 271 l 677 271 l 677 135 l 541 135 m 541 271 l 541 407 l 677 407 l 677 271 l 541 271 m 541 407 l 541 543 l 677 543 l 677 407 l 541 407 m 541 543 l 541 679 l 677 679 l 677 543 l 541 543 m 541 679 l 541 815 l 677 815 l 677 679 l 541 679 m 541 815 l 541 948 l 677 948 l 677 815 l 541 815 m 408 948 l 408 1084 l 541 1084 l 541 948 l 408 948 m 541 -134 l 541 -269 l 408 -269 l 408 -134 l 541 -134 m 408 -134 l 408 -1 l 541 -1 l 541 -134 l 408 -134 m 408 135 l 408 271 l 541 271 l 541 135 l 408 135 m 408 271 l 408 407 l 541 407 l 541 271 l 408 271 m 408 407 l 408 543 l 541 543 l 541 407 l 408 407 m 408 543 l 408 679 l 541 679 l 541 543 l 408 543 m 408 679 l 408 815 l 541 815 l 541 679 l 408 679 m 408 815 l 408 948 l 541 948 l 541 815 l 408 815 m 272 948 l 272 1084 l 408 1084 l 408 948 l 272 948 m 408 -134 l 408 -269 l 272 -269 l 272 -134 l 408 -134 m 272 -134 l 272 -1 l 408 -1 l 408 -134 l 272 -134 m 136 948 l 136 1084 l 272 1084 l 272 948 l 136 948 m 272 -134 l 272 -269 l 136 -269 l 136 -134 l 272 -134 m 136 -134 l 136 -1 l 272 -1 l 272 -134 l 136 -134 m 0 948 l 0 1084 l 136 1084 l 136 948 l 0 948 m 0 -134 l 0 -1 l 136 -1 l 136 -134 l 0 -134 m 0 -1 l 0 135 l 136 135 l 136 -1 l 0 -1 m 0 135 l 0 271 l 136 271 l 136 135 l 0 135 m 0 271 l 0 407 l 136 407 l 136 271 l 0 271 m 0 407 l 0 543 l 136 543 l 136 407 l 0 407 m 0 543 l 0 679 l 136 679 l 136 543 l 0 543 m 0 679 l 0 815 l 136 815 l 136 679 l 0 679 m 0 815 l 0 948 l 136 948 l 136 815 l 0 815 z "},"m":{"ha":1221,"x_min":0,"x_max":1355,"o":"m 1355 -134 l 1355 -269 l 1221 -269 l 1221 -134 l 1355 -134 m 1221 -134 l 1221 -1 l 1355 -1 l 1355 -134 l 1221 -134 m 1221 -1 l 1221 135 l 1355 135 l 1355 -1 l 1221 -1 m 1221 135 l 1221 271 l 1355 271 l 1355 135 l 1221 135 m 1221 271 l 1221 407 l 1355 407 l 1355 271 l 1221 271 m 1221 407 l 1221 543 l 1355 543 l 1355 407 l 1221 407 m 1221 543 l 1221 679 l 1355 679 l 1355 543 l 1221 543 m 1221 679 l 1221 815 l 1355 815 l 1355 679 l 1221 679 m 1221 815 l 1221 948 l 1355 948 l 1355 815 l 1221 815 m 1086 948 l 1086 1084 l 1221 1084 l 1221 948 l 1086 948 m 1221 -134 l 1221 -269 l 1086 -269 l 1086 -134 l 1221 -134 m 1086 -134 l 1086 -1 l 1221 -1 l 1221 -134 l 1086 -134 m 1086 -1 l 1086 135 l 1221 135 l 1221 -1 l 1086 -1 m 1086 135 l 1086 271 l 1221 271 l 1221 135 l 1086 135 m 1086 271 l 1086 407 l 1221 407 l 1221 271 l 1086 271 m 1086 407 l 1086 543 l 1221 543 l 1221 407 l 1086 407 m 1086 543 l 1086 679 l 1221 679 l 1221 543 l 1086 543 m 1086 679 l 1086 815 l 1221 815 l 1221 679 l 1086 679 m 1086 815 l 1086 948 l 1221 948 l 1221 815 l 1086 815 m 949 948 l 949 1084 l 1086 1084 l 1086 948 l 949 948 m 1086 -134 l 1086 -269 l 949 -269 l 949 -134 l 1086 -134 m 949 -134 l 949 -1 l 1086 -1 l 1086 -134 l 949 -134 m 814 948 l 814 1084 l 949 1084 l 949 948 l 814 948 m 949 -134 l 949 -269 l 814 -269 l 814 -134 l 949 -134 m 814 -134 l 814 -1 l 949 -1 l 949 -134 l 814 -134 m 677 948 l 677 1084 l 814 1084 l 814 948 l 677 948 m 677 -134 l 677 -1 l 814 -1 l 814 -134 l 677 -134 m 677 -1 l 677 135 l 814 135 l 814 -1 l 677 -1 m 677 135 l 677 271 l 814 271 l 814 135 l 677 135 m 677 271 l 677 407 l 814 407 l 814 271 l 677 271 m 677 407 l 677 543 l 814 543 l 814 407 l 677 407 m 677 815 l 677 948 l 814 948 l 814 815 l 677 815 m 677 -134 l 677 -269 l 541 -269 l 541 -134 l 677 -134 m 541 -134 l 541 -1 l 677 -1 l 677 -134 l 541 -134 m 541 -1 l 541 135 l 677 135 l 677 -1 l 541 -1 m 541 135 l 541 271 l 677 271 l 677 135 l 541 135 m 541 271 l 541 407 l 677 407 l 677 271 l 541 271 m 541 679 l 541 815 l 677 815 l 677 679 l 541 679 m 541 815 l 541 948 l 677 948 l 677 815 l 541 815 m 408 948 l 408 1084 l 541 1084 l 541 948 l 408 948 m 541 -134 l 541 -269 l 408 -269 l 408 -134 l 541 -134 m 408 -134 l 408 -1 l 541 -1 l 541 -134 l 408 -134 m 408 -1 l 408 135 l 541 135 l 541 -1 l 408 -1 m 408 135 l 408 271 l 541 271 l 541 135 l 408 135 m 408 271 l 408 407 l 541 407 l 541 271 l 408 271 m 408 407 l 408 543 l 541 543 l 541 407 l 408 407 m 408 815 l 408 948 l 541 948 l 541 815 l 408 815 m 272 948 l 272 1084 l 408 1084 l 408 948 l 272 948 m 408 -134 l 408 -269 l 272 -269 l 272 -134 l 408 -134 m 272 -134 l 272 -1 l 408 -1 l 408 -134 l 272 -134 m 136 948 l 136 1084 l 272 1084 l 272 948 l 136 948 m 272 -134 l 272 -269 l 136 -269 l 136 -134 l 272 -134 m 136 -134 l 136 -1 l 272 -1 l 272 -134 l 136 -134 m 0 948 l 0 1084 l 136 1084 l 136 948 l 0 948 m 0 -134 l 0 -1 l 136 -1 l 136 -134 l 0 -134 m 0 -1 l 0 135 l 136 135 l 136 -1 l 0 -1 m 0 135 l 0 271 l 136 271 l 136 135 l 0 135 m 0 271 l 0 407 l 136 407 l 136 271 l 0 271 m 0 407 l 0 543 l 136 543 l 136 407 l 0 407 m 0 543 l 0 679 l 136 679 l 136 543 l 0 543 m 0 679 l 0 815 l 136 815 l 136 679 l 0 679 m 0 815 l 0 948 l 136 948 l 136 815 l 0 815 z "},"n":{"ha":1221,"x_min":0,"x_max":1355,"o":"m 1355 -134 l 1355 -269 l 1221 -269 l 1221 -134 l 1355 -134 m 1221 -134 l 1221 -1 l 1355 -1 l 1355 -134 l 1221 -134 m 1221 -1 l 1221 135 l 1355 135 l 1355 -1 l 1221 -1 m 1221 135 l 1221 271 l 1355 271 l 1355 135 l 1221 135 m 1221 271 l 1221 407 l 1355 407 l 1355 271 l 1221 271 m 1221 407 l 1221 543 l 1355 543 l 1355 407 l 1221 407 m 1221 543 l 1221 679 l 1355 679 l 1355 543 l 1221 543 m 1221 679 l 1221 815 l 1355 815 l 1355 679 l 1221 679 m 1221 815 l 1221 948 l 1355 948 l 1355 815 l 1221 815 m 1086 948 l 1086 1084 l 1221 1084 l 1221 948 l 1086 948 m 1221 -134 l 1221 -269 l 1086 -269 l 1086 -134 l 1221 -134 m 1086 -134 l 1086 -1 l 1221 -1 l 1221 -134 l 1086 -134 m 1086 -1 l 1086 135 l 1221 135 l 1221 -1 l 1086 -1 m 1086 135 l 1086 271 l 1221 271 l 1221 135 l 1086 135 m 1086 271 l 1086 407 l 1221 407 l 1221 271 l 1086 271 m 1086 407 l 1086 543 l 1221 543 l 1221 407 l 1086 407 m 1086 543 l 1086 679 l 1221 679 l 1221 543 l 1086 543 m 1086 679 l 1086 815 l 1221 815 l 1221 679 l 1086 679 m 1086 815 l 1086 948 l 1221 948 l 1221 815 l 1086 815 m 949 948 l 949 1084 l 1086 1084 l 1086 948 l 949 948 m 1086 -134 l 1086 -269 l 949 -269 l 949 -134 l 1086 -134 m 949 -134 l 949 -1 l 1086 -1 l 1086 -134 l 949 -134 m 814 948 l 814 1084 l 949 1084 l 949 948 l 814 948 m 949 -134 l 949 -269 l 814 -269 l 814 -134 l 949 -134 m 814 -134 l 814 -1 l 949 -1 l 949 -134 l 814 -134 m 677 948 l 677 1084 l 814 1084 l 814 948 l 677 948 m 677 -134 l 677 -1 l 814 -1 l 814 -134 l 677 -134 m 677 -1 l 677 135 l 814 135 l 814 -1 l 677 -1 m 677 135 l 677 271 l 814 271 l 814 135 l 677 135 m 677 543 l 677 679 l 814 679 l 814 543 l 677 543 m 677 679 l 677 815 l 814 815 l 814 679 l 677 679 m 677 815 l 677 948 l 814 948 l 814 815 l 677 815 m 677 -134 l 677 -269 l 541 -269 l 541 -134 l 677 -134 m 541 -134 l 541 -1 l 677 -1 l 677 -134 l 541 -134 m 541 -1 l 541 135 l 677 135 l 677 -1 l 541 -1 m 541 135 l 541 271 l 677 271 l 677 135 l 541 135 m 541 271 l 541 407 l 677 407 l 677 271 l 541 271 m 541 679 l 541 815 l 677 815 l 677 679 l 541 679 m 541 815 l 541 948 l 677 948 l 677 815 l 541 815 m 408 948 l 408 1084 l 541 1084 l 541 948 l 408 948 m 541 -134 l 541 -269 l 408 -269 l 408 -134 l 541 -134 m 408 -134 l 408 -1 l 541 -1 l 541 -134 l 408 -134 m 408 -1 l 408 135 l 541 135 l 541 -1 l 408 -1 m 408 135 l 408 271 l 541 271 l 541 135 l 408 135 m 408 271 l 408 407 l 541 407 l 541 271 l 408 271 m 408 407 l 408 543 l 541 543 l 541 407 l 408 407 m 408 815 l 408 948 l 541 948 l 541 815 l 408 815 m 272 948 l 272 1084 l 408 1084 l 408 948 l 272 948 m 408 -134 l 408 -269 l 272 -269 l 272 -134 l 408 -134 m 272 -134 l 272 -1 l 408 -1 l 408 -134 l 272 -134 m 136 948 l 136 1084 l 272 1084 l 272 948 l 136 948 m 272 -134 l 272 -269 l 136 -269 l 136 -134 l 272 -134 m 136 -134 l 136 -1 l 272 -1 l 272 -134 l 136 -134 m 0 948 l 0 1084 l 136 1084 l 136 948 l 0 948 m 0 -134 l 0 -1 l 136 -1 l 136 -134 l 0 -134 m 0 -1 l 0 135 l 136 135 l 136 -1 l 0 -1 m 0 135 l 0 271 l 136 271 l 136 135 l 0 135 m 0 271 l 0 407 l 136 407 l 136 271 l 0 271 m 0 407 l 0 543 l 136 543 l 136 407 l 0 407 m 0 543 l 0 679 l 136 679 l 136 543 l 0 543 m 0 679 l 0 815 l 136 815 l 136 679 l 0 679 m 0 815 l 0 948 l 136 948 l 136 815 l 0 815 z "},"o":{"ha":1221,"x_min":0,"x_max":1355,"o":"m 1221 -134 l 1221 -1 l 1355 -1 l 1355 -134 l 1221 -134 m 1221 -1 l 1221 135 l 1355 135 l 1355 -1 l 1221 -1 m 1221 135 l 1221 271 l 1355 271 l 1355 135 l 1221 135 m 1221 271 l 1221 407 l 1355 407 l 1355 271 l 1221 271 m 1221 407 l 1221 543 l 1355 543 l 1355 407 l 1221 407 m 1221 543 l 1221 679 l 1355 679 l 1355 543 l 1221 543 m 1221 679 l 1221 815 l 1355 815 l 1355 679 l 1221 679 m 1221 -134 l 1221 -269 l 1086 -269 l 1086 -134 l 1221 -134 m 1086 -134 l 1086 -1 l 1221 -1 l 1221 -134 l 1086 -134 m 1086 -1 l 1086 135 l 1221 135 l 1221 -1 l 1086 -1 m 1086 135 l 1086 271 l 1221 271 l 1221 135 l 1086 135 m 1086 271 l 1086 407 l 1221 407 l 1221 271 l 1086 271 m 1086 407 l 1086 543 l 1221 543 l 1221 407 l 1086 407 m 1086 543 l 1086 679 l 1221 679 l 1221 543 l 1086 543 m 1086 679 l 1086 815 l 1221 815 l 1221 679 l 1086 679 m 1086 815 l 1086 948 l 1221 948 l 1221 815 l 1086 815 m 949 948 l 949 1084 l 1086 1084 l 1086 948 l 949 948 m 1086 -134 l 1086 -269 l 949 -269 l 949 -134 l 1086 -134 m 949 -134 l 949 -1 l 1086 -1 l 1086 -134 l 949 -134 m 949 -1 l 949 135 l 1086 135 l 1086 -1 l 949 -1 m 949 815 l 949 948 l 1086 948 l 1086 815 l 949 815 m 814 948 l 814 1084 l 949 1084 l 949 948 l 814 948 m 949 -134 l 949 -269 l 814 -269 l 814 -134 l 949 -134 m 814 -134 l 814 -1 l 949 -1 l 949 -134 l 814 -134 m 677 948 l 677 1084 l 814 1084 l 814 948 l 677 948 m 814 -134 l 814 -269 l 677 -269 l 677 -134 l 814 -134 m 677 -134 l 677 -1 l 814 -1 l 814 -134 l 677 -134 m 677 135 l 677 271 l 814 271 l 814 135 l 677 135 m 677 271 l 677 407 l 814 407 l 814 271 l 677 271 m 677 407 l 677 543 l 814 543 l 814 407 l 677 407 m 677 543 l 677 679 l 814 679 l 814 543 l 677 543 m 677 679 l 677 815 l 814 815 l 814 679 l 677 679 m 541 948 l 541 1084 l 677 1084 l 677 948 l 541 948 m 677 -134 l 677 -269 l 541 -269 l 541 -134 l 677 -134 m 541 -134 l 541 -1 l 677 -1 l 677 -134 l 541 -134 m 541 135 l 541 271 l 677 271 l 677 135 l 541 135 m 541 271 l 541 407 l 677 407 l 677 271 l 541 271 m 541 407 l 541 543 l 677 543 l 677 407 l 541 407 m 541 543 l 541 679 l 677 679 l 677 543 l 541 543 m 541 679 l 541 815 l 677 815 l 677 679 l 541 679 m 408 948 l 408 1084 l 541 1084 l 541 948 l 408 948 m 541 -134 l 541 -269 l 408 -269 l 408 -134 l 541 -134 m 408 -134 l 408 -1 l 541 -1 l 541 -134 l 408 -134 m 408 135 l 408 271 l 541 271 l 541 135 l 408 135 m 408 271 l 408 407 l 541 407 l 541 271 l 408 271 m 408 407 l 408 543 l 541 543 l 541 407 l 408 407 m 408 543 l 408 679 l 541 679 l 541 543 l 408 543 m 408 679 l 408 815 l 541 815 l 541 679 l 408 679 m 272 948 l 272 1084 l 408 1084 l 408 948 l 272 948 m 408 -134 l 408 -269 l 272 -269 l 272 -134 l 408 -134 m 272 -134 l 272 -1 l 408 -1 l 408 -134 l 272 -134 m 136 948 l 136 1084 l 272 1084 l 272 948 l 136 948 m 136 -134 l 136 -1 l 272 -1 l 272 -134 l 136 -134 m 136 -1 l 136 135 l 272 135 l 272 -1 l 136 -1 m 136 815 l 136 948 l 272 948 l 272 815 l 136 815 m 0 -1 l 0 135 l 136 135 l 136 -1 l 0 -1 m 0 135 l 0 271 l 136 271 l 136 135 l 0 135 m 0 271 l 0 407 l 136 407 l 136 271 l 0 271 m 0 407 l 0 543 l 136 543 l 136 407 l 0 407 m 0 543 l 0 679 l 136 679 l 136 543 l 0 543 m 0 679 l 0 815 l 136 815 l 136 679 l 0 679 m 0 815 l 0 948 l 136 948 l 136 815 l 0 815 z "},"p":{"ha":1221,"x_min":0,"x_max":1355,"o":"m 1221 135 l 1221 271 l 1355 271 l 1355 135 l 1221 135 m 1221 271 l 1221 407 l 1355 407 l 1355 271 l 1221 271 m 1221 407 l 1221 543 l 1355 543 l 1355 407 l 1221 407 m 1221 543 l 1221 679 l 1355 679 l 1355 543 l 1221 543 m 1221 679 l 1221 815 l 1355 815 l 1355 679 l 1221 679 m 1086 -1 l 1086 135 l 1221 135 l 1221 -1 l 1086 -1 m 1086 135 l 1086 271 l 1221 271 l 1221 135 l 1086 135 m 1086 271 l 1086 407 l 1221 407 l 1221 271 l 1086 271 m 1086 407 l 1086 543 l 1221 543 l 1221 407 l 1086 407 m 1086 543 l 1086 679 l 1221 679 l 1221 543 l 1086 543 m 1086 679 l 1086 815 l 1221 815 l 1221 679 l 1086 679 m 1086 815 l 1086 948 l 1221 948 l 1221 815 l 1086 815 m 949 948 l 949 1084 l 1086 1084 l 1086 948 l 949 948 m 949 -1 l 949 135 l 1086 135 l 1086 -1 l 949 -1 m 949 135 l 949 271 l 1086 271 l 1086 135 l 949 135 m 949 271 l 949 407 l 1086 407 l 1086 271 l 949 271 m 949 815 l 949 948 l 1086 948 l 1086 815 l 949 815 m 814 948 l 814 1084 l 949 1084 l 949 948 l 814 948 m 814 -1 l 814 135 l 949 135 l 949 -1 l 814 -1 m 814 135 l 814 271 l 949 271 l 949 135 l 814 135 m 677 948 l 677 1084 l 814 1084 l 814 948 l 677 948 m 677 -1 l 677 135 l 814 135 l 814 -1 l 677 -1 m 677 135 l 677 271 l 814 271 l 814 135 l 677 135 m 677 407 l 677 543 l 814 543 l 814 407 l 677 407 m 677 543 l 677 679 l 814 679 l 814 543 l 677 543 m 677 679 l 677 815 l 814 815 l 814 679 l 677 679 m 541 948 l 541 1084 l 677 1084 l 677 948 l 541 948 m 677 -134 l 677 -269 l 541 -269 l 541 -134 l 677 -134 m 541 -134 l 541 -1 l 677 -1 l 677 -134 l 541 -134 m 541 -1 l 541 135 l 677 135 l 677 -1 l 541 -1 m 541 135 l 541 271 l 677 271 l 677 135 l 541 135 m 541 407 l 541 543 l 677 543 l 677 407 l 541 407 m 541 543 l 541 679 l 677 679 l 677 543 l 541 543 m 541 679 l 541 815 l 677 815 l 677 679 l 541 679 m 408 948 l 408 1084 l 541 1084 l 541 948 l 408 948 m 541 -134 l 541 -269 l 408 -269 l 408 -134 l 541 -134 m 408 -134 l 408 -1 l 541 -1 l 541 -134 l 408 -134 m 408 -1 l 408 135 l 541 135 l 541 -1 l 408 -1 m 408 135 l 408 271 l 541 271 l 541 135 l 408 135 m 408 407 l 408 543 l 541 543 l 541 407 l 408 407 m 408 543 l 408 679 l 541 679 l 541 543 l 408 543 m 408 679 l 408 815 l 541 815 l 541 679 l 408 679 m 272 948 l 272 1084 l 408 1084 l 408 948 l 272 948 m 408 -134 l 408 -269 l 272 -269 l 272 -134 l 408 -134 m 272 -134 l 272 -1 l 408 -1 l 408 -134 l 272 -134 m 136 948 l 136 1084 l 272 1084 l 272 948 l 136 948 m 272 -134 l 272 -269 l 136 -269 l 136 -134 l 272 -134 m 136 -134 l 136 -1 l 272 -1 l 272 -134 l 136 -134 m 0 948 l 0 1084 l 136 1084 l 136 948 l 0 948 m 0 -134 l 0 -1 l 136 -1 l 136 -134 l 0 -134 m 0 -1 l 0 135 l 136 135 l 136 -1 l 0 -1 m 0 135 l 0 271 l 136 271 l 136 135 l 0 135 m 0 271 l 0 407 l 136 407 l 136 271 l 0 271 m 0 407 l 0 543 l 136 543 l 136 407 l 0 407 m 0 543 l 0 679 l 136 679 l 136 543 l 0 543 m 0 679 l 0 815 l 136 815 l 136 679 l 0 679 m 0 815 l 0 948 l 136 948 l 136 815 l 0 815 z "},"q":{"ha":1221,"x_min":0,"x_max":1355,"o":"m 1355 -134 l 1355 -269 l 1221 -269 l 1221 -134 l 1355 -134 m 1221 -134 l 1221 -1 l 1355 -1 l 1355 -134 l 1221 -134 m 1221 -1 l 1221 135 l 1355 135 l 1355 -1 l 1221 -1 m 1221 135 l 1221 271 l 1355 271 l 1355 135 l 1221 135 m 1221 271 l 1221 407 l 1355 407 l 1355 271 l 1221 271 m 1221 407 l 1221 543 l 1355 543 l 1355 407 l 1221 407 m 1221 543 l 1221 679 l 1355 679 l 1355 543 l 1221 543 m 1221 679 l 1221 815 l 1355 815 l 1355 679 l 1221 679 m 1221 -134 l 1221 -269 l 1086 -269 l 1086 -134 l 1221 -134 m 1086 -134 l 1086 -1 l 1221 -1 l 1221 -134 l 1086 -134 m 1086 -1 l 1086 135 l 1221 135 l 1221 -1 l 1086 -1 m 1086 135 l 1086 271 l 1221 271 l 1221 135 l 1086 135 m 1086 271 l 1086 407 l 1221 407 l 1221 271 l 1086 271 m 1086 407 l 1086 543 l 1221 543 l 1221 407 l 1086 407 m 1086 543 l 1086 679 l 1221 679 l 1221 543 l 1086 543 m 1086 679 l 1086 815 l 1221 815 l 1221 679 l 1086 679 m 1086 815 l 1086 948 l 1221 948 l 1221 815 l 1086 815 m 949 948 l 949 1084 l 1086 1084 l 1086 948 l 949 948 m 1086 -134 l 1086 -269 l 949 -269 l 949 -134 l 1086 -134 m 949 -134 l 949 -1 l 1086 -1 l 1086 -134 l 949 -134 m 949 135 l 949 271 l 1086 271 l 1086 135 l 949 135 m 949 815 l 949 948 l 1086 948 l 1086 815 l 949 815 m 814 948 l 814 1084 l 949 1084 l 949 948 l 814 948 m 949 -134 l 949 -269 l 814 -269 l 814 -134 l 949 -134 m 814 -134 l 814 -1 l 949 -1 l 949 -134 l 814 -134 m 677 948 l 677 1084 l 814 1084 l 814 948 l 677 948 m 814 -134 l 814 -269 l 677 -269 l 677 -134 l 814 -134 m 677 -134 l 677 -1 l 814 -1 l 814 -134 l 677 -134 m 677 271 l 677 407 l 814 407 l 814 271 l 677 271 m 677 407 l 677 543 l 814 543 l 814 407 l 677 407 m 677 543 l 677 679 l 814 679 l 814 543 l 677 543 m 677 679 l 677 815 l 814 815 l 814 679 l 677 679 m 541 948 l 541 1084 l 677 1084 l 677 948 l 541 948 m 677 -134 l 677 -269 l 541 -269 l 541 -134 l 677 -134 m 541 -134 l 541 -1 l 677 -1 l 677 -134 l 541 -134 m 541 135 l 541 271 l 677 271 l 677 135 l 541 135 m 541 271 l 541 407 l 677 407 l 677 271 l 541 271 m 541 407 l 541 543 l 677 543 l 677 407 l 541 407 m 541 543 l 541 679 l 677 679 l 677 543 l 541 543 m 541 679 l 541 815 l 677 815 l 677 679 l 541 679 m 408 948 l 408 1084 l 541 1084 l 541 948 l 408 948 m 541 -134 l 541 -269 l 408 -269 l 408 -134 l 541 -134 m 408 -134 l 408 -1 l 541 -1 l 541 -134 l 408 -134 m 408 135 l 408 271 l 541 271 l 541 135 l 408 135 m 408 271 l 408 407 l 541 407 l 541 271 l 408 271 m 408 407 l 408 543 l 541 543 l 541 407 l 408 407 m 408 543 l 408 679 l 541 679 l 541 543 l 408 543 m 408 679 l 408 815 l 541 815 l 541 679 l 408 679 m 272 948 l 272 1084 l 408 1084 l 408 948 l 272 948 m 408 -134 l 408 -269 l 272 -269 l 272 -134 l 408 -134 m 272 -134 l 272 -1 l 408 -1 l 408 -134 l 272 -134 m 136 948 l 136 1084 l 272 1084 l 272 948 l 136 948 m 136 -134 l 136 -1 l 272 -1 l 272 -134 l 136 -134 m 136 -1 l 136 135 l 272 135 l 272 -1 l 136 -1 m 136 815 l 136 948 l 272 948 l 272 815 l 136 815 m 0 -1 l 0 135 l 136 135 l 136 -1 l 0 -1 m 0 135 l 0 271 l 136 271 l 136 135 l 0 135 m 0 271 l 0 407 l 136 407 l 136 271 l 0 271 m 0 407 l 0 543 l 136 543 l 136 407 l 0 407 m 0 543 l 0 679 l 136 679 l 136 543 l 0 543 m 0 679 l 0 815 l 136 815 l 136 679 l 0 679 m 0 815 l 0 948 l 136 948 l 136 815 l 0 815 z "},"r":{"ha":1221,"x_min":0,"x_max":1355,"o":"m 1355 -134 l 1355 -269 l 1221 -269 l 1221 -134 l 1355 -134 m 1221 -134 l 1221 -1 l 1355 -1 l 1355 -134 l 1221 -134 m 1221 -1 l 1221 135 l 1355 135 l 1355 -1 l 1221 -1 m 1221 135 l 1221 271 l 1355 271 l 1355 135 l 1221 135 m 1221 271 l 1221 407 l 1355 407 l 1355 271 l 1221 271 m 1221 407 l 1221 543 l 1355 543 l 1355 407 l 1221 407 m 1221 543 l 1221 679 l 1355 679 l 1355 543 l 1221 543 m 1221 679 l 1221 815 l 1355 815 l 1355 679 l 1221 679 m 1221 -134 l 1221 -269 l 1086 -269 l 1086 -134 l 1221 -134 m 1086 -134 l 1086 -1 l 1221 -1 l 1221 -134 l 1086 -134 m 1086 -1 l 1086 135 l 1221 135 l 1221 -1 l 1086 -1 m 1086 135 l 1086 271 l 1221 271 l 1221 135 l 1086 135 m 1086 271 l 1086 407 l 1221 407 l 1221 271 l 1086 271 m 1086 407 l 1086 543 l 1221 543 l 1221 407 l 1086 407 m 1086 543 l 1086 679 l 1221 679 l 1221 543 l 1086 543 m 1086 679 l 1086 815 l 1221 815 l 1221 679 l 1086 679 m 1086 815 l 1086 948 l 1221 948 l 1221 815 l 1086 815 m 949 948 l 949 1084 l 1086 1084 l 1086 948 l 949 948 m 1086 -134 l 1086 -269 l 949 -269 l 949 -134 l 1086 -134 m 949 -134 l 949 -1 l 1086 -1 l 1086 -134 l 949 -134 m 949 407 l 949 543 l 1086 543 l 1086 407 l 949 407 m 949 815 l 949 948 l 1086 948 l 1086 815 l 949 815 m 814 948 l 814 1084 l 949 1084 l 949 948 l 814 948 m 949 -134 l 949 -269 l 814 -269 l 814 -134 l 949 -134 m 814 -134 l 814 -1 l 949 -1 l 949 -134 l 814 -134 m 677 948 l 677 1084 l 814 1084 l 814 948 l 677 948 m 677 -134 l 677 -1 l 814 -1 l 814 -134 l 677 -134 m 677 -1 l 677 135 l 814 135 l 814 -1 l 677 -1 m 677 135 l 677 271 l 814 271 l 814 135 l 677 135 m 677 271 l 677 407 l 814 407 l 814 271 l 677 271 m 677 543 l 677 679 l 814 679 l 814 543 l 677 543 m 677 679 l 677 815 l 814 815 l 814 679 l 677 679 m 541 948 l 541 1084 l 677 1084 l 677 948 l 541 948 m 677 -134 l 677 -269 l 541 -269 l 541 -134 l 677 -134 m 541 -134 l 541 -1 l 677 -1 l 677 -134 l 541 -134 m 541 -1 l 541 135 l 677 135 l 677 -1 l 541 -1 m 541 135 l 541 271 l 677 271 l 677 135 l 541 135 m 541 271 l 541 407 l 677 407 l 677 271 l 541 271 m 541 543 l 541 679 l 677 679 l 677 543 l 541 543 m 541 679 l 541 815 l 677 815 l 677 679 l 541 679 m 408 948 l 408 1084 l 541 1084 l 541 948 l 408 948 m 541 -134 l 541 -269 l 408 -269 l 408 -134 l 541 -134 m 408 -134 l 408 -1 l 541 -1 l 541 -134 l 408 -134 m 408 -1 l 408 135 l 541 135 l 541 -1 l 408 -1 m 408 135 l 408 271 l 541 271 l 541 135 l 408 135 m 408 271 l 408 407 l 541 407 l 541 271 l 408 271 m 408 543 l 408 679 l 541 679 l 541 543 l 408 543 m 408 679 l 408 815 l 541 815 l 541 679 l 408 679 m 272 948 l 272 1084 l 408 1084 l 408 948 l 272 948 m 408 -134 l 408 -269 l 272 -269 l 272 -134 l 408 -134 m 272 -134 l 272 -1 l 408 -1 l 408 -134 l 272 -134 m 136 948 l 136 1084 l 272 1084 l 272 948 l 136 948 m 272 -134 l 272 -269 l 136 -269 l 136 -134 l 272 -134 m 136 -134 l 136 -1 l 272 -1 l 272 -134 l 136 -134 m 0 948 l 0 1084 l 136 1084 l 136 948 l 0 948 m 0 -134 l 0 -1 l 136 -1 l 136 -134 l 0 -134 m 0 -1 l 0 135 l 136 135 l 136 -1 l 0 -1 m 0 135 l 0 271 l 136 271 l 136 135 l 0 135 m 0 271 l 0 407 l 136 407 l 136 271 l 0 271 m 0 407 l 0 543 l 136 543 l 136 407 l 0 407 m 0 543 l 0 679 l 136 679 l 136 543 l 0 543 m 0 679 l 0 815 l 136 815 l 136 679 l 0 679 m 0 815 l 0 948 l 136 948 l 136 815 l 0 815 z "},"s":{"ha":1221,"x_min":0,"x_max":1355,"o":"m 1221 -134 l 1221 -1 l 1355 -1 l 1355 -134 l 1221 -134 m 1221 -1 l 1221 135 l 1355 135 l 1355 -1 l 1221 -1 m 1221 135 l 1221 271 l 1355 271 l 1355 135 l 1221 135 m 1221 271 l 1221 407 l 1355 407 l 1355 271 l 1221 271 m 1221 407 l 1221 543 l 1355 543 l 1355 407 l 1221 407 m 1221 543 l 1221 679 l 1355 679 l 1355 543 l 1221 543 m 1221 679 l 1221 815 l 1355 815 l 1355 679 l 1221 679 m 1221 -134 l 1221 -269 l 1086 -269 l 1086 -134 l 1221 -134 m 1086 -134 l 1086 -1 l 1221 -1 l 1221 -134 l 1086 -134 m 1086 -1 l 1086 135 l 1221 135 l 1221 -1 l 1086 -1 m 1086 135 l 1086 271 l 1221 271 l 1221 135 l 1086 135 m 1086 271 l 1086 407 l 1221 407 l 1221 271 l 1086 271 m 1086 407 l 1086 543 l 1221 543 l 1221 407 l 1086 407 m 1086 543 l 1086 679 l 1221 679 l 1221 543 l 1086 543 m 1086 679 l 1086 815 l 1221 815 l 1221 679 l 1086 679 m 1086 815 l 1086 948 l 1221 948 l 1221 815 l 1086 815 m 949 948 l 949 1084 l 1086 1084 l 1086 948 l 949 948 m 1086 -134 l 1086 -269 l 949 -269 l 949 -134 l 1086 -134 m 949 -134 l 949 -1 l 1086 -1 l 1086 -134 l 949 -134 m 949 -1 l 949 135 l 1086 135 l 1086 -1 l 949 -1 m 949 407 l 949 543 l 1086 543 l 1086 407 l 949 407 m 949 543 l 949 679 l 1086 679 l 1086 543 l 949 543 m 949 815 l 949 948 l 1086 948 l 1086 815 l 949 815 m 814 948 l 814 1084 l 949 1084 l 949 948 l 814 948 m 949 -134 l 949 -269 l 814 -269 l 814 -134 l 949 -134 m 814 -134 l 814 -1 l 949 -1 l 949 -134 l 814 -134 m 814 543 l 814 679 l 949 679 l 949 543 l 814 543 m 677 948 l 677 1084 l 814 1084 l 814 948 l 677 948 m 814 -134 l 814 -269 l 677 -269 l 677 -134 l 814 -134 m 677 -134 l 677 -1 l 814 -1 l 814 -134 l 677 -134 m 677 135 l 677 271 l 814 271 l 814 135 l 677 135 m 677 271 l 677 407 l 814 407 l 814 271 l 677 271 m 677 543 l 677 679 l 814 679 l 814 543 l 677 543 m 677 679 l 677 815 l 814 815 l 814 679 l 677 679 m 541 948 l 541 1084 l 677 1084 l 677 948 l 541 948 m 677 -134 l 677 -269 l 541 -269 l 541 -134 l 677 -134 m 541 -134 l 541 -1 l 677 -1 l 677 -134 l 541 -134 m 541 135 l 541 271 l 677 271 l 677 135 l 541 135 m 541 271 l 541 407 l 677 407 l 677 271 l 541 271 m 541 543 l 541 679 l 677 679 l 677 543 l 541 543 m 541 679 l 541 815 l 677 815 l 677 679 l 541 679 m 408 948 l 408 1084 l 541 1084 l 541 948 l 408 948 m 541 -134 l 541 -269 l 408 -269 l 408 -134 l 541 -134 m 408 -134 l 408 -1 l 541 -1 l 541 -134 l 408 -134 m 408 135 l 408 271 l 541 271 l 541 135 l 408 135 m 408 271 l 408 407 l 541 407 l 541 271 l 408 271 m 408 543 l 408 679 l 541 679 l 541 543 l 408 543 m 408 679 l 408 815 l 541 815 l 541 679 l 408 679 m 272 948 l 272 1084 l 408 1084 l 408 948 l 272 948 m 408 -134 l 408 -269 l 272 -269 l 272 -134 l 408 -134 m 272 -134 l 272 -1 l 408 -1 l 408 -134 l 272 -134 m 272 271 l 272 407 l 408 407 l 408 271 l 272 271 m 136 948 l 136 1084 l 272 1084 l 272 948 l 136 948 m 136 -134 l 136 -1 l 272 -1 l 272 -134 l 136 -134 m 136 -1 l 136 135 l 272 135 l 272 -1 l 136 -1 m 136 271 l 136 407 l 272 407 l 272 271 l 136 271 m 136 407 l 136 543 l 272 543 l 272 407 l 136 407 m 136 815 l 136 948 l 272 948 l 272 815 l 136 815 m 0 -1 l 0 135 l 136 135 l 136 -1 l 0 -1 m 0 135 l 0 271 l 136 271 l 136 135 l 0 135 m 0 271 l 0 407 l 136 407 l 136 271 l 0 271 m 0 407 l 0 543 l 136 543 l 136 407 l 0 407 m 0 543 l 0 679 l 136 679 l 136 543 l 0 543 m 0 679 l 0 815 l 136 815 l 136 679 l 0 679 m 0 815 l 0 948 l 136 948 l 136 815 l 0 815 z "},"t":{"ha":1086,"x_min":0,"x_max":1221,"o":"m 1086 543 l 1086 679 l 1221 679 l 1221 543 l 1086 543 m 1086 679 l 1086 815 l 1221 815 l 1221 679 l 1086 679 m 1086 815 l 1086 948 l 1221 948 l 1221 815 l 1086 815 m 949 948 l 949 1084 l 1086 1084 l 1086 948 l 949 948 m 949 543 l 949 679 l 1086 679 l 1086 543 l 949 543 m 949 679 l 949 815 l 1086 815 l 1086 679 l 949 679 m 949 815 l 949 948 l 1086 948 l 1086 815 l 949 815 m 814 948 l 814 1084 l 949 1084 l 949 948 l 814 948 m 949 -134 l 949 -269 l 814 -269 l 814 -134 l 949 -134 m 814 -134 l 814 -1 l 949 -1 l 949 -134 l 814 -134 m 814 -1 l 814 135 l 949 135 l 949 -1 l 814 -1 m 814 135 l 814 271 l 949 271 l 949 135 l 814 135 m 814 271 l 814 407 l 949 407 l 949 271 l 814 271 m 814 407 l 814 543 l 949 543 l 949 407 l 814 407 m 814 543 l 814 679 l 949 679 l 949 543 l 814 543 m 814 679 l 814 815 l 949 815 l 949 679 l 814 679 m 677 948 l 677 1084 l 814 1084 l 814 948 l 677 948 m 814 -134 l 814 -269 l 677 -269 l 677 -134 l 814 -134 m 677 -134 l 677 -1 l 814 -1 l 814 -134 l 677 -134 m 677 -1 l 677 135 l 814 135 l 814 -1 l 677 -1 m 677 135 l 677 271 l 814 271 l 814 135 l 677 135 m 677 271 l 677 407 l 814 407 l 814 271 l 677 271 m 677 407 l 677 543 l 814 543 l 814 407 l 677 407 m 677 543 l 677 679 l 814 679 l 814 543 l 677 543 m 677 679 l 677 815 l 814 815 l 814 679 l 677 679 m 541 948 l 541 1084 l 677 1084 l 677 948 l 541 948 m 677 -134 l 677 -269 l 541 -269 l 541 -134 l 677 -134 m 541 -134 l 541 -1 l 677 -1 l 677 -134 l 541 -134 m 408 948 l 408 1084 l 541 1084 l 541 948 l 408 948 m 541 -134 l 541 -269 l 408 -269 l 408 -134 l 541 -134 m 408 -134 l 408 -1 l 541 -1 l 541 -134 l 408 -134 m 272 948 l 272 1084 l 408 1084 l 408 948 l 272 948 m 272 -134 l 272 -1 l 408 -1 l 408 -134 l 272 -134 m 272 -1 l 272 135 l 408 135 l 408 -1 l 272 -1 m 272 135 l 272 271 l 408 271 l 408 135 l 272 135 m 272 271 l 272 407 l 408 407 l 408 271 l 272 271 m 272 407 l 272 543 l 408 543 l 408 407 l 272 407 m 272 543 l 272 679 l 408 679 l 408 543 l 272 543 m 272 679 l 272 815 l 408 815 l 408 679 l 272 679 m 136 948 l 136 1084 l 272 1084 l 272 948 l 136 948 m 136 679 l 136 815 l 272 815 l 272 679 l 136 679 m 0 948 l 0 1084 l 136 1084 l 136 948 l 0 948 m 0 679 l 0 815 l 136 815 l 136 679 l 0 679 m 0 815 l 0 948 l 136 948 l 136 815 l 0 815 z "},"u":{"ha":1221,"x_min":0,"x_max":1355,"o":"m 1221 -134 l 1221 -1 l 1355 -1 l 1355 -134 l 1221 -134 m 1221 -1 l 1221 135 l 1355 135 l 1355 -1 l 1221 -1 m 1221 135 l 1221 271 l 1355 271 l 1355 135 l 1221 135 m 1221 271 l 1221 407 l 1355 407 l 1355 271 l 1221 271 m 1221 407 l 1221 543 l 1355 543 l 1355 407 l 1221 407 m 1221 543 l 1221 679 l 1355 679 l 1355 543 l 1221 543 m 1221 679 l 1221 815 l 1355 815 l 1355 679 l 1221 679 m 1221 815 l 1221 948 l 1355 948 l 1355 815 l 1221 815 m 1086 948 l 1086 1084 l 1221 1084 l 1221 948 l 1086 948 m 1221 -134 l 1221 -269 l 1086 -269 l 1086 -134 l 1221 -134 m 1086 -134 l 1086 -1 l 1221 -1 l 1221 -134 l 1086 -134 m 1086 -1 l 1086 135 l 1221 135 l 1221 -1 l 1086 -1 m 1086 135 l 1086 271 l 1221 271 l 1221 135 l 1086 135 m 1086 271 l 1086 407 l 1221 407 l 1221 271 l 1086 271 m 1086 407 l 1086 543 l 1221 543 l 1221 407 l 1086 407 m 1086 543 l 1086 679 l 1221 679 l 1221 543 l 1086 543 m 1086 679 l 1086 815 l 1221 815 l 1221 679 l 1086 679 m 1086 815 l 1086 948 l 1221 948 l 1221 815 l 1086 815 m 949 948 l 949 1084 l 1086 1084 l 1086 948 l 949 948 m 1086 -134 l 1086 -269 l 949 -269 l 949 -134 l 1086 -134 m 949 -134 l 949 -1 l 1086 -1 l 1086 -134 l 949 -134 m 949 -1 l 949 135 l 1086 135 l 1086 -1 l 949 -1 m 814 948 l 814 1084 l 949 1084 l 949 948 l 814 948 m 949 -134 l 949 -269 l 814 -269 l 814 -134 l 949 -134 m 814 -134 l 814 -1 l 949 -1 l 949 -134 l 814 -134 m 677 948 l 677 1084 l 814 1084 l 814 948 l 677 948 m 814 -134 l 814 -269 l 677 -269 l 677 -134 l 814 -134 m 677 -134 l 677 -1 l 814 -1 l 814 -134 l 677 -134 m 677 135 l 677 271 l 814 271 l 814 135 l 677 135 m 677 271 l 677 407 l 814 407 l 814 271 l 677 271 m 677 407 l 677 543 l 814 543 l 814 407 l 677 407 m 677 543 l 677 679 l 814 679 l 814 543 l 677 543 m 677 679 l 677 815 l 814 815 l 814 679 l 677 679 m 677 815 l 677 948 l 814 948 l 814 815 l 677 815 m 677 -134 l 677 -269 l 541 -269 l 541 -134 l 677 -134 m 541 -134 l 541 -1 l 677 -1 l 677 -134 l 541 -134 m 541 135 l 541 271 l 677 271 l 677 135 l 541 135 m 541 271 l 541 407 l 677 407 l 677 271 l 541 271 m 541 407 l 541 543 l 677 543 l 677 407 l 541 407 m 541 543 l 541 679 l 677 679 l 677 543 l 541 543 m 541 679 l 541 815 l 677 815 l 677 679 l 541 679 m 541 815 l 541 948 l 677 948 l 677 815 l 541 815 m 408 948 l 408 1084 l 541 1084 l 541 948 l 408 948 m 541 -134 l 541 -269 l 408 -269 l 408 -134 l 541 -134 m 408 -134 l 408 -1 l 541 -1 l 541 -134 l 408 -134 m 408 135 l 408 271 l 541 271 l 541 135 l 408 135 m 408 271 l 408 407 l 541 407 l 541 271 l 408 271 m 408 407 l 408 543 l 541 543 l 541 407 l 408 407 m 408 543 l 408 679 l 541 679 l 541 543 l 408 543 m 408 679 l 408 815 l 541 815 l 541 679 l 408 679 m 408 815 l 408 948 l 541 948 l 541 815 l 408 815 m 272 948 l 272 1084 l 408 1084 l 408 948 l 272 948 m 408 -134 l 408 -269 l 272 -269 l 272 -134 l 408 -134 m 272 -134 l 272 -1 l 408 -1 l 408 -134 l 272 -134 m 136 948 l 136 1084 l 272 1084 l 272 948 l 136 948 m 136 -134 l 136 -1 l 272 -1 l 272 -134 l 136 -134 m 136 -1 l 136 135 l 272 135 l 272 -1 l 136 -1 m 0 948 l 0 1084 l 136 1084 l 136 948 l 0 948 m 0 -1 l 0 135 l 136 135 l 136 -1 l 0 -1 m 0 135 l 0 271 l 136 271 l 136 135 l 0 135 m 0 271 l 0 407 l 136 407 l 136 271 l 0 271 m 0 407 l 0 543 l 136 543 l 136 407 l 0 407 m 0 543 l 0 679 l 136 679 l 136 543 l 0 543 m 0 679 l 0 815 l 136 815 l 136 679 l 0 679 m 0 815 l 0 948 l 136 948 l 136 815 l 0 815 z "},"v":{"ha":1221,"x_min":0,"x_max":1355,"o":"m 1221 135 l 1221 271 l 1355 271 l 1355 135 l 1221 135 m 1221 271 l 1221 407 l 1355 407 l 1355 271 l 1221 271 m 1221 407 l 1221 543 l 1355 543 l 1355 407 l 1221 407 m 1221 543 l 1221 679 l 1355 679 l 1355 543 l 1221 543 m 1221 679 l 1221 815 l 1355 815 l 1355 679 l 1221 679 m 1221 815 l 1221 948 l 1355 948 l 1355 815 l 1221 815 m 1086 948 l 1086 1084 l 1221 1084 l 1221 948 l 1086 948 m 1086 -1 l 1086 135 l 1221 135 l 1221 -1 l 1086 -1 m 1086 135 l 1086 271 l 1221 271 l 1221 135 l 1086 135 m 1086 271 l 1086 407 l 1221 407 l 1221 271 l 1086 271 m 1086 407 l 1086 543 l 1221 543 l 1221 407 l 1086 407 m 1086 543 l 1086 679 l 1221 679 l 1221 543 l 1086 543 m 1086 679 l 1086 815 l 1221 815 l 1221 679 l 1086 679 m 1086 815 l 1086 948 l 1221 948 l 1221 815 l 1086 815 m 949 948 l 949 1084 l 1086 1084 l 1086 948 l 949 948 m 949 -134 l 949 -1 l 1086 -1 l 1086 -134 l 949 -134 m 949 -1 l 949 135 l 1086 135 l 1086 -1 l 949 -1 m 949 135 l 949 271 l 1086 271 l 1086 135 l 949 135 m 949 271 l 949 407 l 1086 407 l 1086 271 l 949 271 m 814 948 l 814 1084 l 949 1084 l 949 948 l 814 948 m 949 -134 l 949 -269 l 814 -269 l 814 -134 l 949 -134 m 814 -134 l 814 -1 l 949 -1 l 949 -134 l 814 -134 m 814 -1 l 814 135 l 949 135 l 949 -1 l 814 -1 m 814 135 l 814 271 l 949 271 l 949 135 l 814 135 m 677 948 l 677 1084 l 814 1084 l 814 948 l 677 948 m 814 -134 l 814 -269 l 677 -269 l 677 -134 l 814 -134 m 677 -134 l 677 -1 l 814 -1 l 814 -134 l 677 -134 m 677 -1 l 677 135 l 814 135 l 814 -1 l 677 -1 m 677 407 l 677 543 l 814 543 l 814 407 l 677 407 m 677 543 l 677 679 l 814 679 l 814 543 l 677 543 m 677 679 l 677 815 l 814 815 l 814 679 l 677 679 m 677 815 l 677 948 l 814 948 l 814 815 l 677 815 m 677 -134 l 677 -269 l 541 -269 l 541 -134 l 677 -134 m 541 -134 l 541 -1 l 677 -1 l 677 -134 l 541 -134 m 541 271 l 541 407 l 677 407 l 677 271 l 541 271 m 541 407 l 541 543 l 677 543 l 677 407 l 541 407 m 541 543 l 541 679 l 677 679 l 677 543 l 541 543 m 541 679 l 541 815 l 677 815 l 677 679 l 541 679 m 541 815 l 541 948 l 677 948 l 677 815 l 541 815 m 408 948 l 408 1084 l 541 1084 l 541 948 l 408 948 m 408 -134 l 408 -1 l 541 -1 l 541 -134 l 408 -134 m 408 -1 l 408 135 l 541 135 l 541 -1 l 408 -1 m 408 407 l 408 543 l 541 543 l 541 407 l 408 407 m 408 543 l 408 679 l 541 679 l 541 543 l 408 543 m 408 679 l 408 815 l 541 815 l 541 679 l 408 679 m 408 815 l 408 948 l 541 948 l 541 815 l 408 815 m 272 948 l 272 1084 l 408 1084 l 408 948 l 272 948 m 272 -1 l 272 135 l 408 135 l 408 -1 l 272 -1 m 272 135 l 272 271 l 408 271 l 408 135 l 272 135 m 136 948 l 136 1084 l 272 1084 l 272 948 l 136 948 m 136 135 l 136 271 l 272 271 l 272 135 l 136 135 m 136 271 l 136 407 l 272 407 l 272 271 l 136 271 m 0 948 l 0 1084 l 136 1084 l 136 948 l 0 948 m 0 271 l 0 407 l 136 407 l 136 271 l 0 271 m 0 407 l 0 543 l 136 543 l 136 407 l 0 407 m 0 543 l 0 679 l 136 679 l 136 543 l 0 543 m 0 679 l 0 815 l 136 815 l 136 679 l 0 679 m 0 815 l 0 948 l 136 948 l 136 815 l 0 815 z "}}}
